<?xml version="1.0" encoding="utf-8" standalone="no"?>
<!DOCTYPE svg PUBLIC "-//W3C//DTD SVG 1.1//EN"
  "http://www.w3.org/Graphics/SVG/1.1/DTD/svg11.dtd">
<svg xmlns:xlink="http://www.w3.org/1999/xlink" width="1798.79375pt" height="1091.549688pt" viewBox="0 0 1798.79375 1091.549688" xmlns="http://www.w3.org/2000/svg" version="1.1">
 <metadata>
  <rdf:RDF xmlns:dc="http://purl.org/dc/elements/1.1/" xmlns:cc="http://creativecommons.org/ns#" xmlns:rdf="http://www.w3.org/1999/02/22-rdf-syntax-ns#">
   <cc:Work>
    <dc:type rdf:resource="http://purl.org/dc/dcmitype/StillImage"/>
    <dc:date>2024-07-29T20:11:17.929631</dc:date>
    <dc:format>image/svg+xml</dc:format>
    <dc:creator>
     <cc:Agent>
      <dc:title>Matplotlib v3.7.2, https://matplotlib.org/</dc:title>
     </cc:Agent>
    </dc:creator>
   </cc:Work>
  </rdf:RDF>
 </metadata>
 <defs>
  <style type="text/css">*{stroke-linejoin: round; stroke-linecap: butt}</style>
 </defs>
 <g id="figure_1">
  <g id="patch_1">
   <path d="M 0 1091.549688 
L 1798.79375 1091.549688 
L 1798.79375 0 
L 0 0 
z
" style="fill: #ffffff"/>
  </g>
  <g id="axes_1">
   <g id="patch_2">
    <path d="M 555.2 872.673438 
L 1671.2 872.673438 
L 1671.2 41.073438 
L 555.2 41.073438 
z
" style="fill: #ffffff"/>
   </g>
   <g id="matplotlib.axis_1">
    <g id="xtick_1">
     <g id="line2d_1">
      <defs>
       <path id="m7a3b215e10" d="M 0 0 
L 0 3.5 
" style="stroke: #000000; stroke-width: 0.8"/>
      </defs>
      <g>
       <use xlink:href="#m7a3b215e10" x="605.927273" y="872.673438" style="stroke: #000000; stroke-width: 0.8"/>
      </g>
     </g>
     <g id="text_1">
      <!-- 10% -->
      <g transform="translate(581.991335 894.870313) scale(0.2 -0.2)">
       <defs>
        <path id="DejaVuSans-Bold-31" d="M 750 831 
L 1813 831 
L 1813 3847 
L 722 3622 
L 722 4441 
L 1806 4666 
L 2950 4666 
L 2950 831 
L 4013 831 
L 4013 0 
L 750 0 
L 750 831 
z
" transform="scale(0.015625)"/>
        <path id="DejaVuSans-Bold-30" d="M 2944 2338 
Q 2944 3213 2780 3570 
Q 2616 3928 2228 3928 
Q 1841 3928 1675 3570 
Q 1509 3213 1509 2338 
Q 1509 1453 1675 1090 
Q 1841 728 2228 728 
Q 2613 728 2778 1090 
Q 2944 1453 2944 2338 
z
M 4147 2328 
Q 4147 1169 3647 539 
Q 3147 -91 2228 -91 
Q 1306 -91 806 539 
Q 306 1169 306 2328 
Q 306 3491 806 4120 
Q 1306 4750 2228 4750 
Q 3147 4750 3647 4120 
Q 4147 3491 4147 2328 
z
" transform="scale(0.015625)"/>
        <path id="DejaVuSans-Bold-25" d="M 4959 1925 
Q 4738 1925 4616 1733 
Q 4494 1541 4494 1184 
Q 4494 825 4614 633 
Q 4734 441 4959 441 
Q 5184 441 5303 633 
Q 5422 825 5422 1184 
Q 5422 1541 5301 1733 
Q 5181 1925 4959 1925 
z
M 4959 2450 
Q 5541 2450 5875 2112 
Q 6209 1775 6209 1184 
Q 6209 594 5875 251 
Q 5541 -91 4959 -91 
Q 4378 -91 4042 251 
Q 3706 594 3706 1184 
Q 3706 1772 4042 2111 
Q 4378 2450 4959 2450 
z
M 2094 -91 
L 1403 -91 
L 4319 4750 
L 5013 4750 
L 2094 -91 
z
M 1453 4750 
Q 2034 4750 2367 4411 
Q 2700 4072 2700 3481 
Q 2700 2891 2367 2550 
Q 2034 2209 1453 2209 
Q 872 2209 539 2550 
Q 206 2891 206 3481 
Q 206 4072 539 4411 
Q 872 4750 1453 4750 
z
M 1453 4225 
Q 1228 4225 1106 4031 
Q 984 3838 984 3481 
Q 984 3122 1106 2926 
Q 1228 2731 1453 2731 
Q 1678 2731 1798 2926 
Q 1919 3122 1919 3481 
Q 1919 3838 1797 4031 
Q 1675 4225 1453 4225 
z
" transform="scale(0.015625)"/>
       </defs>
       <use xlink:href="#DejaVuSans-Bold-31"/>
       <use xlink:href="#DejaVuSans-Bold-30" x="69.580078"/>
       <use xlink:href="#DejaVuSans-Bold-25" x="139.160156"/>
      </g>
     </g>
    </g>
    <g id="xtick_2">
     <g id="line2d_2">
      <g>
       <use xlink:href="#m7a3b215e10" x="732.745455" y="872.673438" style="stroke: #000000; stroke-width: 0.8"/>
      </g>
     </g>
     <g id="text_2">
      <!-- 20% -->
      <g transform="translate(708.809517 894.870313) scale(0.2 -0.2)">
       <defs>
        <path id="DejaVuSans-Bold-32" d="M 1844 884 
L 3897 884 
L 3897 0 
L 506 0 
L 506 884 
L 2209 2388 
Q 2438 2594 2547 2791 
Q 2656 2988 2656 3200 
Q 2656 3528 2436 3728 
Q 2216 3928 1850 3928 
Q 1569 3928 1234 3808 
Q 900 3688 519 3450 
L 519 4475 
Q 925 4609 1322 4679 
Q 1719 4750 2100 4750 
Q 2938 4750 3402 4381 
Q 3866 4013 3866 3353 
Q 3866 2972 3669 2642 
Q 3472 2313 2841 1759 
L 1844 884 
z
" transform="scale(0.015625)"/>
       </defs>
       <use xlink:href="#DejaVuSans-Bold-32"/>
       <use xlink:href="#DejaVuSans-Bold-30" x="69.580078"/>
       <use xlink:href="#DejaVuSans-Bold-25" x="139.160156"/>
      </g>
     </g>
    </g>
    <g id="xtick_3">
     <g id="line2d_3">
      <g>
       <use xlink:href="#m7a3b215e10" x="859.563636" y="872.673438" style="stroke: #000000; stroke-width: 0.8"/>
      </g>
     </g>
     <g id="text_3">
      <!-- 30% -->
      <g transform="translate(835.627699 894.870313) scale(0.2 -0.2)">
       <defs>
        <path id="DejaVuSans-Bold-33" d="M 2981 2516 
Q 3453 2394 3698 2092 
Q 3944 1791 3944 1325 
Q 3944 631 3412 270 
Q 2881 -91 1863 -91 
Q 1503 -91 1142 -33 
Q 781 25 428 141 
L 428 1069 
Q 766 900 1098 814 
Q 1431 728 1753 728 
Q 2231 728 2486 893 
Q 2741 1059 2741 1369 
Q 2741 1688 2480 1852 
Q 2219 2016 1709 2016 
L 1228 2016 
L 1228 2791 
L 1734 2791 
Q 2188 2791 2409 2933 
Q 2631 3075 2631 3366 
Q 2631 3634 2415 3781 
Q 2200 3928 1806 3928 
Q 1516 3928 1219 3862 
Q 922 3797 628 3669 
L 628 4550 
Q 984 4650 1334 4700 
Q 1684 4750 2022 4750 
Q 2931 4750 3382 4451 
Q 3834 4153 3834 3553 
Q 3834 3144 3618 2883 
Q 3403 2622 2981 2516 
z
" transform="scale(0.015625)"/>
       </defs>
       <use xlink:href="#DejaVuSans-Bold-33"/>
       <use xlink:href="#DejaVuSans-Bold-30" x="69.580078"/>
       <use xlink:href="#DejaVuSans-Bold-25" x="139.160156"/>
      </g>
     </g>
    </g>
    <g id="xtick_4">
     <g id="line2d_4">
      <g>
       <use xlink:href="#m7a3b215e10" x="986.381818" y="872.673438" style="stroke: #000000; stroke-width: 0.8"/>
      </g>
     </g>
     <g id="text_4">
      <!-- 40% -->
      <g transform="translate(962.445881 894.870313) scale(0.2 -0.2)">
       <defs>
        <path id="DejaVuSans-Bold-34" d="M 2356 3675 
L 1038 1722 
L 2356 1722 
L 2356 3675 
z
M 2156 4666 
L 3494 4666 
L 3494 1722 
L 4159 1722 
L 4159 850 
L 3494 850 
L 3494 0 
L 2356 0 
L 2356 850 
L 288 850 
L 288 1881 
L 2156 4666 
z
" transform="scale(0.015625)"/>
       </defs>
       <use xlink:href="#DejaVuSans-Bold-34"/>
       <use xlink:href="#DejaVuSans-Bold-30" x="69.580078"/>
       <use xlink:href="#DejaVuSans-Bold-25" x="139.160156"/>
      </g>
     </g>
    </g>
    <g id="xtick_5">
     <g id="line2d_5">
      <g>
       <use xlink:href="#m7a3b215e10" x="1113.2" y="872.673438" style="stroke: #000000; stroke-width: 0.8"/>
      </g>
     </g>
     <g id="text_5">
      <!-- 50% -->
      <g transform="translate(1089.264062 894.870313) scale(0.2 -0.2)">
       <defs>
        <path id="DejaVuSans-Bold-35" d="M 678 4666 
L 3669 4666 
L 3669 3781 
L 1638 3781 
L 1638 3059 
Q 1775 3097 1914 3117 
Q 2053 3138 2203 3138 
Q 3056 3138 3531 2711 
Q 4006 2284 4006 1522 
Q 4006 766 3489 337 
Q 2972 -91 2053 -91 
Q 1656 -91 1267 -14 
Q 878 63 494 219 
L 494 1166 
Q 875 947 1217 837 
Q 1559 728 1863 728 
Q 2300 728 2551 942 
Q 2803 1156 2803 1522 
Q 2803 1891 2551 2103 
Q 2300 2316 1863 2316 
Q 1603 2316 1309 2248 
Q 1016 2181 678 2041 
L 678 4666 
z
" transform="scale(0.015625)"/>
       </defs>
       <use xlink:href="#DejaVuSans-Bold-35"/>
       <use xlink:href="#DejaVuSans-Bold-30" x="69.580078"/>
       <use xlink:href="#DejaVuSans-Bold-25" x="139.160156"/>
      </g>
     </g>
    </g>
    <g id="xtick_6">
     <g id="line2d_6">
      <g>
       <use xlink:href="#m7a3b215e10" x="1240.018182" y="872.673438" style="stroke: #000000; stroke-width: 0.8"/>
      </g>
     </g>
     <g id="text_6">
      <!-- 60% -->
      <g transform="translate(1216.082244 894.870313) scale(0.2 -0.2)">
       <defs>
        <path id="DejaVuSans-Bold-36" d="M 2316 2303 
Q 2000 2303 1842 2098 
Q 1684 1894 1684 1484 
Q 1684 1075 1842 870 
Q 2000 666 2316 666 
Q 2634 666 2792 870 
Q 2950 1075 2950 1484 
Q 2950 1894 2792 2098 
Q 2634 2303 2316 2303 
z
M 3803 4544 
L 3803 3681 
Q 3506 3822 3243 3889 
Q 2981 3956 2731 3956 
Q 2194 3956 1894 3657 
Q 1594 3359 1544 2772 
Q 1750 2925 1990 3001 
Q 2231 3078 2516 3078 
Q 3231 3078 3670 2659 
Q 4109 2241 4109 1563 
Q 4109 813 3618 361 
Q 3128 -91 2303 -91 
Q 1394 -91 895 523 
Q 397 1138 397 2266 
Q 397 3422 980 4083 
Q 1563 4744 2578 4744 
Q 2900 4744 3203 4694 
Q 3506 4644 3803 4544 
z
" transform="scale(0.015625)"/>
       </defs>
       <use xlink:href="#DejaVuSans-Bold-36"/>
       <use xlink:href="#DejaVuSans-Bold-30" x="69.580078"/>
       <use xlink:href="#DejaVuSans-Bold-25" x="139.160156"/>
      </g>
     </g>
    </g>
    <g id="xtick_7">
     <g id="line2d_7">
      <g>
       <use xlink:href="#m7a3b215e10" x="1366.836364" y="872.673438" style="stroke: #000000; stroke-width: 0.8"/>
      </g>
     </g>
     <g id="text_7">
      <!-- 70% -->
      <g transform="translate(1342.900426 894.870313) scale(0.2 -0.2)">
       <defs>
        <path id="DejaVuSans-Bold-37" d="M 428 4666 
L 3944 4666 
L 3944 3988 
L 2125 0 
L 953 0 
L 2675 3781 
L 428 3781 
L 428 4666 
z
" transform="scale(0.015625)"/>
       </defs>
       <use xlink:href="#DejaVuSans-Bold-37"/>
       <use xlink:href="#DejaVuSans-Bold-30" x="69.580078"/>
       <use xlink:href="#DejaVuSans-Bold-25" x="139.160156"/>
      </g>
     </g>
    </g>
    <g id="xtick_8">
     <g id="line2d_8">
      <g>
       <use xlink:href="#m7a3b215e10" x="1493.654545" y="872.673438" style="stroke: #000000; stroke-width: 0.8"/>
      </g>
     </g>
     <g id="text_8">
      <!-- 80% -->
      <g transform="translate(1469.718608 894.870313) scale(0.2 -0.2)">
       <defs>
        <path id="DejaVuSans-Bold-38" d="M 2228 2088 
Q 1891 2088 1709 1903 
Q 1528 1719 1528 1375 
Q 1528 1031 1709 848 
Q 1891 666 2228 666 
Q 2563 666 2741 848 
Q 2919 1031 2919 1375 
Q 2919 1722 2741 1905 
Q 2563 2088 2228 2088 
z
M 1350 2484 
Q 925 2613 709 2878 
Q 494 3144 494 3541 
Q 494 4131 934 4440 
Q 1375 4750 2228 4750 
Q 3075 4750 3515 4442 
Q 3956 4134 3956 3541 
Q 3956 3144 3739 2878 
Q 3522 2613 3097 2484 
Q 3572 2353 3814 2058 
Q 4056 1763 4056 1313 
Q 4056 619 3595 264 
Q 3134 -91 2228 -91 
Q 1319 -91 855 264 
Q 391 619 391 1313 
Q 391 1763 633 2058 
Q 875 2353 1350 2484 
z
M 1631 3419 
Q 1631 3141 1786 2991 
Q 1941 2841 2228 2841 
Q 2509 2841 2662 2991 
Q 2816 3141 2816 3419 
Q 2816 3697 2662 3845 
Q 2509 3994 2228 3994 
Q 1941 3994 1786 3844 
Q 1631 3694 1631 3419 
z
" transform="scale(0.015625)"/>
       </defs>
       <use xlink:href="#DejaVuSans-Bold-38"/>
       <use xlink:href="#DejaVuSans-Bold-30" x="69.580078"/>
       <use xlink:href="#DejaVuSans-Bold-25" x="139.160156"/>
      </g>
     </g>
    </g>
    <g id="xtick_9">
     <g id="line2d_9">
      <g>
       <use xlink:href="#m7a3b215e10" x="1620.472727" y="872.673438" style="stroke: #000000; stroke-width: 0.8"/>
      </g>
     </g>
     <g id="text_9">
      <!-- 90% -->
      <g transform="translate(1596.53679 894.870313) scale(0.2 -0.2)">
       <defs>
        <path id="DejaVuSans-Bold-39" d="M 641 103 
L 641 966 
Q 928 831 1190 764 
Q 1453 697 1709 697 
Q 2247 697 2547 995 
Q 2847 1294 2900 1881 
Q 2688 1725 2447 1647 
Q 2206 1569 1925 1569 
Q 1209 1569 770 1986 
Q 331 2403 331 3084 
Q 331 3838 820 4291 
Q 1309 4744 2131 4744 
Q 3044 4744 3544 4128 
Q 4044 3513 4044 2388 
Q 4044 1231 3459 570 
Q 2875 -91 1856 -91 
Q 1528 -91 1228 -42 
Q 928 6 641 103 
z
M 2125 2350 
Q 2441 2350 2600 2554 
Q 2759 2759 2759 3169 
Q 2759 3575 2600 3781 
Q 2441 3988 2125 3988 
Q 1809 3988 1650 3781 
Q 1491 3575 1491 3169 
Q 1491 2759 1650 2554 
Q 1809 2350 2125 2350 
z
" transform="scale(0.015625)"/>
       </defs>
       <use xlink:href="#DejaVuSans-Bold-39"/>
       <use xlink:href="#DejaVuSans-Bold-30" x="69.580078"/>
       <use xlink:href="#DejaVuSans-Bold-25" x="139.160156"/>
      </g>
     </g>
    </g>
    <g id="text_10">
     <!-- Percentage of data used for training -->
     <g transform="translate(803.785156 925.825) scale(0.3 -0.3)">
      <defs>
       <path id="DejaVuSans-Bold-50" d="M 588 4666 
L 2584 4666 
Q 3475 4666 3951 4270 
Q 4428 3875 4428 3144 
Q 4428 2409 3951 2014 
Q 3475 1619 2584 1619 
L 1791 1619 
L 1791 0 
L 588 0 
L 588 4666 
z
M 1791 3794 
L 1791 2491 
L 2456 2491 
Q 2806 2491 2997 2661 
Q 3188 2831 3188 3144 
Q 3188 3456 2997 3625 
Q 2806 3794 2456 3794 
L 1791 3794 
z
" transform="scale(0.015625)"/>
       <path id="DejaVuSans-Bold-65" d="M 4031 1759 
L 4031 1441 
L 1416 1441 
Q 1456 1047 1700 850 
Q 1944 653 2381 653 
Q 2734 653 3104 758 
Q 3475 863 3866 1075 
L 3866 213 
Q 3469 63 3072 -14 
Q 2675 -91 2278 -91 
Q 1328 -91 801 392 
Q 275 875 275 1747 
Q 275 2603 792 3093 
Q 1309 3584 2216 3584 
Q 3041 3584 3536 3087 
Q 4031 2591 4031 1759 
z
M 2881 2131 
Q 2881 2450 2695 2645 
Q 2509 2841 2209 2841 
Q 1884 2841 1681 2658 
Q 1478 2475 1428 2131 
L 2881 2131 
z
" transform="scale(0.015625)"/>
       <path id="DejaVuSans-Bold-72" d="M 3138 2547 
Q 2991 2616 2845 2648 
Q 2700 2681 2553 2681 
Q 2122 2681 1889 2404 
Q 1656 2128 1656 1613 
L 1656 0 
L 538 0 
L 538 3500 
L 1656 3500 
L 1656 2925 
Q 1872 3269 2151 3426 
Q 2431 3584 2822 3584 
Q 2878 3584 2943 3579 
Q 3009 3575 3134 3559 
L 3138 2547 
z
" transform="scale(0.015625)"/>
       <path id="DejaVuSans-Bold-63" d="M 3366 3391 
L 3366 2478 
Q 3138 2634 2908 2709 
Q 2678 2784 2431 2784 
Q 1963 2784 1702 2511 
Q 1441 2238 1441 1747 
Q 1441 1256 1702 982 
Q 1963 709 2431 709 
Q 2694 709 2930 787 
Q 3166 866 3366 1019 
L 3366 103 
Q 3103 6 2833 -42 
Q 2563 -91 2291 -91 
Q 1344 -91 809 395 
Q 275 881 275 1747 
Q 275 2613 809 3098 
Q 1344 3584 2291 3584 
Q 2566 3584 2833 3536 
Q 3100 3488 3366 3391 
z
" transform="scale(0.015625)"/>
       <path id="DejaVuSans-Bold-6e" d="M 4056 2131 
L 4056 0 
L 2931 0 
L 2931 347 
L 2931 1631 
Q 2931 2084 2911 2256 
Q 2891 2428 2841 2509 
Q 2775 2619 2662 2680 
Q 2550 2741 2406 2741 
Q 2056 2741 1856 2470 
Q 1656 2200 1656 1722 
L 1656 0 
L 538 0 
L 538 3500 
L 1656 3500 
L 1656 2988 
Q 1909 3294 2193 3439 
Q 2478 3584 2822 3584 
Q 3428 3584 3742 3212 
Q 4056 2841 4056 2131 
z
" transform="scale(0.015625)"/>
       <path id="DejaVuSans-Bold-74" d="M 1759 4494 
L 1759 3500 
L 2913 3500 
L 2913 2700 
L 1759 2700 
L 1759 1216 
Q 1759 972 1856 886 
Q 1953 800 2241 800 
L 2816 800 
L 2816 0 
L 1856 0 
Q 1194 0 917 276 
Q 641 553 641 1216 
L 641 2700 
L 84 2700 
L 84 3500 
L 641 3500 
L 641 4494 
L 1759 4494 
z
" transform="scale(0.015625)"/>
       <path id="DejaVuSans-Bold-61" d="M 2106 1575 
Q 1756 1575 1579 1456 
Q 1403 1338 1403 1106 
Q 1403 894 1545 773 
Q 1688 653 1941 653 
Q 2256 653 2472 879 
Q 2688 1106 2688 1447 
L 2688 1575 
L 2106 1575 
z
M 3816 1997 
L 3816 0 
L 2688 0 
L 2688 519 
Q 2463 200 2181 54 
Q 1900 -91 1497 -91 
Q 953 -91 614 226 
Q 275 544 275 1050 
Q 275 1666 698 1953 
Q 1122 2241 2028 2241 
L 2688 2241 
L 2688 2328 
Q 2688 2594 2478 2717 
Q 2269 2841 1825 2841 
Q 1466 2841 1156 2769 
Q 847 2697 581 2553 
L 581 3406 
Q 941 3494 1303 3539 
Q 1666 3584 2028 3584 
Q 2975 3584 3395 3211 
Q 3816 2838 3816 1997 
z
" transform="scale(0.015625)"/>
       <path id="DejaVuSans-Bold-67" d="M 2919 594 
Q 2688 288 2409 144 
Q 2131 0 1766 0 
Q 1125 0 706 504 
Q 288 1009 288 1791 
Q 288 2575 706 3076 
Q 1125 3578 1766 3578 
Q 2131 3578 2409 3434 
Q 2688 3291 2919 2981 
L 2919 3500 
L 4044 3500 
L 4044 353 
Q 4044 -491 3511 -936 
Q 2978 -1381 1966 -1381 
Q 1638 -1381 1331 -1331 
Q 1025 -1281 716 -1178 
L 716 -306 
Q 1009 -475 1290 -558 
Q 1572 -641 1856 -641 
Q 2406 -641 2662 -400 
Q 2919 -159 2919 353 
L 2919 594 
z
M 2181 2772 
Q 1834 2772 1640 2515 
Q 1447 2259 1447 1791 
Q 1447 1309 1634 1061 
Q 1822 813 2181 813 
Q 2531 813 2725 1069 
Q 2919 1325 2919 1791 
Q 2919 2259 2725 2515 
Q 2531 2772 2181 2772 
z
" transform="scale(0.015625)"/>
       <path id="DejaVuSans-Bold-20" transform="scale(0.015625)"/>
       <path id="DejaVuSans-Bold-6f" d="M 2203 2784 
Q 1831 2784 1636 2517 
Q 1441 2250 1441 1747 
Q 1441 1244 1636 976 
Q 1831 709 2203 709 
Q 2569 709 2762 976 
Q 2956 1244 2956 1747 
Q 2956 2250 2762 2517 
Q 2569 2784 2203 2784 
z
M 2203 3584 
Q 3106 3584 3614 3096 
Q 4122 2609 4122 1747 
Q 4122 884 3614 396 
Q 3106 -91 2203 -91 
Q 1297 -91 786 396 
Q 275 884 275 1747 
Q 275 2609 786 3096 
Q 1297 3584 2203 3584 
z
" transform="scale(0.015625)"/>
       <path id="DejaVuSans-Bold-66" d="M 2841 4863 
L 2841 4128 
L 2222 4128 
Q 1984 4128 1890 4042 
Q 1797 3956 1797 3744 
L 1797 3500 
L 2753 3500 
L 2753 2700 
L 1797 2700 
L 1797 0 
L 678 0 
L 678 2700 
L 122 2700 
L 122 3500 
L 678 3500 
L 678 3744 
Q 678 4316 997 4589 
Q 1316 4863 1984 4863 
L 2841 4863 
z
" transform="scale(0.015625)"/>
       <path id="DejaVuSans-Bold-64" d="M 2919 2988 
L 2919 4863 
L 4044 4863 
L 4044 0 
L 2919 0 
L 2919 506 
Q 2688 197 2409 53 
Q 2131 -91 1766 -91 
Q 1119 -91 703 423 
Q 288 938 288 1747 
Q 288 2556 703 3070 
Q 1119 3584 1766 3584 
Q 2128 3584 2408 3439 
Q 2688 3294 2919 2988 
z
M 2181 722 
Q 2541 722 2730 984 
Q 2919 1247 2919 1747 
Q 2919 2247 2730 2509 
Q 2541 2772 2181 2772 
Q 1825 2772 1636 2509 
Q 1447 2247 1447 1747 
Q 1447 1247 1636 984 
Q 1825 722 2181 722 
z
" transform="scale(0.015625)"/>
       <path id="DejaVuSans-Bold-75" d="M 500 1363 
L 500 3500 
L 1625 3500 
L 1625 3150 
Q 1625 2866 1622 2436 
Q 1619 2006 1619 1863 
Q 1619 1441 1641 1255 
Q 1663 1069 1716 984 
Q 1784 875 1895 815 
Q 2006 756 2150 756 
Q 2500 756 2700 1025 
Q 2900 1294 2900 1772 
L 2900 3500 
L 4019 3500 
L 4019 0 
L 2900 0 
L 2900 506 
Q 2647 200 2364 54 
Q 2081 -91 1741 -91 
Q 1134 -91 817 281 
Q 500 653 500 1363 
z
" transform="scale(0.015625)"/>
       <path id="DejaVuSans-Bold-73" d="M 3272 3391 
L 3272 2541 
Q 2913 2691 2578 2766 
Q 2244 2841 1947 2841 
Q 1628 2841 1473 2761 
Q 1319 2681 1319 2516 
Q 1319 2381 1436 2309 
Q 1553 2238 1856 2203 
L 2053 2175 
Q 2913 2066 3209 1816 
Q 3506 1566 3506 1031 
Q 3506 472 3093 190 
Q 2681 -91 1863 -91 
Q 1516 -91 1145 -36 
Q 775 19 384 128 
L 384 978 
Q 719 816 1070 734 
Q 1422 653 1784 653 
Q 2113 653 2278 743 
Q 2444 834 2444 1013 
Q 2444 1163 2330 1236 
Q 2216 1309 1875 1350 
L 1678 1375 
Q 931 1469 631 1722 
Q 331 1975 331 2491 
Q 331 3047 712 3315 
Q 1094 3584 1881 3584 
Q 2191 3584 2531 3537 
Q 2872 3491 3272 3391 
z
" transform="scale(0.015625)"/>
       <path id="DejaVuSans-Bold-69" d="M 538 3500 
L 1656 3500 
L 1656 0 
L 538 0 
L 538 3500 
z
M 538 4863 
L 1656 4863 
L 1656 3950 
L 538 3950 
L 538 4863 
z
" transform="scale(0.015625)"/>
      </defs>
      <use xlink:href="#DejaVuSans-Bold-50"/>
      <use xlink:href="#DejaVuSans-Bold-65" x="73.291016"/>
      <use xlink:href="#DejaVuSans-Bold-72" x="141.113281"/>
      <use xlink:href="#DejaVuSans-Bold-63" x="190.429688"/>
      <use xlink:href="#DejaVuSans-Bold-65" x="249.707031"/>
      <use xlink:href="#DejaVuSans-Bold-6e" x="317.529297"/>
      <use xlink:href="#DejaVuSans-Bold-74" x="388.720703"/>
      <use xlink:href="#DejaVuSans-Bold-61" x="436.523438"/>
      <use xlink:href="#DejaVuSans-Bold-67" x="504.003906"/>
      <use xlink:href="#DejaVuSans-Bold-65" x="575.585938"/>
      <use xlink:href="#DejaVuSans-Bold-20" x="643.408203"/>
      <use xlink:href="#DejaVuSans-Bold-6f" x="678.222656"/>
      <use xlink:href="#DejaVuSans-Bold-66" x="746.923828"/>
      <use xlink:href="#DejaVuSans-Bold-20" x="790.429688"/>
      <use xlink:href="#DejaVuSans-Bold-64" x="825.244141"/>
      <use xlink:href="#DejaVuSans-Bold-61" x="896.826172"/>
      <use xlink:href="#DejaVuSans-Bold-74" x="964.306641"/>
      <use xlink:href="#DejaVuSans-Bold-61" x="1012.109375"/>
      <use xlink:href="#DejaVuSans-Bold-20" x="1079.589844"/>
      <use xlink:href="#DejaVuSans-Bold-75" x="1114.404297"/>
      <use xlink:href="#DejaVuSans-Bold-73" x="1185.595703"/>
      <use xlink:href="#DejaVuSans-Bold-65" x="1245.117188"/>
      <use xlink:href="#DejaVuSans-Bold-64" x="1312.939453"/>
      <use xlink:href="#DejaVuSans-Bold-20" x="1384.521484"/>
      <use xlink:href="#DejaVuSans-Bold-66" x="1419.335938"/>
      <use xlink:href="#DejaVuSans-Bold-6f" x="1462.841797"/>
      <use xlink:href="#DejaVuSans-Bold-72" x="1531.542969"/>
      <use xlink:href="#DejaVuSans-Bold-20" x="1580.859375"/>
      <use xlink:href="#DejaVuSans-Bold-74" x="1615.673828"/>
      <use xlink:href="#DejaVuSans-Bold-72" x="1663.476562"/>
      <use xlink:href="#DejaVuSans-Bold-61" x="1712.792969"/>
      <use xlink:href="#DejaVuSans-Bold-69" x="1780.273438"/>
      <use xlink:href="#DejaVuSans-Bold-6e" x="1814.550781"/>
      <use xlink:href="#DejaVuSans-Bold-69" x="1885.742188"/>
      <use xlink:href="#DejaVuSans-Bold-6e" x="1920.019531"/>
      <use xlink:href="#DejaVuSans-Bold-67" x="1991.210938"/>
     </g>
    </g>
   </g>
   <g id="matplotlib.axis_2">
    <g id="ytick_1">
     <g id="line2d_10">
      <path d="M 555.2 842.756841 
L 1671.2 842.756841 
" clip-path="url(#p903ffafd4a)" style="fill: none; stroke: #b0b0b0; stroke-width: 4; stroke-linecap: square"/>
     </g>
     <g id="line2d_11">
      <defs>
       <path id="m426e5952ab" d="M 0 0 
L -3.5 0 
" style="stroke: #000000; stroke-width: 0.8"/>
      </defs>
      <g>
       <use xlink:href="#m426e5952ab" x="555.2" y="842.756841" style="stroke: #000000; stroke-width: 0.8"/>
      </g>
     </g>
     <g id="text_11">
      <!-- 0.1 -->
      <g transform="translate(512.771875 850.355278) scale(0.2 -0.2)">
       <defs>
        <path id="DejaVuSans-Bold-2e" d="M 653 1209 
L 1778 1209 
L 1778 0 
L 653 0 
L 653 1209 
z
" transform="scale(0.015625)"/>
       </defs>
       <use xlink:href="#DejaVuSans-Bold-30"/>
       <use xlink:href="#DejaVuSans-Bold-2e" x="69.580078"/>
       <use xlink:href="#DejaVuSans-Bold-31" x="107.568359"/>
      </g>
     </g>
    </g>
    <g id="ytick_2">
     <g id="line2d_12">
      <path d="M 555.2 714.297333 
L 1671.2 714.297333 
" clip-path="url(#p903ffafd4a)" style="fill: none; stroke: #b0b0b0; stroke-width: 4; stroke-linecap: square"/>
     </g>
     <g id="line2d_13">
      <g>
       <use xlink:href="#m426e5952ab" x="555.2" y="714.297333" style="stroke: #000000; stroke-width: 0.8"/>
      </g>
     </g>
     <g id="text_12">
      <!-- 0.2 -->
      <g transform="translate(512.771875 721.895771) scale(0.2 -0.2)">
       <use xlink:href="#DejaVuSans-Bold-30"/>
       <use xlink:href="#DejaVuSans-Bold-2e" x="69.580078"/>
       <use xlink:href="#DejaVuSans-Bold-32" x="107.568359"/>
      </g>
     </g>
    </g>
    <g id="ytick_3">
     <g id="line2d_14">
      <path d="M 555.2 585.837825 
L 1671.2 585.837825 
" clip-path="url(#p903ffafd4a)" style="fill: none; stroke: #b0b0b0; stroke-width: 4; stroke-linecap: square"/>
     </g>
     <g id="line2d_15">
      <g>
       <use xlink:href="#m426e5952ab" x="555.2" y="585.837825" style="stroke: #000000; stroke-width: 0.8"/>
      </g>
     </g>
     <g id="text_13">
      <!-- 0.3 -->
      <g transform="translate(512.771875 593.436263) scale(0.2 -0.2)">
       <use xlink:href="#DejaVuSans-Bold-30"/>
       <use xlink:href="#DejaVuSans-Bold-2e" x="69.580078"/>
       <use xlink:href="#DejaVuSans-Bold-33" x="107.568359"/>
      </g>
     </g>
    </g>
    <g id="ytick_4">
     <g id="line2d_16">
      <path d="M 555.2 457.378318 
L 1671.2 457.378318 
" clip-path="url(#p903ffafd4a)" style="fill: none; stroke: #b0b0b0; stroke-width: 4; stroke-linecap: square"/>
     </g>
     <g id="line2d_17">
      <g>
       <use xlink:href="#m426e5952ab" x="555.2" y="457.378318" style="stroke: #000000; stroke-width: 0.8"/>
      </g>
     </g>
     <g id="text_14">
      <!-- 0.4 -->
      <g transform="translate(512.771875 464.976755) scale(0.2 -0.2)">
       <use xlink:href="#DejaVuSans-Bold-30"/>
       <use xlink:href="#DejaVuSans-Bold-2e" x="69.580078"/>
       <use xlink:href="#DejaVuSans-Bold-34" x="107.568359"/>
      </g>
     </g>
    </g>
    <g id="ytick_5">
     <g id="line2d_18">
      <path d="M 555.2 328.91881 
L 1671.2 328.91881 
" clip-path="url(#p903ffafd4a)" style="fill: none; stroke: #b0b0b0; stroke-width: 4; stroke-linecap: square"/>
     </g>
     <g id="line2d_19">
      <g>
       <use xlink:href="#m426e5952ab" x="555.2" y="328.91881" style="stroke: #000000; stroke-width: 0.8"/>
      </g>
     </g>
     <g id="text_15">
      <!-- 0.5 -->
      <g transform="translate(512.771875 336.517247) scale(0.2 -0.2)">
       <use xlink:href="#DejaVuSans-Bold-30"/>
       <use xlink:href="#DejaVuSans-Bold-2e" x="69.580078"/>
       <use xlink:href="#DejaVuSans-Bold-35" x="107.568359"/>
      </g>
     </g>
    </g>
    <g id="ytick_6">
     <g id="line2d_20">
      <path d="M 555.2 200.459302 
L 1671.2 200.459302 
" clip-path="url(#p903ffafd4a)" style="fill: none; stroke: #b0b0b0; stroke-width: 4; stroke-linecap: square"/>
     </g>
     <g id="line2d_21">
      <g>
       <use xlink:href="#m426e5952ab" x="555.2" y="200.459302" style="stroke: #000000; stroke-width: 0.8"/>
      </g>
     </g>
     <g id="text_16">
      <!-- 0.6 -->
      <g transform="translate(512.771875 208.05774) scale(0.2 -0.2)">
       <use xlink:href="#DejaVuSans-Bold-30"/>
       <use xlink:href="#DejaVuSans-Bold-2e" x="69.580078"/>
       <use xlink:href="#DejaVuSans-Bold-36" x="107.568359"/>
      </g>
     </g>
    </g>
    <g id="ytick_7">
     <g id="line2d_22">
      <path d="M 555.2 71.999794 
L 1671.2 71.999794 
" clip-path="url(#p903ffafd4a)" style="fill: none; stroke: #b0b0b0; stroke-width: 4; stroke-linecap: square"/>
     </g>
     <g id="line2d_23">
      <g>
       <use xlink:href="#m426e5952ab" x="555.2" y="71.999794" style="stroke: #000000; stroke-width: 0.8"/>
      </g>
     </g>
     <g id="text_17">
      <!-- 0.7 -->
      <g transform="translate(512.771875 79.598232) scale(0.2 -0.2)">
       <use xlink:href="#DejaVuSans-Bold-30"/>
       <use xlink:href="#DejaVuSans-Bold-2e" x="69.580078"/>
       <use xlink:href="#DejaVuSans-Bold-37" x="107.568359"/>
      </g>
     </g>
    </g>
    <g id="text_18">
     <!-- Accuracy (%) -->
     <g transform="translate(502.298437 567.097656) rotate(-90) scale(0.3 -0.3)">
      <defs>
       <path id="DejaVuSans-Bold-41" d="M 3419 850 
L 1538 850 
L 1241 0 
L 31 0 
L 1759 4666 
L 3194 4666 
L 4922 0 
L 3713 0 
L 3419 850 
z
M 1838 1716 
L 3116 1716 
L 2478 3572 
L 1838 1716 
z
" transform="scale(0.015625)"/>
       <path id="DejaVuSans-Bold-79" d="M 78 3500 
L 1197 3500 
L 2138 1125 
L 2938 3500 
L 4056 3500 
L 2584 -331 
Q 2363 -916 2067 -1148 
Q 1772 -1381 1288 -1381 
L 641 -1381 
L 641 -647 
L 991 -647 
Q 1275 -647 1404 -556 
Q 1534 -466 1606 -231 
L 1638 -134 
L 78 3500 
z
" transform="scale(0.015625)"/>
       <path id="DejaVuSans-Bold-28" d="M 2413 -844 
L 1484 -844 
Q 1006 -72 778 623 
Q 550 1319 550 2003 
Q 550 2688 779 3389 
Q 1009 4091 1484 4856 
L 2413 4856 
Q 2013 4116 1813 3408 
Q 1613 2700 1613 2009 
Q 1613 1319 1811 609 
Q 2009 -100 2413 -844 
z
" transform="scale(0.015625)"/>
       <path id="DejaVuSans-Bold-29" d="M 513 -844 
Q 913 -100 1113 609 
Q 1313 1319 1313 2009 
Q 1313 2700 1113 3408 
Q 913 4116 513 4856 
L 1441 4856 
Q 1916 4091 2145 3389 
Q 2375 2688 2375 2003 
Q 2375 1319 2147 623 
Q 1919 -72 1441 -844 
L 513 -844 
z
" transform="scale(0.015625)"/>
      </defs>
      <use xlink:href="#DejaVuSans-Bold-41"/>
      <use xlink:href="#DejaVuSans-Bold-63" x="77.392578"/>
      <use xlink:href="#DejaVuSans-Bold-63" x="136.669922"/>
      <use xlink:href="#DejaVuSans-Bold-75" x="195.947266"/>
      <use xlink:href="#DejaVuSans-Bold-72" x="267.138672"/>
      <use xlink:href="#DejaVuSans-Bold-61" x="316.455078"/>
      <use xlink:href="#DejaVuSans-Bold-63" x="383.935547"/>
      <use xlink:href="#DejaVuSans-Bold-79" x="443.212891"/>
      <use xlink:href="#DejaVuSans-Bold-20" x="508.398438"/>
      <use xlink:href="#DejaVuSans-Bold-28" x="543.212891"/>
      <use xlink:href="#DejaVuSans-Bold-25" x="588.916016"/>
      <use xlink:href="#DejaVuSans-Bold-29" x="689.111328"/>
     </g>
    </g>
   </g>
   <g id="line2d_24">
    <path d="M 605.927273 454.906171 
L 732.745455 447.870572 
L 859.563636 435.066919 
L 986.381818 454.525682 
L 1113.2 420.431692 
L 1240.018182 425.490657 
L 1366.836364 413.253927 
L 1493.654545 379.623906 
L 1620.472727 342.539222 
" clip-path="url(#p903ffafd4a)" style="fill: none; stroke: #1f77b4; stroke-width: 6; stroke-linecap: square"/>
    <defs>
     <path id="mc7a8bfbfd1" d="M -7.5 7.5 
L 7.5 7.5 
L 7.5 -7.5 
L -7.5 -7.5 
z
" style="stroke: #1f77b4; stroke-linejoin: miter"/>
    </defs>
    <g clip-path="url(#p903ffafd4a)">
     <use xlink:href="#mc7a8bfbfd1" x="605.927273" y="454.906171" style="fill: #1f77b4; stroke: #1f77b4; stroke-linejoin: miter"/>
     <use xlink:href="#mc7a8bfbfd1" x="732.745455" y="447.870572" style="fill: #1f77b4; stroke: #1f77b4; stroke-linejoin: miter"/>
     <use xlink:href="#mc7a8bfbfd1" x="859.563636" y="435.066919" style="fill: #1f77b4; stroke: #1f77b4; stroke-linejoin: miter"/>
     <use xlink:href="#mc7a8bfbfd1" x="986.381818" y="454.525682" style="fill: #1f77b4; stroke: #1f77b4; stroke-linejoin: miter"/>
     <use xlink:href="#mc7a8bfbfd1" x="1113.2" y="420.431692" style="fill: #1f77b4; stroke: #1f77b4; stroke-linejoin: miter"/>
     <use xlink:href="#mc7a8bfbfd1" x="1240.018182" y="425.490657" style="fill: #1f77b4; stroke: #1f77b4; stroke-linejoin: miter"/>
     <use xlink:href="#mc7a8bfbfd1" x="1366.836364" y="413.253927" style="fill: #1f77b4; stroke: #1f77b4; stroke-linejoin: miter"/>
     <use xlink:href="#mc7a8bfbfd1" x="1493.654545" y="379.623906" style="fill: #1f77b4; stroke: #1f77b4; stroke-linejoin: miter"/>
     <use xlink:href="#mc7a8bfbfd1" x="1620.472727" y="342.539222" style="fill: #1f77b4; stroke: #1f77b4; stroke-linejoin: miter"/>
    </g>
   </g>
   <g id="line2d_25">
    <path d="M 605.927273 318.772664 
L 732.745455 279.339448 
L 859.563636 261.904965 
L 986.381818 239.625969 
L 1113.2 234.731292 
L 1240.018182 209.99484 
L 1366.836364 201.520225 
L 1493.654545 164.23936 
L 1620.472727 114.41482 
" clip-path="url(#p903ffafd4a)" style="fill: none; stroke: #ff7f0e; stroke-width: 6; stroke-linecap: square"/>
    <defs>
     <path id="mffab16d0bf" d="M 0 7.5 
C 1.989023 7.5 3.896849 6.709753 5.303301 5.303301 
C 6.709753 3.896849 7.5 1.989023 7.5 0 
C 7.5 -1.989023 6.709753 -3.896849 5.303301 -5.303301 
C 3.896849 -6.709753 1.989023 -7.5 0 -7.5 
C -1.989023 -7.5 -3.896849 -6.709753 -5.303301 -5.303301 
C -6.709753 -3.896849 -7.5 -1.989023 -7.5 0 
C -7.5 1.989023 -6.709753 3.896849 -5.303301 5.303301 
C -3.896849 6.709753 -1.989023 7.5 0 7.5 
z
" style="stroke: #ff7f0e"/>
    </defs>
    <g clip-path="url(#p903ffafd4a)">
     <use xlink:href="#mffab16d0bf" x="605.927273" y="318.772664" style="fill: #ff7f0e; stroke: #ff7f0e"/>
     <use xlink:href="#mffab16d0bf" x="732.745455" y="279.339448" style="fill: #ff7f0e; stroke: #ff7f0e"/>
     <use xlink:href="#mffab16d0bf" x="859.563636" y="261.904965" style="fill: #ff7f0e; stroke: #ff7f0e"/>
     <use xlink:href="#mffab16d0bf" x="986.381818" y="239.625969" style="fill: #ff7f0e; stroke: #ff7f0e"/>
     <use xlink:href="#mffab16d0bf" x="1113.2" y="234.731292" style="fill: #ff7f0e; stroke: #ff7f0e"/>
     <use xlink:href="#mffab16d0bf" x="1240.018182" y="209.99484" style="fill: #ff7f0e; stroke: #ff7f0e"/>
     <use xlink:href="#mffab16d0bf" x="1366.836364" y="201.520225" style="fill: #ff7f0e; stroke: #ff7f0e"/>
     <use xlink:href="#mffab16d0bf" x="1493.654545" y="164.23936" style="fill: #ff7f0e; stroke: #ff7f0e"/>
     <use xlink:href="#mffab16d0bf" x="1620.472727" y="114.41482" style="fill: #ff7f0e; stroke: #ff7f0e"/>
    </g>
   </g>
   <g id="line2d_26">
    <path d="M 605.927273 834.873438 
L 732.745455 833.36339 
L 859.563636 833.01831 
L 986.381818 833.570035 
L 1113.2 832.538294 
L 1240.018182 831.802041 
L 1366.836364 830.043959 
L 1493.654545 827.160575 
L 1620.472727 821.921294 
" clip-path="url(#p903ffafd4a)" style="fill: none; stroke: #2ca02c; stroke-width: 6; stroke-linecap: square"/>
    <defs>
     <path id="m2224934d7d" d="M -7.5 0 
L 7.5 0 
M 0 7.5 
L 0 -7.5 
" style="stroke: #2ca02c"/>
    </defs>
    <g clip-path="url(#p903ffafd4a)">
     <use xlink:href="#m2224934d7d" x="605.927273" y="834.873438" style="fill: #2ca02c; stroke: #2ca02c"/>
     <use xlink:href="#m2224934d7d" x="732.745455" y="833.36339" style="fill: #2ca02c; stroke: #2ca02c"/>
     <use xlink:href="#m2224934d7d" x="859.563636" y="833.01831" style="fill: #2ca02c; stroke: #2ca02c"/>
     <use xlink:href="#m2224934d7d" x="986.381818" y="833.570035" style="fill: #2ca02c; stroke: #2ca02c"/>
     <use xlink:href="#m2224934d7d" x="1113.2" y="832.538294" style="fill: #2ca02c; stroke: #2ca02c"/>
     <use xlink:href="#m2224934d7d" x="1240.018182" y="831.802041" style="fill: #2ca02c; stroke: #2ca02c"/>
     <use xlink:href="#m2224934d7d" x="1366.836364" y="830.043959" style="fill: #2ca02c; stroke: #2ca02c"/>
     <use xlink:href="#m2224934d7d" x="1493.654545" y="827.160575" style="fill: #2ca02c; stroke: #2ca02c"/>
     <use xlink:href="#m2224934d7d" x="1620.472727" y="821.921294" style="fill: #2ca02c; stroke: #2ca02c"/>
    </g>
   </g>
   <g id="line2d_27">
    <path d="M 605.927273 618.061846 
L 732.745455 598.131491 
L 859.563636 557.265856 
L 986.381818 591.302721 
L 1113.2 561.091212 
L 1240.018182 547.671979 
L 1366.836364 536.248962 
L 1493.654545 555.918505 
L 1620.472727 505.088541 
" clip-path="url(#p903ffafd4a)" style="fill: none; stroke: #d62728; stroke-width: 6; stroke-linecap: square"/>
    <defs>
     <path id="m1dcae76ac7" d="M -3.75 -6.495191 
L -7.5 -0 
L -3.75 6.495191 
L 3.75 6.495191 
L 7.5 0 
L 3.75 -6.495191 
z
" style="stroke: #d62728; stroke-linejoin: miter"/>
    </defs>
    <g clip-path="url(#p903ffafd4a)">
     <use xlink:href="#m1dcae76ac7" x="605.927273" y="618.061846" style="fill: #d62728; stroke: #d62728; stroke-linejoin: miter"/>
     <use xlink:href="#m1dcae76ac7" x="732.745455" y="598.131491" style="fill: #d62728; stroke: #d62728; stroke-linejoin: miter"/>
     <use xlink:href="#m1dcae76ac7" x="859.563636" y="557.265856" style="fill: #d62728; stroke: #d62728; stroke-linejoin: miter"/>
     <use xlink:href="#m1dcae76ac7" x="986.381818" y="591.302721" style="fill: #d62728; stroke: #d62728; stroke-linejoin: miter"/>
     <use xlink:href="#m1dcae76ac7" x="1113.2" y="561.091212" style="fill: #d62728; stroke: #d62728; stroke-linejoin: miter"/>
     <use xlink:href="#m1dcae76ac7" x="1240.018182" y="547.671979" style="fill: #d62728; stroke: #d62728; stroke-linejoin: miter"/>
     <use xlink:href="#m1dcae76ac7" x="1366.836364" y="536.248962" style="fill: #d62728; stroke: #d62728; stroke-linejoin: miter"/>
     <use xlink:href="#m1dcae76ac7" x="1493.654545" y="555.918505" style="fill: #d62728; stroke: #d62728; stroke-linejoin: miter"/>
     <use xlink:href="#m1dcae76ac7" x="1620.472727" y="505.088541" style="fill: #d62728; stroke: #d62728; stroke-linejoin: miter"/>
    </g>
   </g>
   <g id="line2d_28">
    <path d="M 605.927273 344.597555 
L 732.745455 345.695517 
L 859.563636 343.69744 
L 986.381818 354.869396 
L 1113.2 350.099575 
L 1240.018182 342.838623 
L 1366.836364 348.435439 
L 1493.654545 334.346522 
L 1620.472727 318.468285 
" clip-path="url(#p903ffafd4a)" style="fill: none; stroke: #9467bd; stroke-width: 6; stroke-linecap: square"/>
    <defs>
     <path id="m4bcfa077b0" d="M 0 -7.5 
L -1.683855 -2.317627 
L -7.132924 -2.317627 
L -2.724534 0.885255 
L -4.408389 6.067627 
L -0 2.864745 
L 4.408389 6.067627 
L 2.724534 0.885255 
L 7.132924 -2.317627 
L 1.683855 -2.317627 
z
" style="stroke: #9467bd; stroke-linejoin: bevel"/>
    </defs>
    <g clip-path="url(#p903ffafd4a)">
     <use xlink:href="#m4bcfa077b0" x="605.927273" y="344.597555" style="fill: #9467bd; stroke: #9467bd; stroke-linejoin: bevel"/>
     <use xlink:href="#m4bcfa077b0" x="732.745455" y="345.695517" style="fill: #9467bd; stroke: #9467bd; stroke-linejoin: bevel"/>
     <use xlink:href="#m4bcfa077b0" x="859.563636" y="343.69744" style="fill: #9467bd; stroke: #9467bd; stroke-linejoin: bevel"/>
     <use xlink:href="#m4bcfa077b0" x="986.381818" y="354.869396" style="fill: #9467bd; stroke: #9467bd; stroke-linejoin: bevel"/>
     <use xlink:href="#m4bcfa077b0" x="1113.2" y="350.099575" style="fill: #9467bd; stroke: #9467bd; stroke-linejoin: bevel"/>
     <use xlink:href="#m4bcfa077b0" x="1240.018182" y="342.838623" style="fill: #9467bd; stroke: #9467bd; stroke-linejoin: bevel"/>
     <use xlink:href="#m4bcfa077b0" x="1366.836364" y="348.435439" style="fill: #9467bd; stroke: #9467bd; stroke-linejoin: bevel"/>
     <use xlink:href="#m4bcfa077b0" x="1493.654545" y="334.346522" style="fill: #9467bd; stroke: #9467bd; stroke-linejoin: bevel"/>
     <use xlink:href="#m4bcfa077b0" x="1620.472727" y="318.468285" style="fill: #9467bd; stroke: #9467bd; stroke-linejoin: bevel"/>
    </g>
   </g>
   <g id="line2d_29">
    <path d="M 605.927273 651.574784 
L 732.745455 649.295877 
L 859.563636 652.045523 
L 986.381818 650.845881 
L 1113.2 647.497149 
L 1240.018182 651.662514 
L 1366.836364 646.937669 
L 1493.654545 651.187557 
L 1620.472727 637.857589 
" clip-path="url(#p903ffafd4a)" style="fill: none; stroke: #8c564b; stroke-width: 6; stroke-linecap: square"/>
    <defs>
     <path id="m1d88076493" d="M -0 10.606602 
L 10.606602 0 
L 0 -10.606602 
L -10.606602 -0 
z
" style="stroke: #8c564b; stroke-linejoin: miter"/>
    </defs>
    <g clip-path="url(#p903ffafd4a)">
     <use xlink:href="#m1d88076493" x="605.927273" y="651.574784" style="fill: #8c564b; stroke: #8c564b; stroke-linejoin: miter"/>
     <use xlink:href="#m1d88076493" x="732.745455" y="649.295877" style="fill: #8c564b; stroke: #8c564b; stroke-linejoin: miter"/>
     <use xlink:href="#m1d88076493" x="859.563636" y="652.045523" style="fill: #8c564b; stroke: #8c564b; stroke-linejoin: miter"/>
     <use xlink:href="#m1d88076493" x="986.381818" y="650.845881" style="fill: #8c564b; stroke: #8c564b; stroke-linejoin: miter"/>
     <use xlink:href="#m1d88076493" x="1113.2" y="647.497149" style="fill: #8c564b; stroke: #8c564b; stroke-linejoin: miter"/>
     <use xlink:href="#m1d88076493" x="1240.018182" y="651.662514" style="fill: #8c564b; stroke: #8c564b; stroke-linejoin: miter"/>
     <use xlink:href="#m1d88076493" x="1366.836364" y="646.937669" style="fill: #8c564b; stroke: #8c564b; stroke-linejoin: miter"/>
     <use xlink:href="#m1d88076493" x="1493.654545" y="651.187557" style="fill: #8c564b; stroke: #8c564b; stroke-linejoin: miter"/>
     <use xlink:href="#m1d88076493" x="1620.472727" y="637.857589" style="fill: #8c564b; stroke: #8c564b; stroke-linejoin: miter"/>
    </g>
   </g>
   <g id="line2d_30">
    <path d="M 605.927273 648.873131 
L 732.745455 656.363057 
L 859.563636 654.809206 
L 986.381818 651.790382 
L 1113.2 644.667422 
L 1240.018182 659.440987 
L 1366.836364 645.664304 
L 1493.654545 660.0574 
L 1620.472727 622.985603 
" clip-path="url(#p903ffafd4a)" style="fill: none; stroke: #e377c2; stroke-width: 6; stroke-linecap: square"/>
    <defs>
     <path id="md59b63c647" d="M 0 -7.5 
L -7.5 7.5 
L 7.5 7.5 
z
" style="stroke: #e377c2; stroke-linejoin: miter"/>
    </defs>
    <g clip-path="url(#p903ffafd4a)">
     <use xlink:href="#md59b63c647" x="605.927273" y="648.873131" style="fill: #e377c2; stroke: #e377c2; stroke-linejoin: miter"/>
     <use xlink:href="#md59b63c647" x="732.745455" y="656.363057" style="fill: #e377c2; stroke: #e377c2; stroke-linejoin: miter"/>
     <use xlink:href="#md59b63c647" x="859.563636" y="654.809206" style="fill: #e377c2; stroke: #e377c2; stroke-linejoin: miter"/>
     <use xlink:href="#md59b63c647" x="986.381818" y="651.790382" style="fill: #e377c2; stroke: #e377c2; stroke-linejoin: miter"/>
     <use xlink:href="#md59b63c647" x="1113.2" y="644.667422" style="fill: #e377c2; stroke: #e377c2; stroke-linejoin: miter"/>
     <use xlink:href="#md59b63c647" x="1240.018182" y="659.440987" style="fill: #e377c2; stroke: #e377c2; stroke-linejoin: miter"/>
     <use xlink:href="#md59b63c647" x="1366.836364" y="645.664304" style="fill: #e377c2; stroke: #e377c2; stroke-linejoin: miter"/>
     <use xlink:href="#md59b63c647" x="1493.654545" y="660.0574" style="fill: #e377c2; stroke: #e377c2; stroke-linejoin: miter"/>
     <use xlink:href="#md59b63c647" x="1620.472727" y="622.985603" style="fill: #e377c2; stroke: #e377c2; stroke-linejoin: miter"/>
    </g>
   </g>
   <g id="line2d_31">
    <path d="M 605.927273 311.345069 
L 732.745455 305.410946 
L 859.563636 262.168753 
L 986.381818 274.079478 
L 1113.2 273.017594 
L 1240.018182 250.689307 
L 1366.836364 245.930106 
L 1493.654545 205.448782 
L 1620.472727 201.825743 
" clip-path="url(#p903ffafd4a)" style="fill: none; stroke: #7f7f7f; stroke-width: 6; stroke-linecap: square"/>
    <defs>
     <path id="mb5a76b53b3" d="M -7.5 7.5 
L 7.5 -7.5 
M -7.5 -7.5 
L 7.5 7.5 
" style="stroke: #7f7f7f"/>
    </defs>
    <g clip-path="url(#p903ffafd4a)">
     <use xlink:href="#mb5a76b53b3" x="605.927273" y="311.345069" style="fill: #7f7f7f; stroke: #7f7f7f"/>
     <use xlink:href="#mb5a76b53b3" x="732.745455" y="305.410946" style="fill: #7f7f7f; stroke: #7f7f7f"/>
     <use xlink:href="#mb5a76b53b3" x="859.563636" y="262.168753" style="fill: #7f7f7f; stroke: #7f7f7f"/>
     <use xlink:href="#mb5a76b53b3" x="986.381818" y="274.079478" style="fill: #7f7f7f; stroke: #7f7f7f"/>
     <use xlink:href="#mb5a76b53b3" x="1113.2" y="273.017594" style="fill: #7f7f7f; stroke: #7f7f7f"/>
     <use xlink:href="#mb5a76b53b3" x="1240.018182" y="250.689307" style="fill: #7f7f7f; stroke: #7f7f7f"/>
     <use xlink:href="#mb5a76b53b3" x="1366.836364" y="245.930106" style="fill: #7f7f7f; stroke: #7f7f7f"/>
     <use xlink:href="#mb5a76b53b3" x="1493.654545" y="205.448782" style="fill: #7f7f7f; stroke: #7f7f7f"/>
     <use xlink:href="#mb5a76b53b3" x="1620.472727" y="201.825743" style="fill: #7f7f7f; stroke: #7f7f7f"/>
    </g>
   </g>
   <g id="line2d_32">
    <path d="M 605.927273 287.96541 
L 732.745455 255.111092 
L 859.563636 229.668737 
L 986.381818 221.807042 
L 1113.2 224.075626 
L 1240.018182 192.481243 
L 1366.836364 163.5609 
L 1493.654545 140.327841 
L 1620.472727 78.873438 
" clip-path="url(#p903ffafd4a)" style="fill: none; stroke: #bcbd22; stroke-width: 6; stroke-linecap: square"/>
    <defs>
     <path id="ma180755d17" d="M 0 -7.5 
L -7.132924 -2.317627 
L -4.408389 6.067627 
L 4.408389 6.067627 
L 7.132924 -2.317627 
z
" style="stroke: #bcbd22; stroke-linejoin: miter"/>
    </defs>
    <g clip-path="url(#p903ffafd4a)">
     <use xlink:href="#ma180755d17" x="605.927273" y="287.96541" style="fill: #bcbd22; stroke: #bcbd22; stroke-linejoin: miter"/>
     <use xlink:href="#ma180755d17" x="732.745455" y="255.111092" style="fill: #bcbd22; stroke: #bcbd22; stroke-linejoin: miter"/>
     <use xlink:href="#ma180755d17" x="859.563636" y="229.668737" style="fill: #bcbd22; stroke: #bcbd22; stroke-linejoin: miter"/>
     <use xlink:href="#ma180755d17" x="986.381818" y="221.807042" style="fill: #bcbd22; stroke: #bcbd22; stroke-linejoin: miter"/>
     <use xlink:href="#ma180755d17" x="1113.2" y="224.075626" style="fill: #bcbd22; stroke: #bcbd22; stroke-linejoin: miter"/>
     <use xlink:href="#ma180755d17" x="1240.018182" y="192.481243" style="fill: #bcbd22; stroke: #bcbd22; stroke-linejoin: miter"/>
     <use xlink:href="#ma180755d17" x="1366.836364" y="163.5609" style="fill: #bcbd22; stroke: #bcbd22; stroke-linejoin: miter"/>
     <use xlink:href="#ma180755d17" x="1493.654545" y="140.327841" style="fill: #bcbd22; stroke: #bcbd22; stroke-linejoin: miter"/>
     <use xlink:href="#ma180755d17" x="1620.472727" y="78.873438" style="fill: #bcbd22; stroke: #bcbd22; stroke-linejoin: miter"/>
    </g>
   </g>
   <g id="line2d_33">
    <path d="M 605.927273 309.639221 
L 732.745455 282.550021 
L 859.563636 289.788321 
L 986.381818 287.75641 
L 1113.2 272.838077 
L 1240.018182 253.346674 
L 1366.836364 248.800923 
L 1493.654545 225.304907 
L 1620.472727 159.360174 
" clip-path="url(#p903ffafd4a)" style="fill: none; stroke: #17becf; stroke-width: 6; stroke-linecap: square"/>
    <defs>
     <path id="m8bf8e61aff" d="M 0 7.5 
L 0 -7.5 
" style="stroke: #17becf"/>
    </defs>
    <g clip-path="url(#p903ffafd4a)">
     <use xlink:href="#m8bf8e61aff" x="605.927273" y="309.639221" style="fill: #17becf; stroke: #17becf"/>
     <use xlink:href="#m8bf8e61aff" x="732.745455" y="282.550021" style="fill: #17becf; stroke: #17becf"/>
     <use xlink:href="#m8bf8e61aff" x="859.563636" y="289.788321" style="fill: #17becf; stroke: #17becf"/>
     <use xlink:href="#m8bf8e61aff" x="986.381818" y="287.75641" style="fill: #17becf; stroke: #17becf"/>
     <use xlink:href="#m8bf8e61aff" x="1113.2" y="272.838077" style="fill: #17becf; stroke: #17becf"/>
     <use xlink:href="#m8bf8e61aff" x="1240.018182" y="253.346674" style="fill: #17becf; stroke: #17becf"/>
     <use xlink:href="#m8bf8e61aff" x="1366.836364" y="248.800923" style="fill: #17becf; stroke: #17becf"/>
     <use xlink:href="#m8bf8e61aff" x="1493.654545" y="225.304907" style="fill: #17becf; stroke: #17becf"/>
     <use xlink:href="#m8bf8e61aff" x="1620.472727" y="159.360174" style="fill: #17becf; stroke: #17becf"/>
    </g>
   </g>
   <g id="patch_3">
    <path d="M 555.2 872.673438 
L 555.2 41.073438 
" style="fill: none; stroke: #000000; stroke-width: 0.8; stroke-linejoin: miter; stroke-linecap: square"/>
   </g>
   <g id="patch_4">
    <path d="M 1671.2 872.673438 
L 1671.2 41.073438 
" style="fill: none; stroke: #000000; stroke-width: 0.8; stroke-linejoin: miter; stroke-linecap: square"/>
   </g>
   <g id="patch_5">
    <path d="M 555.2 872.673438 
L 1671.2 872.673438 
" style="fill: none; stroke: #000000; stroke-width: 0.8; stroke-linejoin: miter; stroke-linecap: square"/>
   </g>
   <g id="patch_6">
    <path d="M 555.2 41.073438 
L 1671.2 41.073438 
" style="fill: none; stroke: #000000; stroke-width: 0.8; stroke-linejoin: miter; stroke-linecap: square"/>
   </g>
   <g id="text_19">
    <!-- Movies - Focused -->
    <g transform="translate(943.701562 33.794531) scale(0.35 -0.35)">
     <defs>
      <path id="DejaVuSans-Bold-4d" d="M 588 4666 
L 2119 4666 
L 3181 2169 
L 4250 4666 
L 5778 4666 
L 5778 0 
L 4641 0 
L 4641 3413 
L 3566 897 
L 2803 897 
L 1728 3413 
L 1728 0 
L 588 0 
L 588 4666 
z
" transform="scale(0.015625)"/>
      <path id="DejaVuSans-Bold-76" d="M 97 3500 
L 1216 3500 
L 2088 1081 
L 2956 3500 
L 4078 3500 
L 2700 0 
L 1472 0 
L 97 3500 
z
" transform="scale(0.015625)"/>
      <path id="DejaVuSans-Bold-2d" d="M 347 2297 
L 2309 2297 
L 2309 1388 
L 347 1388 
L 347 2297 
z
" transform="scale(0.015625)"/>
      <path id="DejaVuSans-Bold-46" d="M 588 4666 
L 3834 4666 
L 3834 3756 
L 1791 3756 
L 1791 2888 
L 3713 2888 
L 3713 1978 
L 1791 1978 
L 1791 0 
L 588 0 
L 588 4666 
z
" transform="scale(0.015625)"/>
     </defs>
     <use xlink:href="#DejaVuSans-Bold-4d"/>
     <use xlink:href="#DejaVuSans-Bold-6f" x="99.511719"/>
     <use xlink:href="#DejaVuSans-Bold-76" x="168.212891"/>
     <use xlink:href="#DejaVuSans-Bold-69" x="233.398438"/>
     <use xlink:href="#DejaVuSans-Bold-65" x="267.675781"/>
     <use xlink:href="#DejaVuSans-Bold-73" x="335.498047"/>
     <use xlink:href="#DejaVuSans-Bold-20" x="395.019531"/>
     <use xlink:href="#DejaVuSans-Bold-2d" x="429.833984"/>
     <use xlink:href="#DejaVuSans-Bold-20" x="471.337891"/>
     <use xlink:href="#DejaVuSans-Bold-46" x="506.152344"/>
     <use xlink:href="#DejaVuSans-Bold-6f" x="570.462891"/>
     <use xlink:href="#DejaVuSans-Bold-63" x="639.164062"/>
     <use xlink:href="#DejaVuSans-Bold-75" x="698.441406"/>
     <use xlink:href="#DejaVuSans-Bold-73" x="769.632812"/>
     <use xlink:href="#DejaVuSans-Bold-65" x="829.154297"/>
     <use xlink:href="#DejaVuSans-Bold-64" x="896.976562"/>
    </g>
   </g>
   <g id="legend_1">
    <g id="patch_7">
     <path d="M 13.2 1086.349688 
L 1789.59375 1086.349688 
Q 1793.59375 1086.349688 1793.59375 1082.349688 
L 1793.59375 1054.993438 
Q 1793.59375 1050.993438 1789.59375 1050.993438 
L 13.2 1050.993438 
Q 9.2 1050.993438 9.2 1054.993438 
L 9.2 1082.349688 
Q 9.2 1086.349688 13.2 1086.349688 
z
" style="fill: #4c4c4c; opacity: 0.5; stroke: #4c4c4c; stroke-width: 4; stroke-linejoin: miter"/>
    </g>
    <g id="patch_8">
     <path d="M 11.2 1084.349688 
L 1787.59375 1084.349688 
Q 1791.59375 1084.349688 1791.59375 1080.349688 
L 1791.59375 1052.993438 
Q 1791.59375 1048.993438 1787.59375 1048.993438 
L 11.2 1048.993438 
Q 7.2 1048.993438 7.2 1052.993438 
L 7.2 1080.349688 
Q 7.2 1084.349688 11.2 1084.349688 
z
" style="fill: #ffffff; stroke: #cccccc; stroke-width: 4; stroke-linejoin: miter"/>
    </g>
    <g id="line2d_34">
     <path d="M 15.2 1065.190313 
L 35.2 1065.190313 
L 55.2 1065.190313 
" style="fill: none; stroke: #1f77b4; stroke-width: 6; stroke-linecap: square"/>
     <g>
      <use xlink:href="#mc7a8bfbfd1" x="35.2" y="1065.190313" style="fill: #1f77b4; stroke: #1f77b4; stroke-linejoin: miter"/>
     </g>
    </g>
    <g id="text_20">
     <!-- Greedy -->
     <g transform="translate(71.2 1072.190313) scale(0.2 -0.2)">
      <defs>
       <path id="DejaVuSans-47" d="M 3809 666 
L 3809 1919 
L 2778 1919 
L 2778 2438 
L 4434 2438 
L 4434 434 
Q 4069 175 3628 42 
Q 3188 -91 2688 -91 
Q 1594 -91 976 548 
Q 359 1188 359 2328 
Q 359 3472 976 4111 
Q 1594 4750 2688 4750 
Q 3144 4750 3555 4637 
Q 3966 4525 4313 4306 
L 4313 3634 
Q 3963 3931 3569 4081 
Q 3175 4231 2741 4231 
Q 1884 4231 1454 3753 
Q 1025 3275 1025 2328 
Q 1025 1384 1454 906 
Q 1884 428 2741 428 
Q 3075 428 3337 486 
Q 3600 544 3809 666 
z
" transform="scale(0.015625)"/>
       <path id="DejaVuSans-72" d="M 2631 2963 
Q 2534 3019 2420 3045 
Q 2306 3072 2169 3072 
Q 1681 3072 1420 2755 
Q 1159 2438 1159 1844 
L 1159 0 
L 581 0 
L 581 3500 
L 1159 3500 
L 1159 2956 
Q 1341 3275 1631 3429 
Q 1922 3584 2338 3584 
Q 2397 3584 2469 3576 
Q 2541 3569 2628 3553 
L 2631 2963 
z
" transform="scale(0.015625)"/>
       <path id="DejaVuSans-65" d="M 3597 1894 
L 3597 1613 
L 953 1613 
Q 991 1019 1311 708 
Q 1631 397 2203 397 
Q 2534 397 2845 478 
Q 3156 559 3463 722 
L 3463 178 
Q 3153 47 2828 -22 
Q 2503 -91 2169 -91 
Q 1331 -91 842 396 
Q 353 884 353 1716 
Q 353 2575 817 3079 
Q 1281 3584 2069 3584 
Q 2775 3584 3186 3129 
Q 3597 2675 3597 1894 
z
M 3022 2063 
Q 3016 2534 2758 2815 
Q 2500 3097 2075 3097 
Q 1594 3097 1305 2825 
Q 1016 2553 972 2059 
L 3022 2063 
z
" transform="scale(0.015625)"/>
       <path id="DejaVuSans-64" d="M 2906 2969 
L 2906 4863 
L 3481 4863 
L 3481 0 
L 2906 0 
L 2906 525 
Q 2725 213 2448 61 
Q 2172 -91 1784 -91 
Q 1150 -91 751 415 
Q 353 922 353 1747 
Q 353 2572 751 3078 
Q 1150 3584 1784 3584 
Q 2172 3584 2448 3432 
Q 2725 3281 2906 2969 
z
M 947 1747 
Q 947 1113 1208 752 
Q 1469 391 1925 391 
Q 2381 391 2643 752 
Q 2906 1113 2906 1747 
Q 2906 2381 2643 2742 
Q 2381 3103 1925 3103 
Q 1469 3103 1208 2742 
Q 947 2381 947 1747 
z
" transform="scale(0.015625)"/>
       <path id="DejaVuSans-79" d="M 2059 -325 
Q 1816 -950 1584 -1140 
Q 1353 -1331 966 -1331 
L 506 -1331 
L 506 -850 
L 844 -850 
Q 1081 -850 1212 -737 
Q 1344 -625 1503 -206 
L 1606 56 
L 191 3500 
L 800 3500 
L 1894 763 
L 2988 3500 
L 3597 3500 
L 2059 -325 
z
" transform="scale(0.015625)"/>
      </defs>
      <use xlink:href="#DejaVuSans-47"/>
      <use xlink:href="#DejaVuSans-72" x="77.490234"/>
      <use xlink:href="#DejaVuSans-65" x="116.353516"/>
      <use xlink:href="#DejaVuSans-65" x="177.876953"/>
      <use xlink:href="#DejaVuSans-64" x="239.400391"/>
      <use xlink:href="#DejaVuSans-79" x="302.876953"/>
     </g>
    </g>
    <g id="line2d_35">
     <path d="M 183.615625 1065.190313 
L 203.615625 1065.190313 
L 223.615625 1065.190313 
" style="fill: none; stroke: #ff7f0e; stroke-width: 6; stroke-linecap: square"/>
     <g>
      <use xlink:href="#mffab16d0bf" x="203.615625" y="1065.190313" style="fill: #ff7f0e; stroke: #ff7f0e"/>
     </g>
    </g>
    <g id="text_21">
     <!-- Q-Learning -->
     <g transform="translate(239.615625 1072.190313) scale(0.2 -0.2)">
      <defs>
       <path id="DejaVuSans-51" d="M 2522 4238 
Q 1834 4238 1429 3725 
Q 1025 3213 1025 2328 
Q 1025 1447 1429 934 
Q 1834 422 2522 422 
Q 3209 422 3611 934 
Q 4013 1447 4013 2328 
Q 4013 3213 3611 3725 
Q 3209 4238 2522 4238 
z
M 3406 84 
L 4238 -825 
L 3475 -825 
L 2784 -78 
Q 2681 -84 2626 -87 
Q 2572 -91 2522 -91 
Q 1538 -91 948 567 
Q 359 1225 359 2328 
Q 359 3434 948 4092 
Q 1538 4750 2522 4750 
Q 3503 4750 4090 4092 
Q 4678 3434 4678 2328 
Q 4678 1516 4351 937 
Q 4025 359 3406 84 
z
" transform="scale(0.015625)"/>
       <path id="DejaVuSans-2d" d="M 313 2009 
L 1997 2009 
L 1997 1497 
L 313 1497 
L 313 2009 
z
" transform="scale(0.015625)"/>
       <path id="DejaVuSans-4c" d="M 628 4666 
L 1259 4666 
L 1259 531 
L 3531 531 
L 3531 0 
L 628 0 
L 628 4666 
z
" transform="scale(0.015625)"/>
       <path id="DejaVuSans-61" d="M 2194 1759 
Q 1497 1759 1228 1600 
Q 959 1441 959 1056 
Q 959 750 1161 570 
Q 1363 391 1709 391 
Q 2188 391 2477 730 
Q 2766 1069 2766 1631 
L 2766 1759 
L 2194 1759 
z
M 3341 1997 
L 3341 0 
L 2766 0 
L 2766 531 
Q 2569 213 2275 61 
Q 1981 -91 1556 -91 
Q 1019 -91 701 211 
Q 384 513 384 1019 
Q 384 1609 779 1909 
Q 1175 2209 1959 2209 
L 2766 2209 
L 2766 2266 
Q 2766 2663 2505 2880 
Q 2244 3097 1772 3097 
Q 1472 3097 1187 3025 
Q 903 2953 641 2809 
L 641 3341 
Q 956 3463 1253 3523 
Q 1550 3584 1831 3584 
Q 2591 3584 2966 3190 
Q 3341 2797 3341 1997 
z
" transform="scale(0.015625)"/>
       <path id="DejaVuSans-6e" d="M 3513 2113 
L 3513 0 
L 2938 0 
L 2938 2094 
Q 2938 2591 2744 2837 
Q 2550 3084 2163 3084 
Q 1697 3084 1428 2787 
Q 1159 2491 1159 1978 
L 1159 0 
L 581 0 
L 581 3500 
L 1159 3500 
L 1159 2956 
Q 1366 3272 1645 3428 
Q 1925 3584 2291 3584 
Q 2894 3584 3203 3211 
Q 3513 2838 3513 2113 
z
" transform="scale(0.015625)"/>
       <path id="DejaVuSans-69" d="M 603 3500 
L 1178 3500 
L 1178 0 
L 603 0 
L 603 3500 
z
M 603 4863 
L 1178 4863 
L 1178 4134 
L 603 4134 
L 603 4863 
z
" transform="scale(0.015625)"/>
       <path id="DejaVuSans-67" d="M 2906 1791 
Q 2906 2416 2648 2759 
Q 2391 3103 1925 3103 
Q 1463 3103 1205 2759 
Q 947 2416 947 1791 
Q 947 1169 1205 825 
Q 1463 481 1925 481 
Q 2391 481 2648 825 
Q 2906 1169 2906 1791 
z
M 3481 434 
Q 3481 -459 3084 -895 
Q 2688 -1331 1869 -1331 
Q 1566 -1331 1297 -1286 
Q 1028 -1241 775 -1147 
L 775 -588 
Q 1028 -725 1275 -790 
Q 1522 -856 1778 -856 
Q 2344 -856 2625 -561 
Q 2906 -266 2906 331 
L 2906 616 
Q 2728 306 2450 153 
Q 2172 0 1784 0 
Q 1141 0 747 490 
Q 353 981 353 1791 
Q 353 2603 747 3093 
Q 1141 3584 1784 3584 
Q 2172 3584 2450 3431 
Q 2728 3278 2906 2969 
L 2906 3500 
L 3481 3500 
L 3481 434 
z
" transform="scale(0.015625)"/>
      </defs>
      <use xlink:href="#DejaVuSans-51"/>
      <use xlink:href="#DejaVuSans-2d" x="81.460938"/>
      <use xlink:href="#DejaVuSans-4c" x="117.544922"/>
      <use xlink:href="#DejaVuSans-65" x="171.507812"/>
      <use xlink:href="#DejaVuSans-61" x="233.03125"/>
      <use xlink:href="#DejaVuSans-72" x="294.310547"/>
      <use xlink:href="#DejaVuSans-6e" x="333.673828"/>
      <use xlink:href="#DejaVuSans-69" x="397.052734"/>
      <use xlink:href="#DejaVuSans-6e" x="424.835938"/>
      <use xlink:href="#DejaVuSans-67" x="488.214844"/>
     </g>
    </g>
    <g id="line2d_36">
     <path d="M 389.95625 1065.190313 
L 409.95625 1065.190313 
L 429.95625 1065.190313 
" style="fill: none; stroke: #2ca02c; stroke-width: 6; stroke-linecap: square"/>
     <g>
      <use xlink:href="#m2224934d7d" x="409.95625" y="1065.190313" style="fill: #2ca02c; stroke: #2ca02c"/>
     </g>
    </g>
    <g id="text_22">
     <!-- Bayesian -->
     <g transform="translate(445.95625 1072.190313) scale(0.2 -0.2)">
      <defs>
       <path id="DejaVuSans-42" d="M 1259 2228 
L 1259 519 
L 2272 519 
Q 2781 519 3026 730 
Q 3272 941 3272 1375 
Q 3272 1813 3026 2020 
Q 2781 2228 2272 2228 
L 1259 2228 
z
M 1259 4147 
L 1259 2741 
L 2194 2741 
Q 2656 2741 2882 2914 
Q 3109 3088 3109 3444 
Q 3109 3797 2882 3972 
Q 2656 4147 2194 4147 
L 1259 4147 
z
M 628 4666 
L 2241 4666 
Q 2963 4666 3353 4366 
Q 3744 4066 3744 3513 
Q 3744 3084 3544 2831 
Q 3344 2578 2956 2516 
Q 3422 2416 3680 2098 
Q 3938 1781 3938 1306 
Q 3938 681 3513 340 
Q 3088 0 2303 0 
L 628 0 
L 628 4666 
z
" transform="scale(0.015625)"/>
       <path id="DejaVuSans-73" d="M 2834 3397 
L 2834 2853 
Q 2591 2978 2328 3040 
Q 2066 3103 1784 3103 
Q 1356 3103 1142 2972 
Q 928 2841 928 2578 
Q 928 2378 1081 2264 
Q 1234 2150 1697 2047 
L 1894 2003 
Q 2506 1872 2764 1633 
Q 3022 1394 3022 966 
Q 3022 478 2636 193 
Q 2250 -91 1575 -91 
Q 1294 -91 989 -36 
Q 684 19 347 128 
L 347 722 
Q 666 556 975 473 
Q 1284 391 1588 391 
Q 1994 391 2212 530 
Q 2431 669 2431 922 
Q 2431 1156 2273 1281 
Q 2116 1406 1581 1522 
L 1381 1569 
Q 847 1681 609 1914 
Q 372 2147 372 2553 
Q 372 3047 722 3315 
Q 1072 3584 1716 3584 
Q 2034 3584 2315 3537 
Q 2597 3491 2834 3397 
z
" transform="scale(0.015625)"/>
      </defs>
      <use xlink:href="#DejaVuSans-42"/>
      <use xlink:href="#DejaVuSans-61" x="68.603516"/>
      <use xlink:href="#DejaVuSans-79" x="129.882812"/>
      <use xlink:href="#DejaVuSans-65" x="189.0625"/>
      <use xlink:href="#DejaVuSans-73" x="250.585938"/>
      <use xlink:href="#DejaVuSans-69" x="302.685547"/>
      <use xlink:href="#DejaVuSans-61" x="330.46875"/>
      <use xlink:href="#DejaVuSans-6e" x="391.748047"/>
     </g>
    </g>
    <g id="line2d_37">
     <path d="M 576.984375 1065.190313 
L 596.984375 1065.190313 
L 616.984375 1065.190313 
" style="fill: none; stroke: #d62728; stroke-width: 6; stroke-linecap: square"/>
     <g>
      <use xlink:href="#m1dcae76ac7" x="596.984375" y="1065.190313" style="fill: #d62728; stroke: #d62728; stroke-linejoin: miter"/>
     </g>
    </g>
    <g id="text_23">
     <!-- Momentum -->
     <g transform="translate(632.984375 1072.190313) scale(0.2 -0.2)">
      <defs>
       <path id="DejaVuSans-4d" d="M 628 4666 
L 1569 4666 
L 2759 1491 
L 3956 4666 
L 4897 4666 
L 4897 0 
L 4281 0 
L 4281 4097 
L 3078 897 
L 2444 897 
L 1241 4097 
L 1241 0 
L 628 0 
L 628 4666 
z
" transform="scale(0.015625)"/>
       <path id="DejaVuSans-6f" d="M 1959 3097 
Q 1497 3097 1228 2736 
Q 959 2375 959 1747 
Q 959 1119 1226 758 
Q 1494 397 1959 397 
Q 2419 397 2687 759 
Q 2956 1122 2956 1747 
Q 2956 2369 2687 2733 
Q 2419 3097 1959 3097 
z
M 1959 3584 
Q 2709 3584 3137 3096 
Q 3566 2609 3566 1747 
Q 3566 888 3137 398 
Q 2709 -91 1959 -91 
Q 1206 -91 779 398 
Q 353 888 353 1747 
Q 353 2609 779 3096 
Q 1206 3584 1959 3584 
z
" transform="scale(0.015625)"/>
       <path id="DejaVuSans-6d" d="M 3328 2828 
Q 3544 3216 3844 3400 
Q 4144 3584 4550 3584 
Q 5097 3584 5394 3201 
Q 5691 2819 5691 2113 
L 5691 0 
L 5113 0 
L 5113 2094 
Q 5113 2597 4934 2840 
Q 4756 3084 4391 3084 
Q 3944 3084 3684 2787 
Q 3425 2491 3425 1978 
L 3425 0 
L 2847 0 
L 2847 2094 
Q 2847 2600 2669 2842 
Q 2491 3084 2119 3084 
Q 1678 3084 1418 2786 
Q 1159 2488 1159 1978 
L 1159 0 
L 581 0 
L 581 3500 
L 1159 3500 
L 1159 2956 
Q 1356 3278 1631 3431 
Q 1906 3584 2284 3584 
Q 2666 3584 2933 3390 
Q 3200 3197 3328 2828 
z
" transform="scale(0.015625)"/>
       <path id="DejaVuSans-74" d="M 1172 4494 
L 1172 3500 
L 2356 3500 
L 2356 3053 
L 1172 3053 
L 1172 1153 
Q 1172 725 1289 603 
Q 1406 481 1766 481 
L 2356 481 
L 2356 0 
L 1766 0 
Q 1100 0 847 248 
Q 594 497 594 1153 
L 594 3053 
L 172 3053 
L 172 3500 
L 594 3500 
L 594 4494 
L 1172 4494 
z
" transform="scale(0.015625)"/>
       <path id="DejaVuSans-75" d="M 544 1381 
L 544 3500 
L 1119 3500 
L 1119 1403 
Q 1119 906 1312 657 
Q 1506 409 1894 409 
Q 2359 409 2629 706 
Q 2900 1003 2900 1516 
L 2900 3500 
L 3475 3500 
L 3475 0 
L 2900 0 
L 2900 538 
Q 2691 219 2414 64 
Q 2138 -91 1772 -91 
Q 1169 -91 856 284 
Q 544 659 544 1381 
z
M 1991 3584 
L 1991 3584 
z
" transform="scale(0.015625)"/>
      </defs>
      <use xlink:href="#DejaVuSans-4d"/>
      <use xlink:href="#DejaVuSans-6f" x="86.279297"/>
      <use xlink:href="#DejaVuSans-6d" x="147.460938"/>
      <use xlink:href="#DejaVuSans-65" x="244.873047"/>
      <use xlink:href="#DejaVuSans-6e" x="306.396484"/>
      <use xlink:href="#DejaVuSans-74" x="369.775391"/>
      <use xlink:href="#DejaVuSans-75" x="408.984375"/>
      <use xlink:href="#DejaVuSans-6d" x="472.363281"/>
     </g>
    </g>
    <g id="line2d_38">
     <path d="M 786.9375 1065.190313 
L 806.9375 1065.190313 
L 826.9375 1065.190313 
" style="fill: none; stroke: #9467bd; stroke-width: 6; stroke-linecap: square"/>
     <g>
      <use xlink:href="#m4bcfa077b0" x="806.9375" y="1065.190313" style="fill: #9467bd; stroke: #9467bd; stroke-linejoin: bevel"/>
     </g>
    </g>
    <g id="text_24">
     <!-- HMM -->
     <g transform="translate(842.9375 1072.190313) scale(0.2 -0.2)">
      <defs>
       <path id="DejaVuSans-48" d="M 628 4666 
L 1259 4666 
L 1259 2753 
L 3553 2753 
L 3553 4666 
L 4184 4666 
L 4184 0 
L 3553 0 
L 3553 2222 
L 1259 2222 
L 1259 0 
L 628 0 
L 628 4666 
z
" transform="scale(0.015625)"/>
      </defs>
      <use xlink:href="#DejaVuSans-48"/>
      <use xlink:href="#DejaVuSans-4d" x="75.195312"/>
      <use xlink:href="#DejaVuSans-4d" x="161.474609"/>
     </g>
    </g>
    <g id="line2d_39">
     <path d="M 932.490625 1065.190313 
L 952.490625 1065.190313 
L 972.490625 1065.190313 
" style="fill: none; stroke: #8c564b; stroke-width: 6; stroke-linecap: square"/>
     <g>
      <use xlink:href="#m1d88076493" x="952.490625" y="1065.190313" style="fill: #8c564b; stroke: #8c564b; stroke-linejoin: miter"/>
     </g>
    </g>
    <g id="text_25">
     <!-- Random -->
     <g transform="translate(988.490625 1072.190313) scale(0.2 -0.2)">
      <defs>
       <path id="DejaVuSans-52" d="M 2841 2188 
Q 3044 2119 3236 1894 
Q 3428 1669 3622 1275 
L 4263 0 
L 3584 0 
L 2988 1197 
Q 2756 1666 2539 1819 
Q 2322 1972 1947 1972 
L 1259 1972 
L 1259 0 
L 628 0 
L 628 4666 
L 2053 4666 
Q 2853 4666 3247 4331 
Q 3641 3997 3641 3322 
Q 3641 2881 3436 2590 
Q 3231 2300 2841 2188 
z
M 1259 4147 
L 1259 2491 
L 2053 2491 
Q 2509 2491 2742 2702 
Q 2975 2913 2975 3322 
Q 2975 3731 2742 3939 
Q 2509 4147 2053 4147 
L 1259 4147 
z
" transform="scale(0.015625)"/>
      </defs>
      <use xlink:href="#DejaVuSans-52"/>
      <use xlink:href="#DejaVuSans-61" x="67.232422"/>
      <use xlink:href="#DejaVuSans-6e" x="128.511719"/>
      <use xlink:href="#DejaVuSans-64" x="191.890625"/>
      <use xlink:href="#DejaVuSans-6f" x="255.367188"/>
      <use xlink:href="#DejaVuSans-6d" x="316.548828"/>
     </g>
    </g>
    <g id="line2d_40">
     <path d="M 1111.284375 1065.190313 
L 1131.284375 1065.190313 
L 1151.284375 1065.190313 
" style="fill: none; stroke: #e377c2; stroke-width: 6; stroke-linecap: square"/>
     <g>
      <use xlink:href="#md59b63c647" x="1131.284375" y="1065.190313" style="fill: #e377c2; stroke: #e377c2; stroke-linejoin: miter"/>
     </g>
    </g>
    <g id="text_26">
     <!-- WSLS -->
     <g transform="translate(1167.284375 1072.190313) scale(0.2 -0.2)">
      <defs>
       <path id="DejaVuSans-57" d="M 213 4666 
L 850 4666 
L 1831 722 
L 2809 4666 
L 3519 4666 
L 4500 722 
L 5478 4666 
L 6119 4666 
L 4947 0 
L 4153 0 
L 3169 4050 
L 2175 0 
L 1381 0 
L 213 4666 
z
" transform="scale(0.015625)"/>
       <path id="DejaVuSans-53" d="M 3425 4513 
L 3425 3897 
Q 3066 4069 2747 4153 
Q 2428 4238 2131 4238 
Q 1616 4238 1336 4038 
Q 1056 3838 1056 3469 
Q 1056 3159 1242 3001 
Q 1428 2844 1947 2747 
L 2328 2669 
Q 3034 2534 3370 2195 
Q 3706 1856 3706 1288 
Q 3706 609 3251 259 
Q 2797 -91 1919 -91 
Q 1588 -91 1214 -16 
Q 841 59 441 206 
L 441 856 
Q 825 641 1194 531 
Q 1563 422 1919 422 
Q 2459 422 2753 634 
Q 3047 847 3047 1241 
Q 3047 1584 2836 1778 
Q 2625 1972 2144 2069 
L 1759 2144 
Q 1053 2284 737 2584 
Q 422 2884 422 3419 
Q 422 4038 858 4394 
Q 1294 4750 2059 4750 
Q 2388 4750 2728 4690 
Q 3069 4631 3425 4513 
z
" transform="scale(0.015625)"/>
      </defs>
      <use xlink:href="#DejaVuSans-57"/>
      <use xlink:href="#DejaVuSans-53" x="98.876953"/>
      <use xlink:href="#DejaVuSans-4c" x="162.353516"/>
      <use xlink:href="#DejaVuSans-53" x="218.066406"/>
     </g>
    </g>
    <g id="line2d_41">
     <path d="M 1263.596875 1065.190313 
L 1283.596875 1065.190313 
L 1303.596875 1065.190313 
" style="fill: none; stroke: #7f7f7f; stroke-width: 6; stroke-linecap: square"/>
     <g>
      <use xlink:href="#mb5a76b53b3" x="1283.596875" y="1065.190313" style="fill: #7f7f7f; stroke: #7f7f7f"/>
     </g>
    </g>
    <g id="text_27">
     <!-- Reinforce -->
     <g transform="translate(1319.596875 1072.190313) scale(0.2 -0.2)">
      <defs>
       <path id="DejaVuSans-66" d="M 2375 4863 
L 2375 4384 
L 1825 4384 
Q 1516 4384 1395 4259 
Q 1275 4134 1275 3809 
L 1275 3500 
L 2222 3500 
L 2222 3053 
L 1275 3053 
L 1275 0 
L 697 0 
L 697 3053 
L 147 3053 
L 147 3500 
L 697 3500 
L 697 3744 
Q 697 4328 969 4595 
Q 1241 4863 1831 4863 
L 2375 4863 
z
" transform="scale(0.015625)"/>
       <path id="DejaVuSans-63" d="M 3122 3366 
L 3122 2828 
Q 2878 2963 2633 3030 
Q 2388 3097 2138 3097 
Q 1578 3097 1268 2742 
Q 959 2388 959 1747 
Q 959 1106 1268 751 
Q 1578 397 2138 397 
Q 2388 397 2633 464 
Q 2878 531 3122 666 
L 3122 134 
Q 2881 22 2623 -34 
Q 2366 -91 2075 -91 
Q 1284 -91 818 406 
Q 353 903 353 1747 
Q 353 2603 823 3093 
Q 1294 3584 2113 3584 
Q 2378 3584 2631 3529 
Q 2884 3475 3122 3366 
z
" transform="scale(0.015625)"/>
      </defs>
      <use xlink:href="#DejaVuSans-52"/>
      <use xlink:href="#DejaVuSans-65" x="64.982422"/>
      <use xlink:href="#DejaVuSans-69" x="126.505859"/>
      <use xlink:href="#DejaVuSans-6e" x="154.289062"/>
      <use xlink:href="#DejaVuSans-66" x="217.667969"/>
      <use xlink:href="#DejaVuSans-6f" x="252.873047"/>
      <use xlink:href="#DejaVuSans-72" x="314.054688"/>
      <use xlink:href="#DejaVuSans-63" x="352.917969"/>
      <use xlink:href="#DejaVuSans-65" x="407.898438"/>
     </g>
    </g>
    <g id="line2d_42">
     <path d="M 1453.484375 1065.190313 
L 1473.484375 1065.190313 
L 1493.484375 1065.190313 
" style="fill: none; stroke: #bcbd22; stroke-width: 6; stroke-linecap: square"/>
     <g>
      <use xlink:href="#ma180755d17" x="1473.484375" y="1065.190313" style="fill: #bcbd22; stroke: #bcbd22; stroke-linejoin: miter"/>
     </g>
    </g>
    <g id="text_28">
     <!-- SARSA -->
     <g transform="translate(1509.484375 1072.190313) scale(0.2 -0.2)">
      <defs>
       <path id="DejaVuSans-41" d="M 2188 4044 
L 1331 1722 
L 3047 1722 
L 2188 4044 
z
M 1831 4666 
L 2547 4666 
L 4325 0 
L 3669 0 
L 3244 1197 
L 1141 1197 
L 716 0 
L 50 0 
L 1831 4666 
z
" transform="scale(0.015625)"/>
      </defs>
      <use xlink:href="#DejaVuSans-53"/>
      <use xlink:href="#DejaVuSans-41" x="65.351562"/>
      <use xlink:href="#DejaVuSans-52" x="133.759766"/>
      <use xlink:href="#DejaVuSans-53" x="203.242188"/>
      <use xlink:href="#DejaVuSans-41" x="268.59375"/>
     </g>
    </g>
    <g id="line2d_43">
     <path d="M 1616.8875 1065.190313 
L 1636.8875 1065.190313 
L 1656.8875 1065.190313 
" style="fill: none; stroke: #17becf; stroke-width: 6; stroke-linecap: square"/>
     <g>
      <use xlink:href="#m8bf8e61aff" x="1636.8875" y="1065.190313" style="fill: #17becf; stroke: #17becf"/>
     </g>
    </g>
    <g id="text_29">
     <!-- Actor-Critic -->
     <g transform="translate(1672.8875 1072.190313) scale(0.2 -0.2)">
      <defs>
       <path id="DejaVuSans-43" d="M 4122 4306 
L 4122 3641 
Q 3803 3938 3442 4084 
Q 3081 4231 2675 4231 
Q 1875 4231 1450 3742 
Q 1025 3253 1025 2328 
Q 1025 1406 1450 917 
Q 1875 428 2675 428 
Q 3081 428 3442 575 
Q 3803 722 4122 1019 
L 4122 359 
Q 3791 134 3420 21 
Q 3050 -91 2638 -91 
Q 1578 -91 968 557 
Q 359 1206 359 2328 
Q 359 3453 968 4101 
Q 1578 4750 2638 4750 
Q 3056 4750 3426 4639 
Q 3797 4528 4122 4306 
z
" transform="scale(0.015625)"/>
      </defs>
      <use xlink:href="#DejaVuSans-41"/>
      <use xlink:href="#DejaVuSans-63" x="66.658203"/>
      <use xlink:href="#DejaVuSans-74" x="121.638672"/>
      <use xlink:href="#DejaVuSans-6f" x="160.847656"/>
      <use xlink:href="#DejaVuSans-72" x="222.029297"/>
      <use xlink:href="#DejaVuSans-2d" x="256.767578"/>
      <use xlink:href="#DejaVuSans-43" x="292.851562"/>
      <use xlink:href="#DejaVuSans-72" x="362.675781"/>
      <use xlink:href="#DejaVuSans-69" x="403.789062"/>
      <use xlink:href="#DejaVuSans-74" x="431.572266"/>
      <use xlink:href="#DejaVuSans-69" x="470.78125"/>
      <use xlink:href="#DejaVuSans-63" x="498.564453"/>
     </g>
    </g>
   </g>
  </g>
 </g>
 <defs>
  <clipPath id="p903ffafd4a">
   <rect x="555.2" y="41.073438" width="1116" height="831.6"/>
  </clipPath>
 </defs>
</svg>
