<?xml version="1.0" encoding="utf-8" standalone="no"?>
<!DOCTYPE svg PUBLIC "-//W3C//DTD SVG 1.1//EN"
  "http://www.w3.org/Graphics/SVG/1.1/DTD/svg11.dtd">
<svg xmlns:xlink="http://www.w3.org/1999/xlink" width="1730.640625pt" height="1088.153594pt" viewBox="0 0 1730.640625 1088.153594" xmlns="http://www.w3.org/2000/svg" version="1.1">
 <metadata>
  <rdf:RDF xmlns:dc="http://purl.org/dc/elements/1.1/" xmlns:cc="http://creativecommons.org/ns#" xmlns:rdf="http://www.w3.org/1999/02/22-rdf-syntax-ns#">
   <cc:Work>
    <dc:type rdf:resource="http://purl.org/dc/dcmitype/StillImage"/>
    <dc:date>2024-03-31T16:54:14.882790</dc:date>
    <dc:format>image/svg+xml</dc:format>
    <dc:creator>
     <cc:Agent>
      <dc:title>Matplotlib v3.7.2, https://matplotlib.org/</dc:title>
     </cc:Agent>
    </dc:creator>
   </cc:Work>
  </rdf:RDF>
 </metadata>
 <defs>
  <style type="text/css">*{stroke-linejoin: round; stroke-linecap: butt}</style>
 </defs>
 <g id="figure_1">
  <g id="patch_1">
   <path d="M 0 1088.153594 
L 1730.640625 1088.153594 
L 1730.640625 0 
L 0 0 
z
" style="fill: #ffffff"/>
  </g>
  <g id="axes_1">
   <g id="patch_2">
    <path d="M 555.2 869.852344 
L 1671.2 869.852344 
L 1671.2 38.252344 
L 555.2 38.252344 
z
" style="fill: #eaeaf2"/>
   </g>
   <g id="matplotlib.axis_1">
    <g id="xtick_1">
     <g id="line2d_1">
      <path d="M 605.927273 869.852344 
L 605.927273 38.252344 
" clip-path="url(#p7e932016c6)" style="fill: none; stroke: #ffffff; stroke-width: 0.8; stroke-linecap: round"/>
     </g>
     <g id="text_1">
      <!-- 10% -->
      <g style="fill: #262626" transform="translate(585.91321 891.167969) scale(0.2 -0.2)">
       <defs>
        <path id="Arial-BoldMT-31" d="M 2519 0 
L 1641 0 
L 1641 3309 
Q 1159 2859 506 2644 
L 506 3441 
Q 850 3553 1253 3867 
Q 1656 4181 1806 4600 
L 2519 4600 
L 2519 0 
z
" transform="scale(0.015625)"/>
        <path id="Arial-BoldMT-30" d="M 1756 4600 
Q 2422 4600 2797 4125 
Q 3244 3563 3244 2259 
Q 3244 959 2794 391 
Q 2422 -78 1756 -78 
Q 1088 -78 678 436 
Q 269 950 269 2269 
Q 269 3563 719 4131 
Q 1091 4600 1756 4600 
z
M 1756 3872 
Q 1597 3872 1472 3770 
Q 1347 3669 1278 3406 
Q 1188 3066 1188 2259 
Q 1188 1453 1269 1151 
Q 1350 850 1473 750 
Q 1597 650 1756 650 
Q 1916 650 2041 751 
Q 2166 853 2234 1116 
Q 2325 1453 2325 2259 
Q 2325 3066 2244 3367 
Q 2163 3669 2039 3770 
Q 1916 3872 1756 3872 
z
" transform="scale(0.015625)"/>
        <path id="Arial-BoldMT-25" d="M 278 3450 
Q 278 4066 548 4362 
Q 819 4659 1281 4659 
Q 1759 4659 2029 4364 
Q 2300 4069 2300 3450 
Q 2300 2834 2029 2537 
Q 1759 2241 1297 2241 
Q 819 2241 548 2536 
Q 278 2831 278 3450 
z
M 963 3456 
Q 963 3009 1066 2856 
Q 1144 2744 1281 2744 
Q 1422 2744 1500 2856 
Q 1600 3009 1600 3456 
Q 1600 3903 1500 4053 
Q 1422 4169 1281 4169 
Q 1144 4169 1066 4056 
Q 963 3903 963 3456 
z
M 1950 -175 
L 1300 -175 
L 3741 4659 
L 4372 4659 
L 1950 -175 
z
M 3369 1028 
Q 3369 1644 3639 1941 
Q 3909 2238 4378 2238 
Q 4850 2238 5120 1941 
Q 5391 1644 5391 1028 
Q 5391 409 5120 112 
Q 4850 -184 4388 -184 
Q 3909 -184 3639 112 
Q 3369 409 3369 1028 
z
M 4053 1031 
Q 4053 584 4156 434 
Q 4234 319 4372 319 
Q 4513 319 4588 431 
Q 4691 584 4691 1031 
Q 4691 1478 4591 1631 
Q 4513 1744 4372 1744 
Q 4231 1744 4156 1631 
Q 4053 1478 4053 1031 
z
" transform="scale(0.015625)"/>
       </defs>
       <use xlink:href="#Arial-BoldMT-31"/>
       <use xlink:href="#Arial-BoldMT-30" x="55.615234"/>
       <use xlink:href="#Arial-BoldMT-25" x="111.230469"/>
      </g>
     </g>
    </g>
    <g id="xtick_2">
     <g id="line2d_2">
      <path d="M 732.745455 869.852344 
L 732.745455 38.252344 
" clip-path="url(#p7e932016c6)" style="fill: none; stroke: #ffffff; stroke-width: 0.8; stroke-linecap: round"/>
     </g>
     <g id="text_2">
      <!-- 20% -->
      <g style="fill: #262626" transform="translate(712.731392 891.167969) scale(0.2 -0.2)">
       <defs>
        <path id="Arial-BoldMT-32" d="M 3238 816 
L 3238 0 
L 159 0 
Q 209 463 459 877 
Q 709 1291 1447 1975 
Q 2041 2528 2175 2725 
Q 2356 2997 2356 3263 
Q 2356 3556 2198 3714 
Q 2041 3872 1763 3872 
Q 1488 3872 1325 3706 
Q 1163 3541 1138 3156 
L 263 3244 
Q 341 3969 753 4284 
Q 1166 4600 1784 4600 
Q 2463 4600 2850 4234 
Q 3238 3869 3238 3325 
Q 3238 3016 3127 2736 
Q 3016 2456 2775 2150 
Q 2616 1947 2200 1565 
Q 1784 1184 1673 1059 
Q 1563 934 1494 816 
L 3238 816 
z
" transform="scale(0.015625)"/>
       </defs>
       <use xlink:href="#Arial-BoldMT-32"/>
       <use xlink:href="#Arial-BoldMT-30" x="55.615234"/>
       <use xlink:href="#Arial-BoldMT-25" x="111.230469"/>
      </g>
     </g>
    </g>
    <g id="xtick_3">
     <g id="line2d_3">
      <path d="M 859.563636 869.852344 
L 859.563636 38.252344 
" clip-path="url(#p7e932016c6)" style="fill: none; stroke: #ffffff; stroke-width: 0.8; stroke-linecap: round"/>
     </g>
     <g id="text_3">
      <!-- 30% -->
      <g style="fill: #262626" transform="translate(839.549574 891.167969) scale(0.2 -0.2)">
       <defs>
        <path id="Arial-BoldMT-33" d="M 241 1216 
L 1091 1319 
Q 1131 994 1309 822 
Q 1488 650 1741 650 
Q 2013 650 2198 856 
Q 2384 1063 2384 1413 
Q 2384 1744 2206 1937 
Q 2028 2131 1772 2131 
Q 1603 2131 1369 2066 
L 1466 2781 
Q 1822 2772 2009 2936 
Q 2197 3100 2197 3372 
Q 2197 3603 2059 3740 
Q 1922 3878 1694 3878 
Q 1469 3878 1309 3722 
Q 1150 3566 1116 3266 
L 306 3403 
Q 391 3819 561 4067 
Q 731 4316 1036 4458 
Q 1341 4600 1719 4600 
Q 2366 4600 2756 4188 
Q 3078 3850 3078 3425 
Q 3078 2822 2419 2463 
Q 2813 2378 3048 2084 
Q 3284 1791 3284 1375 
Q 3284 772 2843 347 
Q 2403 -78 1747 -78 
Q 1125 -78 715 280 
Q 306 638 241 1216 
z
" transform="scale(0.015625)"/>
       </defs>
       <use xlink:href="#Arial-BoldMT-33"/>
       <use xlink:href="#Arial-BoldMT-30" x="55.615234"/>
       <use xlink:href="#Arial-BoldMT-25" x="111.230469"/>
      </g>
     </g>
    </g>
    <g id="xtick_4">
     <g id="line2d_4">
      <path d="M 986.381818 869.852344 
L 986.381818 38.252344 
" clip-path="url(#p7e932016c6)" style="fill: none; stroke: #ffffff; stroke-width: 0.8; stroke-linecap: round"/>
     </g>
     <g id="text_4">
      <!-- 40% -->
      <g style="fill: #262626" transform="translate(966.367756 891.167969) scale(0.2 -0.2)">
       <defs>
        <path id="Arial-BoldMT-34" d="M 1994 0 
L 1994 922 
L 119 922 
L 119 1691 
L 2106 4600 
L 2844 4600 
L 2844 1694 
L 3413 1694 
L 3413 922 
L 2844 922 
L 2844 0 
L 1994 0 
z
M 1994 1694 
L 1994 3259 
L 941 1694 
L 1994 1694 
z
" transform="scale(0.015625)"/>
       </defs>
       <use xlink:href="#Arial-BoldMT-34"/>
       <use xlink:href="#Arial-BoldMT-30" x="55.615234"/>
       <use xlink:href="#Arial-BoldMT-25" x="111.230469"/>
      </g>
     </g>
    </g>
    <g id="xtick_5">
     <g id="line2d_5">
      <path d="M 1113.2 869.852344 
L 1113.2 38.252344 
" clip-path="url(#p7e932016c6)" style="fill: none; stroke: #ffffff; stroke-width: 0.8; stroke-linecap: round"/>
     </g>
     <g id="text_5">
      <!-- 50% -->
      <g style="fill: #262626" transform="translate(1093.185937 891.167969) scale(0.2 -0.2)">
       <defs>
        <path id="Arial-BoldMT-35" d="M 284 1178 
L 1159 1269 
Q 1197 972 1381 798 
Q 1566 625 1806 625 
Q 2081 625 2272 848 
Q 2463 1072 2463 1522 
Q 2463 1944 2273 2155 
Q 2084 2366 1781 2366 
Q 1403 2366 1103 2031 
L 391 2134 
L 841 4519 
L 3163 4519 
L 3163 3697 
L 1506 3697 
L 1369 2919 
Q 1663 3066 1969 3066 
Q 2553 3066 2959 2641 
Q 3366 2216 3366 1538 
Q 3366 972 3038 528 
Q 2591 -78 1797 -78 
Q 1163 -78 763 262 
Q 363 603 284 1178 
z
" transform="scale(0.015625)"/>
       </defs>
       <use xlink:href="#Arial-BoldMT-35"/>
       <use xlink:href="#Arial-BoldMT-30" x="55.615234"/>
       <use xlink:href="#Arial-BoldMT-25" x="111.230469"/>
      </g>
     </g>
    </g>
    <g id="xtick_6">
     <g id="line2d_6">
      <path d="M 1240.018182 869.852344 
L 1240.018182 38.252344 
" clip-path="url(#p7e932016c6)" style="fill: none; stroke: #ffffff; stroke-width: 0.8; stroke-linecap: round"/>
     </g>
     <g id="text_6">
      <!-- 60% -->
      <g style="fill: #262626" transform="translate(1220.004119 891.167969) scale(0.2 -0.2)">
       <defs>
        <path id="Arial-BoldMT-36" d="M 3247 3459 
L 2397 3366 
Q 2366 3628 2234 3753 
Q 2103 3878 1894 3878 
Q 1616 3878 1423 3628 
Q 1231 3378 1181 2588 
Q 1509 2975 1997 2975 
Q 2547 2975 2939 2556 
Q 3331 2138 3331 1475 
Q 3331 772 2918 347 
Q 2506 -78 1859 -78 
Q 1166 -78 719 461 
Q 272 1000 272 2228 
Q 272 3488 737 4044 
Q 1203 4600 1947 4600 
Q 2469 4600 2811 4308 
Q 3153 4016 3247 3459 
z
M 1256 1544 
Q 1256 1116 1453 883 
Q 1650 650 1903 650 
Q 2147 650 2309 840 
Q 2472 1031 2472 1466 
Q 2472 1913 2297 2120 
Q 2122 2328 1859 2328 
Q 1606 2328 1431 2129 
Q 1256 1931 1256 1544 
z
" transform="scale(0.015625)"/>
       </defs>
       <use xlink:href="#Arial-BoldMT-36"/>
       <use xlink:href="#Arial-BoldMT-30" x="55.615234"/>
       <use xlink:href="#Arial-BoldMT-25" x="111.230469"/>
      </g>
     </g>
    </g>
    <g id="xtick_7">
     <g id="line2d_7">
      <path d="M 1366.836364 869.852344 
L 1366.836364 38.252344 
" clip-path="url(#p7e932016c6)" style="fill: none; stroke: #ffffff; stroke-width: 0.8; stroke-linecap: round"/>
     </g>
     <g id="text_7">
      <!-- 70% -->
      <g style="fill: #262626" transform="translate(1346.822301 891.167969) scale(0.2 -0.2)">
       <defs>
        <path id="Arial-BoldMT-37" d="M 272 3703 
L 272 4519 
L 3275 4519 
L 3275 3881 
Q 2903 3516 2518 2831 
Q 2134 2147 1932 1376 
Q 1731 606 1734 0 
L 888 0 
Q 909 950 1279 1937 
Q 1650 2925 2269 3703 
L 272 3703 
z
" transform="scale(0.015625)"/>
       </defs>
       <use xlink:href="#Arial-BoldMT-37"/>
       <use xlink:href="#Arial-BoldMT-30" x="55.615234"/>
       <use xlink:href="#Arial-BoldMT-25" x="111.230469"/>
      </g>
     </g>
    </g>
    <g id="xtick_8">
     <g id="line2d_8">
      <path d="M 1493.654545 869.852344 
L 1493.654545 38.252344 
" clip-path="url(#p7e932016c6)" style="fill: none; stroke: #ffffff; stroke-width: 0.8; stroke-linecap: round"/>
     </g>
     <g id="text_8">
      <!-- 80% -->
      <g style="fill: #262626" transform="translate(1473.640483 891.167969) scale(0.2 -0.2)">
       <defs>
        <path id="Arial-BoldMT-38" d="M 1025 2472 
Q 684 2616 529 2867 
Q 375 3119 375 3419 
Q 375 3931 733 4265 
Q 1091 4600 1750 4600 
Q 2403 4600 2764 4265 
Q 3125 3931 3125 3419 
Q 3125 3100 2959 2851 
Q 2794 2603 2494 2472 
Q 2875 2319 3073 2025 
Q 3272 1731 3272 1347 
Q 3272 713 2867 316 
Q 2463 -81 1791 -81 
Q 1166 -81 750 247 
Q 259 634 259 1309 
Q 259 1681 443 1992 
Q 628 2303 1025 2472 
z
M 1206 3356 
Q 1206 3094 1354 2947 
Q 1503 2800 1750 2800 
Q 2000 2800 2150 2948 
Q 2300 3097 2300 3359 
Q 2300 3606 2151 3754 
Q 2003 3903 1759 3903 
Q 1506 3903 1356 3753 
Q 1206 3603 1206 3356 
z
M 1125 1394 
Q 1125 1031 1311 828 
Q 1497 625 1775 625 
Q 2047 625 2225 820 
Q 2403 1016 2403 1384 
Q 2403 1706 2222 1901 
Q 2041 2097 1763 2097 
Q 1441 2097 1283 1875 
Q 1125 1653 1125 1394 
z
" transform="scale(0.015625)"/>
       </defs>
       <use xlink:href="#Arial-BoldMT-38"/>
       <use xlink:href="#Arial-BoldMT-30" x="55.615234"/>
       <use xlink:href="#Arial-BoldMT-25" x="111.230469"/>
      </g>
     </g>
    </g>
    <g id="xtick_9">
     <g id="line2d_9">
      <path d="M 1620.472727 869.852344 
L 1620.472727 38.252344 
" clip-path="url(#p7e932016c6)" style="fill: none; stroke: #ffffff; stroke-width: 0.8; stroke-linecap: round"/>
     </g>
     <g id="text_9">
      <!-- 90% -->
      <g style="fill: #262626" transform="translate(1600.458665 891.167969) scale(0.2 -0.2)">
       <defs>
        <path id="Arial-BoldMT-39" d="M 291 1059 
L 1141 1153 
Q 1172 894 1303 769 
Q 1434 644 1650 644 
Q 1922 644 2112 894 
Q 2303 1144 2356 1931 
Q 2025 1547 1528 1547 
Q 988 1547 595 1964 
Q 203 2381 203 3050 
Q 203 3747 617 4173 
Q 1031 4600 1672 4600 
Q 2369 4600 2816 4061 
Q 3263 3522 3263 2288 
Q 3263 1031 2797 475 
Q 2331 -81 1584 -81 
Q 1047 -81 715 205 
Q 384 491 291 1059 
z
M 2278 2978 
Q 2278 3403 2083 3637 
Q 1888 3872 1631 3872 
Q 1388 3872 1227 3680 
Q 1066 3488 1066 3050 
Q 1066 2606 1241 2398 
Q 1416 2191 1678 2191 
Q 1931 2191 2104 2391 
Q 2278 2591 2278 2978 
z
" transform="scale(0.015625)"/>
       </defs>
       <use xlink:href="#Arial-BoldMT-39"/>
       <use xlink:href="#Arial-BoldMT-30" x="55.615234"/>
       <use xlink:href="#Arial-BoldMT-25" x="111.230469"/>
      </g>
     </g>
    </g>
    <g id="text_10">
     <!-- Percentage of data used for training -->
     <g style="fill: #262626" transform="translate(856.505469 920.953906) scale(0.3 -0.3)">
      <defs>
       <path id="Arial-BoldMT-50" d="M 466 0 
L 466 4581 
L 1950 4581 
Q 2794 4581 3050 4513 
Q 3444 4409 3709 4064 
Q 3975 3719 3975 3172 
Q 3975 2750 3822 2462 
Q 3669 2175 3433 2011 
Q 3197 1847 2953 1794 
Q 2622 1728 1994 1728 
L 1391 1728 
L 1391 0 
L 466 0 
z
M 1391 3806 
L 1391 2506 
L 1897 2506 
Q 2444 2506 2628 2578 
Q 2813 2650 2917 2803 
Q 3022 2956 3022 3159 
Q 3022 3409 2875 3571 
Q 2728 3734 2503 3775 
Q 2338 3806 1838 3806 
L 1391 3806 
z
" transform="scale(0.015625)"/>
       <path id="Arial-BoldMT-65" d="M 2381 1056 
L 3256 909 
Q 3088 428 2723 176 
Q 2359 -75 1813 -75 
Q 947 -75 531 491 
Q 203 944 203 1634 
Q 203 2459 634 2926 
Q 1066 3394 1725 3394 
Q 2466 3394 2894 2905 
Q 3322 2416 3303 1406 
L 1103 1406 
Q 1113 1016 1316 798 
Q 1519 581 1822 581 
Q 2028 581 2168 693 
Q 2309 806 2381 1056 
z
M 2431 1944 
Q 2422 2325 2234 2523 
Q 2047 2722 1778 2722 
Q 1491 2722 1303 2513 
Q 1116 2303 1119 1944 
L 2431 1944 
z
" transform="scale(0.015625)"/>
       <path id="Arial-BoldMT-72" d="M 1300 0 
L 422 0 
L 422 3319 
L 1238 3319 
L 1238 2847 
Q 1447 3181 1614 3287 
Q 1781 3394 1994 3394 
Q 2294 3394 2572 3228 
L 2300 2463 
Q 2078 2606 1888 2606 
Q 1703 2606 1575 2504 
Q 1447 2403 1373 2137 
Q 1300 1872 1300 1025 
L 1300 0 
z
" transform="scale(0.015625)"/>
       <path id="Arial-BoldMT-63" d="M 3353 2338 
L 2488 2181 
Q 2444 2441 2289 2572 
Q 2134 2703 1888 2703 
Q 1559 2703 1364 2476 
Q 1169 2250 1169 1719 
Q 1169 1128 1367 884 
Q 1566 641 1900 641 
Q 2150 641 2309 783 
Q 2469 925 2534 1272 
L 3397 1125 
Q 3263 531 2881 228 
Q 2500 -75 1859 -75 
Q 1131 -75 698 384 
Q 266 844 266 1656 
Q 266 2478 700 2936 
Q 1134 3394 1875 3394 
Q 2481 3394 2839 3133 
Q 3197 2872 3353 2338 
z
" transform="scale(0.015625)"/>
       <path id="Arial-BoldMT-6e" d="M 3478 0 
L 2600 0 
L 2600 1694 
Q 2600 2231 2544 2389 
Q 2488 2547 2361 2634 
Q 2234 2722 2056 2722 
Q 1828 2722 1647 2597 
Q 1466 2472 1398 2265 
Q 1331 2059 1331 1503 
L 1331 0 
L 453 0 
L 453 3319 
L 1269 3319 
L 1269 2831 
Q 1703 3394 2363 3394 
Q 2653 3394 2893 3289 
Q 3134 3184 3257 3021 
Q 3381 2859 3429 2653 
Q 3478 2447 3478 2063 
L 3478 0 
z
" transform="scale(0.015625)"/>
       <path id="Arial-BoldMT-74" d="M 1981 3319 
L 1981 2619 
L 1381 2619 
L 1381 1281 
Q 1381 875 1398 808 
Q 1416 741 1477 697 
Q 1538 653 1625 653 
Q 1747 653 1978 738 
L 2053 56 
Q 1747 -75 1359 -75 
Q 1122 -75 931 4 
Q 741 84 652 211 
Q 563 338 528 553 
Q 500 706 500 1172 
L 500 2619 
L 97 2619 
L 97 3319 
L 500 3319 
L 500 3978 
L 1381 4491 
L 1381 3319 
L 1981 3319 
z
" transform="scale(0.015625)"/>
       <path id="Arial-BoldMT-61" d="M 1116 2306 
L 319 2450 
Q 453 2931 781 3162 
Q 1109 3394 1756 3394 
Q 2344 3394 2631 3255 
Q 2919 3116 3036 2902 
Q 3153 2688 3153 2116 
L 3144 1091 
Q 3144 653 3186 445 
Q 3228 238 3344 0 
L 2475 0 
Q 2441 88 2391 259 
Q 2369 338 2359 363 
Q 2134 144 1878 34 
Q 1622 -75 1331 -75 
Q 819 -75 523 203 
Q 228 481 228 906 
Q 228 1188 362 1408 
Q 497 1628 739 1745 
Q 981 1863 1438 1950 
Q 2053 2066 2291 2166 
L 2291 2253 
Q 2291 2506 2166 2614 
Q 2041 2722 1694 2722 
Q 1459 2722 1328 2630 
Q 1197 2538 1116 2306 
z
M 2291 1594 
Q 2122 1538 1756 1459 
Q 1391 1381 1278 1306 
Q 1106 1184 1106 997 
Q 1106 813 1243 678 
Q 1381 544 1594 544 
Q 1831 544 2047 700 
Q 2206 819 2256 991 
Q 2291 1103 2291 1419 
L 2291 1594 
z
" transform="scale(0.015625)"/>
       <path id="Arial-BoldMT-67" d="M 378 -219 
L 1381 -341 
Q 1406 -516 1497 -581 
Q 1622 -675 1891 -675 
Q 2234 -675 2406 -572 
Q 2522 -503 2581 -350 
Q 2622 -241 2622 53 
L 2622 538 
Q 2228 0 1628 0 
Q 959 0 569 566 
Q 263 1013 263 1678 
Q 263 2513 664 2953 
Q 1066 3394 1663 3394 
Q 2278 3394 2678 2853 
L 2678 3319 
L 3500 3319 
L 3500 341 
Q 3500 -247 3403 -537 
Q 3306 -828 3131 -993 
Q 2956 -1159 2664 -1253 
Q 2372 -1347 1925 -1347 
Q 1081 -1347 728 -1058 
Q 375 -769 375 -325 
Q 375 -281 378 -219 
z
M 1163 1728 
Q 1163 1200 1367 954 
Q 1572 709 1872 709 
Q 2194 709 2416 961 
Q 2638 1213 2638 1706 
Q 2638 2222 2425 2472 
Q 2213 2722 1888 2722 
Q 1572 2722 1367 2476 
Q 1163 2231 1163 1728 
z
" transform="scale(0.015625)"/>
       <path id="Arial-BoldMT-20" transform="scale(0.015625)"/>
       <path id="Arial-BoldMT-6f" d="M 256 1706 
Q 256 2144 472 2553 
Q 688 2963 1083 3178 
Q 1478 3394 1966 3394 
Q 2719 3394 3200 2905 
Q 3681 2416 3681 1669 
Q 3681 916 3195 420 
Q 2709 -75 1972 -75 
Q 1516 -75 1102 131 
Q 688 338 472 736 
Q 256 1134 256 1706 
z
M 1156 1659 
Q 1156 1166 1390 903 
Q 1625 641 1969 641 
Q 2313 641 2545 903 
Q 2778 1166 2778 1666 
Q 2778 2153 2545 2415 
Q 2313 2678 1969 2678 
Q 1625 2678 1390 2415 
Q 1156 2153 1156 1659 
z
" transform="scale(0.015625)"/>
       <path id="Arial-BoldMT-66" d="M 75 3319 
L 563 3319 
L 563 3569 
Q 563 3988 652 4194 
Q 741 4400 980 4529 
Q 1219 4659 1584 4659 
Q 1959 4659 2319 4547 
L 2200 3934 
Q 1991 3984 1797 3984 
Q 1606 3984 1523 3895 
Q 1441 3806 1441 3553 
L 1441 3319 
L 2097 3319 
L 2097 2628 
L 1441 2628 
L 1441 0 
L 563 0 
L 563 2628 
L 75 2628 
L 75 3319 
z
" transform="scale(0.015625)"/>
       <path id="Arial-BoldMT-64" d="M 3503 0 
L 2688 0 
L 2688 488 
Q 2484 203 2207 64 
Q 1931 -75 1650 -75 
Q 1078 -75 670 386 
Q 263 847 263 1672 
Q 263 2516 659 2955 
Q 1056 3394 1663 3394 
Q 2219 3394 2625 2931 
L 2625 4581 
L 3503 4581 
L 3503 0 
z
M 1159 1731 
Q 1159 1200 1306 963 
Q 1519 619 1900 619 
Q 2203 619 2415 876 
Q 2628 1134 2628 1647 
Q 2628 2219 2422 2470 
Q 2216 2722 1894 2722 
Q 1581 2722 1370 2473 
Q 1159 2225 1159 1731 
z
" transform="scale(0.015625)"/>
       <path id="Arial-BoldMT-75" d="M 2644 0 
L 2644 497 
Q 2463 231 2167 78 
Q 1872 -75 1544 -75 
Q 1209 -75 943 72 
Q 678 219 559 484 
Q 441 750 441 1219 
L 441 3319 
L 1319 3319 
L 1319 1794 
Q 1319 1094 1367 936 
Q 1416 778 1544 686 
Q 1672 594 1869 594 
Q 2094 594 2272 717 
Q 2450 841 2515 1023 
Q 2581 1206 2581 1919 
L 2581 3319 
L 3459 3319 
L 3459 0 
L 2644 0 
z
" transform="scale(0.015625)"/>
       <path id="Arial-BoldMT-73" d="M 150 947 
L 1031 1081 
Q 1088 825 1259 692 
Q 1431 559 1741 559 
Q 2081 559 2253 684 
Q 2369 772 2369 919 
Q 2369 1019 2306 1084 
Q 2241 1147 2013 1200 
Q 950 1434 666 1628 
Q 272 1897 272 2375 
Q 272 2806 612 3100 
Q 953 3394 1669 3394 
Q 2350 3394 2681 3172 
Q 3013 2950 3138 2516 
L 2309 2363 
Q 2256 2556 2107 2659 
Q 1959 2763 1684 2763 
Q 1338 2763 1188 2666 
Q 1088 2597 1088 2488 
Q 1088 2394 1175 2328 
Q 1294 2241 1995 2081 
Q 2697 1922 2975 1691 
Q 3250 1456 3250 1038 
Q 3250 581 2869 253 
Q 2488 -75 1741 -75 
Q 1063 -75 667 200 
Q 272 475 150 947 
z
" transform="scale(0.015625)"/>
       <path id="Arial-BoldMT-69" d="M 459 3769 
L 459 4581 
L 1338 4581 
L 1338 3769 
L 459 3769 
z
M 459 0 
L 459 3319 
L 1338 3319 
L 1338 0 
L 459 0 
z
" transform="scale(0.015625)"/>
      </defs>
      <use xlink:href="#Arial-BoldMT-50"/>
      <use xlink:href="#Arial-BoldMT-65" x="66.699219"/>
      <use xlink:href="#Arial-BoldMT-72" x="122.314453"/>
      <use xlink:href="#Arial-BoldMT-63" x="161.230469"/>
      <use xlink:href="#Arial-BoldMT-65" x="216.845703"/>
      <use xlink:href="#Arial-BoldMT-6e" x="272.460938"/>
      <use xlink:href="#Arial-BoldMT-74" x="333.544922"/>
      <use xlink:href="#Arial-BoldMT-61" x="366.845703"/>
      <use xlink:href="#Arial-BoldMT-67" x="422.460938"/>
      <use xlink:href="#Arial-BoldMT-65" x="483.544922"/>
      <use xlink:href="#Arial-BoldMT-20" x="539.160156"/>
      <use xlink:href="#Arial-BoldMT-6f" x="566.943359"/>
      <use xlink:href="#Arial-BoldMT-66" x="628.027344"/>
      <use xlink:href="#Arial-BoldMT-20" x="661.328125"/>
      <use xlink:href="#Arial-BoldMT-64" x="689.111328"/>
      <use xlink:href="#Arial-BoldMT-61" x="750.195312"/>
      <use xlink:href="#Arial-BoldMT-74" x="805.810547"/>
      <use xlink:href="#Arial-BoldMT-61" x="839.111328"/>
      <use xlink:href="#Arial-BoldMT-20" x="894.726562"/>
      <use xlink:href="#Arial-BoldMT-75" x="922.509766"/>
      <use xlink:href="#Arial-BoldMT-73" x="983.59375"/>
      <use xlink:href="#Arial-BoldMT-65" x="1039.208984"/>
      <use xlink:href="#Arial-BoldMT-64" x="1094.824219"/>
      <use xlink:href="#Arial-BoldMT-20" x="1155.908203"/>
      <use xlink:href="#Arial-BoldMT-66" x="1183.691406"/>
      <use xlink:href="#Arial-BoldMT-6f" x="1216.992188"/>
      <use xlink:href="#Arial-BoldMT-72" x="1278.076172"/>
      <use xlink:href="#Arial-BoldMT-20" x="1316.992188"/>
      <use xlink:href="#Arial-BoldMT-74" x="1344.775391"/>
      <use xlink:href="#Arial-BoldMT-72" x="1378.076172"/>
      <use xlink:href="#Arial-BoldMT-61" x="1416.992188"/>
      <use xlink:href="#Arial-BoldMT-69" x="1472.607422"/>
      <use xlink:href="#Arial-BoldMT-6e" x="1500.390625"/>
      <use xlink:href="#Arial-BoldMT-69" x="1561.474609"/>
      <use xlink:href="#Arial-BoldMT-6e" x="1589.257812"/>
      <use xlink:href="#Arial-BoldMT-67" x="1650.341797"/>
     </g>
    </g>
   </g>
   <g id="matplotlib.axis_2">
    <g id="ytick_1">
     <g id="line2d_10">
      <path d="M 555.2 735.859043 
L 1671.2 735.859043 
" clip-path="url(#p7e932016c6)" style="fill: none; stroke: #ffffff; stroke-width: 4; stroke-linecap: round"/>
     </g>
     <g id="text_11">
      <!-- 0.3 -->
      <g style="fill: #262626" transform="translate(520.4 743.016856) scale(0.2 -0.2)">
       <defs>
        <path id="Arial-BoldMT-2e" d="M 459 0 
L 459 878 
L 1338 878 
L 1338 0 
L 459 0 
z
" transform="scale(0.015625)"/>
       </defs>
       <use xlink:href="#Arial-BoldMT-30"/>
       <use xlink:href="#Arial-BoldMT-2e" x="55.615234"/>
       <use xlink:href="#Arial-BoldMT-33" x="83.398438"/>
      </g>
     </g>
    </g>
    <g id="ytick_2">
     <g id="line2d_11">
      <path d="M 555.2 569.367332 
L 1671.2 569.367332 
" clip-path="url(#p7e932016c6)" style="fill: none; stroke: #ffffff; stroke-width: 4; stroke-linecap: round"/>
     </g>
     <g id="text_12">
      <!-- 0.4 -->
      <g style="fill: #262626" transform="translate(520.4 576.525145) scale(0.2 -0.2)">
       <use xlink:href="#Arial-BoldMT-30"/>
       <use xlink:href="#Arial-BoldMT-2e" x="55.615234"/>
       <use xlink:href="#Arial-BoldMT-34" x="83.398438"/>
      </g>
     </g>
    </g>
    <g id="ytick_3">
     <g id="line2d_12">
      <path d="M 555.2 402.875621 
L 1671.2 402.875621 
" clip-path="url(#p7e932016c6)" style="fill: none; stroke: #ffffff; stroke-width: 4; stroke-linecap: round"/>
     </g>
     <g id="text_13">
      <!-- 0.5 -->
      <g style="fill: #262626" transform="translate(520.4 410.033433) scale(0.2 -0.2)">
       <use xlink:href="#Arial-BoldMT-30"/>
       <use xlink:href="#Arial-BoldMT-2e" x="55.615234"/>
       <use xlink:href="#Arial-BoldMT-35" x="83.398438"/>
      </g>
     </g>
    </g>
    <g id="ytick_4">
     <g id="line2d_13">
      <path d="M 555.2 236.38391 
L 1671.2 236.38391 
" clip-path="url(#p7e932016c6)" style="fill: none; stroke: #ffffff; stroke-width: 4; stroke-linecap: round"/>
     </g>
     <g id="text_14">
      <!-- 0.6 -->
      <g style="fill: #262626" transform="translate(520.4 243.541722) scale(0.2 -0.2)">
       <use xlink:href="#Arial-BoldMT-30"/>
       <use xlink:href="#Arial-BoldMT-2e" x="55.615234"/>
       <use xlink:href="#Arial-BoldMT-36" x="83.398438"/>
      </g>
     </g>
    </g>
    <g id="ytick_5">
     <g id="line2d_14">
      <path d="M 555.2 69.892198 
L 1671.2 69.892198 
" clip-path="url(#p7e932016c6)" style="fill: none; stroke: #ffffff; stroke-width: 4; stroke-linecap: round"/>
     </g>
     <g id="text_15">
      <!-- 0.7 -->
      <g style="fill: #262626" transform="translate(520.4 77.050011) scale(0.2 -0.2)">
       <use xlink:href="#Arial-BoldMT-30"/>
       <use xlink:href="#Arial-BoldMT-2e" x="55.615234"/>
       <use xlink:href="#Arial-BoldMT-37" x="83.398438"/>
      </g>
     </g>
    </g>
    <g id="text_16">
     <!-- Accuracy (%) -->
     <g style="fill: #262626" transform="translate(510.085938 549.086719) rotate(-90) scale(0.3 -0.3)">
      <defs>
       <path id="Arial-BoldMT-41" d="M 4597 0 
L 3591 0 
L 3191 1041 
L 1359 1041 
L 981 0 
L 0 0 
L 1784 4581 
L 2763 4581 
L 4597 0 
z
M 2894 1813 
L 2263 3513 
L 1644 1813 
L 2894 1813 
z
" transform="scale(0.015625)"/>
       <path id="Arial-BoldMT-79" d="M 44 3319 
L 978 3319 
L 1772 963 
L 2547 3319 
L 3456 3319 
L 2284 125 
L 2075 -453 
Q 1959 -744 1854 -897 
Q 1750 -1050 1614 -1145 
Q 1478 -1241 1279 -1294 
Q 1081 -1347 831 -1347 
Q 578 -1347 334 -1294 
L 256 -606 
Q 463 -647 628 -647 
Q 934 -647 1081 -467 
Q 1228 -288 1306 -9 
L 44 3319 
z
" transform="scale(0.015625)"/>
       <path id="Arial-BoldMT-28" d="M 1916 -1347 
L 1313 -1347 
Q 834 -625 584 153 
Q 334 931 334 1659 
Q 334 2563 644 3369 
Q 913 4069 1325 4659 
L 1925 4659 
Q 1497 3713 1336 3048 
Q 1175 2384 1175 1641 
Q 1175 1128 1270 590 
Q 1366 53 1531 -431 
Q 1641 -750 1916 -1347 
z
" transform="scale(0.015625)"/>
       <path id="Arial-BoldMT-29" d="M 216 -1347 
Q 475 -791 581 -494 
Q 688 -197 778 190 
Q 869 578 912 926 
Q 956 1275 956 1641 
Q 956 2384 797 3048 
Q 638 3713 209 4659 
L 806 4659 
Q 1278 3988 1539 3234 
Q 1800 2481 1800 1706 
Q 1800 1053 1594 306 
Q 1359 -531 822 -1347 
L 216 -1347 
z
" transform="scale(0.015625)"/>
      </defs>
      <use xlink:href="#Arial-BoldMT-41"/>
      <use xlink:href="#Arial-BoldMT-63" x="72.216797"/>
      <use xlink:href="#Arial-BoldMT-63" x="127.832031"/>
      <use xlink:href="#Arial-BoldMT-75" x="183.447266"/>
      <use xlink:href="#Arial-BoldMT-72" x="244.53125"/>
      <use xlink:href="#Arial-BoldMT-61" x="283.447266"/>
      <use xlink:href="#Arial-BoldMT-63" x="339.0625"/>
      <use xlink:href="#Arial-BoldMT-79" x="394.677734"/>
      <use xlink:href="#Arial-BoldMT-20" x="450.292969"/>
      <use xlink:href="#Arial-BoldMT-28" x="478.076172"/>
      <use xlink:href="#Arial-BoldMT-25" x="511.376953"/>
      <use xlink:href="#Arial-BoldMT-29" x="600.292969"/>
     </g>
    </g>
   </g>
   <g id="line2d_15">
    <path d="M 605.927273 567.605724 
L 732.745455 548.638761 
L 859.563636 529.842769 
L 986.381818 566.027455 
L 1113.2 535.889916 
L 1240.018182 497.408476 
L 1366.836364 507.368637 
L 1493.654545 495.612995 
L 1620.472727 410.354302 
" clip-path="url(#p7e932016c6)" style="fill: none; stroke: #1f77b4; stroke-width: 6; stroke-linecap: round"/>
    <defs>
     <path id="m3c66ac03a5" d="M -7.5 7.5 
L 7.5 7.5 
L 7.5 -7.5 
L -7.5 -7.5 
z
" style="stroke: #1f77b4; stroke-linejoin: miter"/>
    </defs>
    <g clip-path="url(#p7e932016c6)">
     <use xlink:href="#m3c66ac03a5" x="605.927273" y="567.605724" style="fill: #1f77b4; stroke: #1f77b4; stroke-linejoin: miter"/>
     <use xlink:href="#m3c66ac03a5" x="732.745455" y="548.638761" style="fill: #1f77b4; stroke: #1f77b4; stroke-linejoin: miter"/>
     <use xlink:href="#m3c66ac03a5" x="859.563636" y="529.842769" style="fill: #1f77b4; stroke: #1f77b4; stroke-linejoin: miter"/>
     <use xlink:href="#m3c66ac03a5" x="986.381818" y="566.027455" style="fill: #1f77b4; stroke: #1f77b4; stroke-linejoin: miter"/>
     <use xlink:href="#m3c66ac03a5" x="1113.2" y="535.889916" style="fill: #1f77b4; stroke: #1f77b4; stroke-linejoin: miter"/>
     <use xlink:href="#m3c66ac03a5" x="1240.018182" y="497.408476" style="fill: #1f77b4; stroke: #1f77b4; stroke-linejoin: miter"/>
     <use xlink:href="#m3c66ac03a5" x="1366.836364" y="507.368637" style="fill: #1f77b4; stroke: #1f77b4; stroke-linejoin: miter"/>
     <use xlink:href="#m3c66ac03a5" x="1493.654545" y="495.612995" style="fill: #1f77b4; stroke: #1f77b4; stroke-linejoin: miter"/>
     <use xlink:href="#m3c66ac03a5" x="1620.472727" y="410.354302" style="fill: #1f77b4; stroke: #1f77b4; stroke-linejoin: miter"/>
    </g>
   </g>
   <g id="line2d_16">
    <path d="M 605.927273 353.209081 
L 732.745455 310.943695 
L 859.563636 290.710546 
L 986.381818 258.608144 
L 1113.2 228.8316 
L 1240.018182 219.617924 
L 1366.836364 192.219907 
L 1493.654545 153.904369 
L 1620.472727 76.052344 
" clip-path="url(#p7e932016c6)" style="fill: none; stroke: #ff7f0e; stroke-width: 6; stroke-linecap: round"/>
    <defs>
     <path id="m43e7e2826c" d="M 0 7.5 
C 1.989023 7.5 3.896849 6.709753 5.303301 5.303301 
C 6.709753 3.896849 7.5 1.989023 7.5 0 
C 7.5 -1.989023 6.709753 -3.896849 5.303301 -5.303301 
C 3.896849 -6.709753 1.989023 -7.5 0 -7.5 
C -1.989023 -7.5 -3.896849 -6.709753 -5.303301 -5.303301 
C -6.709753 -3.896849 -7.5 -1.989023 -7.5 0 
C -7.5 1.989023 -6.709753 3.896849 -5.303301 5.303301 
C -3.896849 6.709753 -1.989023 7.5 0 7.5 
z
" style="stroke: #ff7f0e"/>
    </defs>
    <g clip-path="url(#p7e932016c6)">
     <use xlink:href="#m43e7e2826c" x="605.927273" y="353.209081" style="fill: #ff7f0e; stroke: #ff7f0e"/>
     <use xlink:href="#m43e7e2826c" x="732.745455" y="310.943695" style="fill: #ff7f0e; stroke: #ff7f0e"/>
     <use xlink:href="#m43e7e2826c" x="859.563636" y="290.710546" style="fill: #ff7f0e; stroke: #ff7f0e"/>
     <use xlink:href="#m43e7e2826c" x="986.381818" y="258.608144" style="fill: #ff7f0e; stroke: #ff7f0e"/>
     <use xlink:href="#m43e7e2826c" x="1113.2" y="228.8316" style="fill: #ff7f0e; stroke: #ff7f0e"/>
     <use xlink:href="#m43e7e2826c" x="1240.018182" y="219.617924" style="fill: #ff7f0e; stroke: #ff7f0e"/>
     <use xlink:href="#m43e7e2826c" x="1366.836364" y="192.219907" style="fill: #ff7f0e; stroke: #ff7f0e"/>
     <use xlink:href="#m43e7e2826c" x="1493.654545" y="153.904369" style="fill: #ff7f0e; stroke: #ff7f0e"/>
     <use xlink:href="#m43e7e2826c" x="1620.472727" y="76.052344" style="fill: #ff7f0e; stroke: #ff7f0e"/>
    </g>
   </g>
   <g id="line2d_17">
    <path d="M 605.927273 354.221977 
L 732.745455 343.361589 
L 859.563636 334.10689 
L 986.381818 339.600202 
L 1113.2 335.509614 
L 1240.018182 320.530353 
L 1366.836364 327.311257 
L 1493.654545 298.672573 
L 1620.472727 267.819593 
" clip-path="url(#p7e932016c6)" style="fill: none; stroke: #2ca02c; stroke-width: 6; stroke-linecap: round"/>
    <defs>
     <path id="m737f083872" d="M -7.5 0 
L 7.5 0 
M 0 7.5 
L 0 -7.5 
" style="stroke: #2ca02c"/>
    </defs>
    <g clip-path="url(#p7e932016c6)">
     <use xlink:href="#m737f083872" x="605.927273" y="354.221977" style="fill: #2ca02c; stroke: #2ca02c"/>
     <use xlink:href="#m737f083872" x="732.745455" y="343.361589" style="fill: #2ca02c; stroke: #2ca02c"/>
     <use xlink:href="#m737f083872" x="859.563636" y="334.10689" style="fill: #2ca02c; stroke: #2ca02c"/>
     <use xlink:href="#m737f083872" x="986.381818" y="339.600202" style="fill: #2ca02c; stroke: #2ca02c"/>
     <use xlink:href="#m737f083872" x="1113.2" y="335.509614" style="fill: #2ca02c; stroke: #2ca02c"/>
     <use xlink:href="#m737f083872" x="1240.018182" y="320.530353" style="fill: #2ca02c; stroke: #2ca02c"/>
     <use xlink:href="#m737f083872" x="1366.836364" y="327.311257" style="fill: #2ca02c; stroke: #2ca02c"/>
     <use xlink:href="#m737f083872" x="1493.654545" y="298.672573" style="fill: #2ca02c; stroke: #2ca02c"/>
     <use xlink:href="#m737f083872" x="1620.472727" y="267.819593" style="fill: #2ca02c; stroke: #2ca02c"/>
    </g>
   </g>
   <g id="line2d_18">
    <path d="M 605.927273 777.623428 
L 732.745455 751.792417 
L 859.563636 698.82795 
L 986.381818 742.941896 
L 1113.2 703.785855 
L 1240.018182 686.393673 
L 1366.836364 671.588715 
L 1493.654545 697.081697 
L 1620.472727 631.202824 
" clip-path="url(#p7e932016c6)" style="fill: none; stroke: #d62728; stroke-width: 6; stroke-linecap: round"/>
    <defs>
     <path id="m6bd7a32a5f" d="M -3.75 -6.495191 
L -7.5 -0 
L -3.75 6.495191 
L 3.75 6.495191 
L 7.5 0 
L 3.75 -6.495191 
z
" style="stroke: #d62728; stroke-linejoin: miter"/>
    </defs>
    <g clip-path="url(#p7e932016c6)">
     <use xlink:href="#m6bd7a32a5f" x="605.927273" y="777.623428" style="fill: #d62728; stroke: #d62728; stroke-linejoin: miter"/>
     <use xlink:href="#m6bd7a32a5f" x="732.745455" y="751.792417" style="fill: #d62728; stroke: #d62728; stroke-linejoin: miter"/>
     <use xlink:href="#m6bd7a32a5f" x="859.563636" y="698.82795" style="fill: #d62728; stroke: #d62728; stroke-linejoin: miter"/>
     <use xlink:href="#m6bd7a32a5f" x="986.381818" y="742.941896" style="fill: #d62728; stroke: #d62728; stroke-linejoin: miter"/>
     <use xlink:href="#m6bd7a32a5f" x="1113.2" y="703.785855" style="fill: #d62728; stroke: #d62728; stroke-linejoin: miter"/>
     <use xlink:href="#m6bd7a32a5f" x="1240.018182" y="686.393673" style="fill: #d62728; stroke: #d62728; stroke-linejoin: miter"/>
     <use xlink:href="#m6bd7a32a5f" x="1366.836364" y="671.588715" style="fill: #d62728; stroke: #d62728; stroke-linejoin: miter"/>
     <use xlink:href="#m6bd7a32a5f" x="1493.654545" y="697.081697" style="fill: #d62728; stroke: #d62728; stroke-linejoin: miter"/>
     <use xlink:href="#m6bd7a32a5f" x="1620.472727" y="631.202824" style="fill: #d62728; stroke: #d62728; stroke-linejoin: miter"/>
    </g>
   </g>
   <g id="line2d_19">
    <path d="M 605.927273 423.196274 
L 732.745455 424.619302 
L 859.563636 422.029668 
L 986.381818 436.509235 
L 1113.2 430.327242 
L 1240.018182 420.916586 
L 1366.836364 428.170417 
L 1493.654545 409.910282 
L 1620.472727 389.331075 
" clip-path="url(#p7e932016c6)" style="fill: none; stroke: #9467bd; stroke-width: 6; stroke-linecap: round"/>
    <defs>
     <path id="mdf969b57dd" d="M 0 -7.5 
L -1.683855 -2.317627 
L -7.132924 -2.317627 
L -2.724534 0.885255 
L -4.408389 6.067627 
L -0 2.864745 
L 4.408389 6.067627 
L 2.724534 0.885255 
L 7.132924 -2.317627 
L 1.683855 -2.317627 
z
" style="stroke: #9467bd; stroke-linejoin: bevel"/>
    </defs>
    <g clip-path="url(#p7e932016c6)">
     <use xlink:href="#mdf969b57dd" x="605.927273" y="423.196274" style="fill: #9467bd; stroke: #9467bd; stroke-linejoin: bevel"/>
     <use xlink:href="#mdf969b57dd" x="732.745455" y="424.619302" style="fill: #9467bd; stroke: #9467bd; stroke-linejoin: bevel"/>
     <use xlink:href="#mdf969b57dd" x="859.563636" y="422.029668" style="fill: #9467bd; stroke: #9467bd; stroke-linejoin: bevel"/>
     <use xlink:href="#mdf969b57dd" x="986.381818" y="436.509235" style="fill: #9467bd; stroke: #9467bd; stroke-linejoin: bevel"/>
     <use xlink:href="#mdf969b57dd" x="1113.2" y="430.327242" style="fill: #9467bd; stroke: #9467bd; stroke-linejoin: bevel"/>
     <use xlink:href="#mdf969b57dd" x="1240.018182" y="420.916586" style="fill: #9467bd; stroke: #9467bd; stroke-linejoin: bevel"/>
     <use xlink:href="#mdf969b57dd" x="1366.836364" y="428.170417" style="fill: #9467bd; stroke: #9467bd; stroke-linejoin: bevel"/>
     <use xlink:href="#mdf969b57dd" x="1493.654545" y="409.910282" style="fill: #9467bd; stroke: #9467bd; stroke-linejoin: bevel"/>
     <use xlink:href="#mdf969b57dd" x="1620.472727" y="389.331075" style="fill: #9467bd; stroke: #9467bd; stroke-linejoin: bevel"/>
    </g>
   </g>
   <g id="line2d_20">
    <path d="M 605.927273 821.058332 
L 732.745455 818.104723 
L 859.563636 821.66844 
L 986.381818 820.113627 
L 1113.2 815.773457 
L 1240.018182 821.172037 
L 1366.836364 815.048336 
L 1493.654545 820.556461 
L 1620.472727 803.279973 
" clip-path="url(#p7e932016c6)" style="fill: none; stroke: #8c564b; stroke-width: 6; stroke-linecap: round"/>
    <defs>
     <path id="md0697a32af" d="M -0 10.606602 
L 10.606602 0 
L 0 -10.606602 
L -10.606602 -0 
z
" style="stroke: #8c564b; stroke-linejoin: miter"/>
    </defs>
    <g clip-path="url(#p7e932016c6)">
     <use xlink:href="#md0697a32af" x="605.927273" y="821.058332" style="fill: #8c564b; stroke: #8c564b; stroke-linejoin: miter"/>
     <use xlink:href="#md0697a32af" x="732.745455" y="818.104723" style="fill: #8c564b; stroke: #8c564b; stroke-linejoin: miter"/>
     <use xlink:href="#md0697a32af" x="859.563636" y="821.66844" style="fill: #8c564b; stroke: #8c564b; stroke-linejoin: miter"/>
     <use xlink:href="#md0697a32af" x="986.381818" y="820.113627" style="fill: #8c564b; stroke: #8c564b; stroke-linejoin: miter"/>
     <use xlink:href="#md0697a32af" x="1113.2" y="815.773457" style="fill: #8c564b; stroke: #8c564b; stroke-linejoin: miter"/>
     <use xlink:href="#md0697a32af" x="1240.018182" y="821.172037" style="fill: #8c564b; stroke: #8c564b; stroke-linejoin: miter"/>
     <use xlink:href="#md0697a32af" x="1366.836364" y="815.048336" style="fill: #8c564b; stroke: #8c564b; stroke-linejoin: miter"/>
     <use xlink:href="#md0697a32af" x="1493.654545" y="820.556461" style="fill: #8c564b; stroke: #8c564b; stroke-linejoin: miter"/>
     <use xlink:href="#md0697a32af" x="1620.472727" y="803.279973" style="fill: #8c564b; stroke: #8c564b; stroke-linejoin: miter"/>
    </g>
   </g>
   <g id="line2d_21">
    <path d="M 605.927273 817.556819 
L 732.745455 827.264239 
L 859.563636 825.25035 
L 986.381818 821.337761 
L 1113.2 812.105951 
L 1240.018182 831.253433 
L 1366.836364 813.397973 
L 1493.654545 832.052344 
L 1620.472727 784.004931 
" clip-path="url(#p7e932016c6)" style="fill: none; stroke: #e377c2; stroke-width: 6; stroke-linecap: round"/>
    <defs>
     <path id="ma9fe8f9c2c" d="M 0 -7.5 
L -7.5 7.5 
L 7.5 7.5 
z
" style="stroke: #e377c2; stroke-linejoin: miter"/>
    </defs>
    <g clip-path="url(#p7e932016c6)">
     <use xlink:href="#ma9fe8f9c2c" x="605.927273" y="817.556819" style="fill: #e377c2; stroke: #e377c2; stroke-linejoin: miter"/>
     <use xlink:href="#ma9fe8f9c2c" x="732.745455" y="827.264239" style="fill: #e377c2; stroke: #e377c2; stroke-linejoin: miter"/>
     <use xlink:href="#ma9fe8f9c2c" x="859.563636" y="825.25035" style="fill: #e377c2; stroke: #e377c2; stroke-linejoin: miter"/>
     <use xlink:href="#ma9fe8f9c2c" x="986.381818" y="821.337761" style="fill: #e377c2; stroke: #e377c2; stroke-linejoin: miter"/>
     <use xlink:href="#ma9fe8f9c2c" x="1113.2" y="812.105951" style="fill: #e377c2; stroke: #e377c2; stroke-linejoin: miter"/>
     <use xlink:href="#ma9fe8f9c2c" x="1240.018182" y="831.253433" style="fill: #e377c2; stroke: #e377c2; stroke-linejoin: miter"/>
     <use xlink:href="#ma9fe8f9c2c" x="1366.836364" y="813.397973" style="fill: #e377c2; stroke: #e377c2; stroke-linejoin: miter"/>
     <use xlink:href="#ma9fe8f9c2c" x="1493.654545" y="832.052344" style="fill: #e377c2; stroke: #e377c2; stroke-linejoin: miter"/>
     <use xlink:href="#ma9fe8f9c2c" x="1620.472727" y="784.004931" style="fill: #e377c2; stroke: #e377c2; stroke-linejoin: miter"/>
    </g>
   </g>
   <g id="line2d_22">
    <path d="M 605.927273 380.098932 
L 732.745455 372.407931 
L 859.563636 316.363292 
L 986.381818 331.800351 
L 1113.2 330.424081 
L 1240.018182 301.485198 
L 1366.836364 295.31697 
L 1493.654545 242.850594 
L 1620.472727 238.154903 
" clip-path="url(#p7e932016c6)" style="fill: none; stroke: #7f7f7f; stroke-width: 6; stroke-linecap: round"/>
    <defs>
     <path id="md225b70f9a" d="M -7.5 7.5 
L 7.5 -7.5 
M -7.5 -7.5 
L 7.5 7.5 
" style="stroke: #7f7f7f"/>
    </defs>
    <g clip-path="url(#p7e932016c6)">
     <use xlink:href="#md225b70f9a" x="605.927273" y="380.098932" style="fill: #7f7f7f; stroke: #7f7f7f"/>
     <use xlink:href="#md225b70f9a" x="732.745455" y="372.407931" style="fill: #7f7f7f; stroke: #7f7f7f"/>
     <use xlink:href="#md225b70f9a" x="859.563636" y="316.363292" style="fill: #7f7f7f; stroke: #7f7f7f"/>
     <use xlink:href="#md225b70f9a" x="986.381818" y="331.800351" style="fill: #7f7f7f; stroke: #7f7f7f"/>
     <use xlink:href="#md225b70f9a" x="1113.2" y="330.424081" style="fill: #7f7f7f; stroke: #7f7f7f"/>
     <use xlink:href="#md225b70f9a" x="1240.018182" y="301.485198" style="fill: #7f7f7f; stroke: #7f7f7f"/>
     <use xlink:href="#md225b70f9a" x="1366.836364" y="295.31697" style="fill: #7f7f7f; stroke: #7f7f7f"/>
     <use xlink:href="#md225b70f9a" x="1493.654545" y="242.850594" style="fill: #7f7f7f; stroke: #7f7f7f"/>
     <use xlink:href="#md225b70f9a" x="1620.472727" y="238.154903" style="fill: #7f7f7f; stroke: #7f7f7f"/>
    </g>
   </g>
   <g id="line2d_23">
    <path d="M 605.927273 349.797403 
L 732.745455 307.216113 
L 859.563636 274.241199 
L 986.381818 264.051942 
L 1113.2 266.992171 
L 1240.018182 226.043836 
L 1366.836364 188.561229 
L 1493.654545 158.449702 
L 1620.472727 78.800878 
" clip-path="url(#p7e932016c6)" style="fill: none; stroke: #bcbd22; stroke-width: 6; stroke-linecap: round"/>
    <defs>
     <path id="m57c0f57307" d="M 0 -7.5 
L -7.132924 -2.317627 
L -4.408389 6.067627 
L 4.408389 6.067627 
L 7.132924 -2.317627 
z
" style="stroke: #bcbd22; stroke-linejoin: miter"/>
    </defs>
    <g clip-path="url(#p7e932016c6)">
     <use xlink:href="#m57c0f57307" x="605.927273" y="349.797403" style="fill: #bcbd22; stroke: #bcbd22; stroke-linejoin: miter"/>
     <use xlink:href="#m57c0f57307" x="732.745455" y="307.216113" style="fill: #bcbd22; stroke: #bcbd22; stroke-linejoin: miter"/>
     <use xlink:href="#m57c0f57307" x="859.563636" y="274.241199" style="fill: #bcbd22; stroke: #bcbd22; stroke-linejoin: miter"/>
     <use xlink:href="#m57c0f57307" x="986.381818" y="264.051942" style="fill: #bcbd22; stroke: #bcbd22; stroke-linejoin: miter"/>
     <use xlink:href="#m57c0f57307" x="1113.2" y="266.992171" style="fill: #bcbd22; stroke: #bcbd22; stroke-linejoin: miter"/>
     <use xlink:href="#m57c0f57307" x="1240.018182" y="226.043836" style="fill: #bcbd22; stroke: #bcbd22; stroke-linejoin: miter"/>
     <use xlink:href="#m57c0f57307" x="1366.836364" y="188.561229" style="fill: #bcbd22; stroke: #bcbd22; stroke-linejoin: miter"/>
     <use xlink:href="#m57c0f57307" x="1493.654545" y="158.449702" style="fill: #bcbd22; stroke: #bcbd22; stroke-linejoin: miter"/>
     <use xlink:href="#m57c0f57307" x="1620.472727" y="78.800878" style="fill: #bcbd22; stroke: #bcbd22; stroke-linejoin: miter"/>
    </g>
   </g>
   <g id="line2d_24">
    <path d="M 605.927273 377.888044 
L 732.745455 342.778714 
L 859.563636 352.160013 
L 986.381818 349.526527 
L 1113.2 330.191416 
L 1240.018182 304.929315 
L 1366.836364 299.037732 
L 1493.654545 268.585397 
L 1620.472727 183.11682 
" clip-path="url(#p7e932016c6)" style="fill: none; stroke: #17becf; stroke-width: 6; stroke-linecap: round"/>
    <defs>
     <path id="m3b1f3de61d" d="M 0 7.5 
L 0 -7.5 
" style="stroke: #17becf"/>
    </defs>
    <g clip-path="url(#p7e932016c6)">
     <use xlink:href="#m3b1f3de61d" x="605.927273" y="377.888044" style="fill: #17becf; stroke: #17becf"/>
     <use xlink:href="#m3b1f3de61d" x="732.745455" y="342.778714" style="fill: #17becf; stroke: #17becf"/>
     <use xlink:href="#m3b1f3de61d" x="859.563636" y="352.160013" style="fill: #17becf; stroke: #17becf"/>
     <use xlink:href="#m3b1f3de61d" x="986.381818" y="349.526527" style="fill: #17becf; stroke: #17becf"/>
     <use xlink:href="#m3b1f3de61d" x="1113.2" y="330.191416" style="fill: #17becf; stroke: #17becf"/>
     <use xlink:href="#m3b1f3de61d" x="1240.018182" y="304.929315" style="fill: #17becf; stroke: #17becf"/>
     <use xlink:href="#m3b1f3de61d" x="1366.836364" y="299.037732" style="fill: #17becf; stroke: #17becf"/>
     <use xlink:href="#m3b1f3de61d" x="1493.654545" y="268.585397" style="fill: #17becf; stroke: #17becf"/>
     <use xlink:href="#m3b1f3de61d" x="1620.472727" y="183.11682" style="fill: #17becf; stroke: #17becf"/>
    </g>
   </g>
   <g id="patch_3">
    <path d="M 555.2 869.852344 
L 555.2 38.252344 
" style="fill: none; stroke: #ffffff; stroke-width: 0.8; stroke-linejoin: miter; stroke-linecap: square"/>
   </g>
   <g id="patch_4">
    <path d="M 1671.2 869.852344 
L 1671.2 38.252344 
" style="fill: none; stroke: #ffffff; stroke-width: 0.8; stroke-linejoin: miter; stroke-linecap: square"/>
   </g>
   <g id="patch_5">
    <path d="M 555.2 869.852344 
L 1671.2 869.852344 
" style="fill: none; stroke: #ffffff; stroke-width: 0.8; stroke-linejoin: miter; stroke-linecap: square"/>
   </g>
   <g id="patch_6">
    <path d="M 555.2 38.252344 
L 1671.2 38.252344 
" style="fill: none; stroke: #ffffff; stroke-width: 0.8; stroke-linejoin: miter; stroke-linecap: square"/>
   </g>
   <g id="text_17">
    <!-- Movies - Focused -->
    <g style="fill: #262626" transform="translate(966.377734 32.252344) scale(0.35 -0.35)">
     <defs>
      <path id="Arial-BoldMT-4d" d="M 453 0 
L 453 4581 
L 1838 4581 
L 2669 1456 
L 3491 4581 
L 4878 4581 
L 4878 0 
L 4019 0 
L 4019 3606 
L 3109 0 
L 2219 0 
L 1313 3606 
L 1313 0 
L 453 0 
z
" transform="scale(0.015625)"/>
      <path id="Arial-BoldMT-76" d="M 1372 0 
L 34 3319 
L 956 3319 
L 1581 1625 
L 1763 1059 
Q 1834 1275 1853 1344 
Q 1897 1484 1947 1625 
L 2578 3319 
L 3481 3319 
L 2163 0 
L 1372 0 
z
" transform="scale(0.015625)"/>
      <path id="Arial-BoldMT-2d" d="M 359 1222 
L 359 2100 
L 2084 2100 
L 2084 1222 
L 359 1222 
z
" transform="scale(0.015625)"/>
      <path id="Arial-BoldMT-46" d="M 472 0 
L 472 4581 
L 3613 4581 
L 3613 3806 
L 1397 3806 
L 1397 2722 
L 3309 2722 
L 3309 1947 
L 1397 1947 
L 1397 0 
L 472 0 
z
" transform="scale(0.015625)"/>
     </defs>
     <use xlink:href="#Arial-BoldMT-4d"/>
     <use xlink:href="#Arial-BoldMT-6f" x="83.300781"/>
     <use xlink:href="#Arial-BoldMT-76" x="144.384766"/>
     <use xlink:href="#Arial-BoldMT-69" x="200"/>
     <use xlink:href="#Arial-BoldMT-65" x="227.783203"/>
     <use xlink:href="#Arial-BoldMT-73" x="283.398438"/>
     <use xlink:href="#Arial-BoldMT-20" x="339.013672"/>
     <use xlink:href="#Arial-BoldMT-2d" x="366.796875"/>
     <use xlink:href="#Arial-BoldMT-20" x="400.097656"/>
     <use xlink:href="#Arial-BoldMT-46" x="427.880859"/>
     <use xlink:href="#Arial-BoldMT-6f" x="488.964844"/>
     <use xlink:href="#Arial-BoldMT-63" x="550.048828"/>
     <use xlink:href="#Arial-BoldMT-75" x="605.664062"/>
     <use xlink:href="#Arial-BoldMT-73" x="666.748047"/>
     <use xlink:href="#Arial-BoldMT-65" x="722.363281"/>
     <use xlink:href="#Arial-BoldMT-64" x="777.978516"/>
    </g>
   </g>
   <g id="legend_1">
    <g id="patch_7">
     <path d="M 13.2 1082.953594 
L 1721.440625 1082.953594 
Q 1725.440625 1082.953594 1725.440625 1078.953594 
L 1725.440625 1052.172344 
Q 1725.440625 1048.172344 1721.440625 1048.172344 
L 13.2 1048.172344 
Q 9.2 1048.172344 9.2 1052.172344 
L 9.2 1078.953594 
Q 9.2 1082.953594 13.2 1082.953594 
z
" style="fill: #464649; opacity: 0.5; stroke: #464649; stroke-width: 4; stroke-linejoin: miter"/>
    </g>
    <g id="patch_8">
     <path d="M 11.2 1080.953594 
L 1719.440625 1080.953594 
Q 1723.440625 1080.953594 1723.440625 1076.953594 
L 1723.440625 1050.172344 
Q 1723.440625 1046.172344 1719.440625 1046.172344 
L 11.2 1046.172344 
Q 7.2 1046.172344 7.2 1050.172344 
L 7.2 1076.953594 
Q 7.2 1080.953594 11.2 1080.953594 
z
" style="fill: #eaeaf2; stroke: #cccccc; stroke-width: 4; stroke-linejoin: miter"/>
    </g>
    <g id="line2d_25">
     <path d="M 15.2 1061.744219 
L 35.2 1061.744219 
L 55.2 1061.744219 
" style="fill: none; stroke: #1f77b4; stroke-width: 6; stroke-linecap: round"/>
     <g>
      <use xlink:href="#m3c66ac03a5" x="35.2" y="1061.744219" style="fill: #1f77b4; stroke: #1f77b4; stroke-linejoin: miter"/>
     </g>
    </g>
    <g id="text_18">
     <!-- Greedy -->
     <g style="fill: #262626" transform="translate(71.2 1068.744219) scale(0.2 -0.2)">
      <defs>
       <path id="ArialMT-47" d="M 2638 1797 
L 2638 2334 
L 4578 2338 
L 4578 638 
Q 4131 281 3656 101 
Q 3181 -78 2681 -78 
Q 2006 -78 1454 211 
Q 903 500 622 1047 
Q 341 1594 341 2269 
Q 341 2938 620 3517 
Q 900 4097 1425 4378 
Q 1950 4659 2634 4659 
Q 3131 4659 3532 4498 
Q 3934 4338 4162 4050 
Q 4391 3763 4509 3300 
L 3963 3150 
Q 3859 3500 3706 3700 
Q 3553 3900 3268 4020 
Q 2984 4141 2638 4141 
Q 2222 4141 1919 4014 
Q 1616 3888 1430 3681 
Q 1244 3475 1141 3228 
Q 966 2803 966 2306 
Q 966 1694 1177 1281 
Q 1388 869 1791 669 
Q 2194 469 2647 469 
Q 3041 469 3416 620 
Q 3791 772 3984 944 
L 3984 1797 
L 2638 1797 
z
" transform="scale(0.015625)"/>
       <path id="ArialMT-72" d="M 416 0 
L 416 3319 
L 922 3319 
L 922 2816 
Q 1116 3169 1280 3281 
Q 1444 3394 1641 3394 
Q 1925 3394 2219 3213 
L 2025 2691 
Q 1819 2813 1613 2813 
Q 1428 2813 1281 2702 
Q 1134 2591 1072 2394 
Q 978 2094 978 1738 
L 978 0 
L 416 0 
z
" transform="scale(0.015625)"/>
       <path id="ArialMT-65" d="M 2694 1069 
L 3275 997 
Q 3138 488 2766 206 
Q 2394 -75 1816 -75 
Q 1088 -75 661 373 
Q 234 822 234 1631 
Q 234 2469 665 2931 
Q 1097 3394 1784 3394 
Q 2450 3394 2872 2941 
Q 3294 2488 3294 1666 
Q 3294 1616 3291 1516 
L 816 1516 
Q 847 969 1125 678 
Q 1403 388 1819 388 
Q 2128 388 2347 550 
Q 2566 713 2694 1069 
z
M 847 1978 
L 2700 1978 
Q 2663 2397 2488 2606 
Q 2219 2931 1791 2931 
Q 1403 2931 1139 2672 
Q 875 2413 847 1978 
z
" transform="scale(0.015625)"/>
       <path id="ArialMT-64" d="M 2575 0 
L 2575 419 
Q 2259 -75 1647 -75 
Q 1250 -75 917 144 
Q 584 363 401 755 
Q 219 1147 219 1656 
Q 219 2153 384 2558 
Q 550 2963 881 3178 
Q 1213 3394 1622 3394 
Q 1922 3394 2156 3267 
Q 2391 3141 2538 2938 
L 2538 4581 
L 3097 4581 
L 3097 0 
L 2575 0 
z
M 797 1656 
Q 797 1019 1065 703 
Q 1334 388 1700 388 
Q 2069 388 2326 689 
Q 2584 991 2584 1609 
Q 2584 2291 2321 2609 
Q 2059 2928 1675 2928 
Q 1300 2928 1048 2622 
Q 797 2316 797 1656 
z
" transform="scale(0.015625)"/>
       <path id="ArialMT-79" d="M 397 -1278 
L 334 -750 
Q 519 -800 656 -800 
Q 844 -800 956 -737 
Q 1069 -675 1141 -563 
Q 1194 -478 1313 -144 
Q 1328 -97 1363 -6 
L 103 3319 
L 709 3319 
L 1400 1397 
Q 1534 1031 1641 628 
Q 1738 1016 1872 1384 
L 2581 3319 
L 3144 3319 
L 1881 -56 
Q 1678 -603 1566 -809 
Q 1416 -1088 1222 -1217 
Q 1028 -1347 759 -1347 
Q 597 -1347 397 -1278 
z
" transform="scale(0.015625)"/>
      </defs>
      <use xlink:href="#ArialMT-47"/>
      <use xlink:href="#ArialMT-72" x="77.783203"/>
      <use xlink:href="#ArialMT-65" x="111.083984"/>
      <use xlink:href="#ArialMT-65" x="166.699219"/>
      <use xlink:href="#ArialMT-64" x="222.314453"/>
      <use xlink:href="#ArialMT-79" x="277.929688"/>
     </g>
    </g>
    <g id="line2d_26">
     <path d="M 176.78125 1061.744219 
L 196.78125 1061.744219 
L 216.78125 1061.744219 
" style="fill: none; stroke: #ff7f0e; stroke-width: 6; stroke-linecap: round"/>
     <g>
      <use xlink:href="#m43e7e2826c" x="196.78125" y="1061.744219" style="fill: #ff7f0e; stroke: #ff7f0e"/>
     </g>
    </g>
    <g id="text_19">
     <!-- Q-Learning -->
     <g style="fill: #262626" transform="translate(232.78125 1068.744219) scale(0.2 -0.2)">
      <defs>
       <path id="ArialMT-51" d="M 3966 491 
Q 4388 200 4744 66 
L 4566 -356 
Q 4072 -178 3581 206 
Q 3072 -78 2456 -78 
Q 1834 -78 1328 222 
Q 822 522 548 1065 
Q 275 1609 275 2291 
Q 275 2969 550 3525 
Q 825 4081 1333 4372 
Q 1841 4663 2469 4663 
Q 3103 4663 3612 4361 
Q 4122 4059 4389 3517 
Q 4656 2975 4656 2294 
Q 4656 1728 4484 1276 
Q 4313 825 3966 491 
z
M 2631 1266 
Q 3156 1119 3497 828 
Q 4031 1316 4031 2294 
Q 4031 2850 3842 3265 
Q 3653 3681 3289 3911 
Q 2925 4141 2472 4141 
Q 1794 4141 1347 3677 
Q 900 3213 900 2291 
Q 900 1397 1342 919 
Q 1784 441 2472 441 
Q 2797 441 3084 563 
Q 2800 747 2484 825 
L 2631 1266 
z
" transform="scale(0.015625)"/>
       <path id="ArialMT-2d" d="M 203 1375 
L 203 1941 
L 1931 1941 
L 1931 1375 
L 203 1375 
z
" transform="scale(0.015625)"/>
       <path id="ArialMT-4c" d="M 469 0 
L 469 4581 
L 1075 4581 
L 1075 541 
L 3331 541 
L 3331 0 
L 469 0 
z
" transform="scale(0.015625)"/>
       <path id="ArialMT-61" d="M 2588 409 
Q 2275 144 1986 34 
Q 1697 -75 1366 -75 
Q 819 -75 525 192 
Q 231 459 231 875 
Q 231 1119 342 1320 
Q 453 1522 633 1644 
Q 813 1766 1038 1828 
Q 1203 1872 1538 1913 
Q 2219 1994 2541 2106 
Q 2544 2222 2544 2253 
Q 2544 2597 2384 2738 
Q 2169 2928 1744 2928 
Q 1347 2928 1158 2789 
Q 969 2650 878 2297 
L 328 2372 
Q 403 2725 575 2942 
Q 747 3159 1072 3276 
Q 1397 3394 1825 3394 
Q 2250 3394 2515 3294 
Q 2781 3194 2906 3042 
Q 3031 2891 3081 2659 
Q 3109 2516 3109 2141 
L 3109 1391 
Q 3109 606 3145 398 
Q 3181 191 3288 0 
L 2700 0 
Q 2613 175 2588 409 
z
M 2541 1666 
Q 2234 1541 1622 1453 
Q 1275 1403 1131 1340 
Q 988 1278 909 1158 
Q 831 1038 831 891 
Q 831 666 1001 516 
Q 1172 366 1500 366 
Q 1825 366 2078 508 
Q 2331 650 2450 897 
Q 2541 1088 2541 1459 
L 2541 1666 
z
" transform="scale(0.015625)"/>
       <path id="ArialMT-6e" d="M 422 0 
L 422 3319 
L 928 3319 
L 928 2847 
Q 1294 3394 1984 3394 
Q 2284 3394 2536 3286 
Q 2788 3178 2913 3003 
Q 3038 2828 3088 2588 
Q 3119 2431 3119 2041 
L 3119 0 
L 2556 0 
L 2556 2019 
Q 2556 2363 2490 2533 
Q 2425 2703 2258 2804 
Q 2091 2906 1866 2906 
Q 1506 2906 1245 2678 
Q 984 2450 984 1813 
L 984 0 
L 422 0 
z
" transform="scale(0.015625)"/>
       <path id="ArialMT-69" d="M 425 3934 
L 425 4581 
L 988 4581 
L 988 3934 
L 425 3934 
z
M 425 0 
L 425 3319 
L 988 3319 
L 988 0 
L 425 0 
z
" transform="scale(0.015625)"/>
       <path id="ArialMT-67" d="M 319 -275 
L 866 -356 
Q 900 -609 1056 -725 
Q 1266 -881 1628 -881 
Q 2019 -881 2231 -725 
Q 2444 -569 2519 -288 
Q 2563 -116 2559 434 
Q 2191 0 1641 0 
Q 956 0 581 494 
Q 206 988 206 1678 
Q 206 2153 378 2554 
Q 550 2956 876 3175 
Q 1203 3394 1644 3394 
Q 2231 3394 2613 2919 
L 2613 3319 
L 3131 3319 
L 3131 450 
Q 3131 -325 2973 -648 
Q 2816 -972 2473 -1159 
Q 2131 -1347 1631 -1347 
Q 1038 -1347 672 -1080 
Q 306 -813 319 -275 
z
M 784 1719 
Q 784 1066 1043 766 
Q 1303 466 1694 466 
Q 2081 466 2343 764 
Q 2606 1063 2606 1700 
Q 2606 2309 2336 2618 
Q 2066 2928 1684 2928 
Q 1309 2928 1046 2623 
Q 784 2319 784 1719 
z
" transform="scale(0.015625)"/>
      </defs>
      <use xlink:href="#ArialMT-51"/>
      <use xlink:href="#ArialMT-2d" x="77.783203"/>
      <use xlink:href="#ArialMT-4c" x="111.083984"/>
      <use xlink:href="#ArialMT-65" x="166.699219"/>
      <use xlink:href="#ArialMT-61" x="222.314453"/>
      <use xlink:href="#ArialMT-72" x="277.929688"/>
      <use xlink:href="#ArialMT-6e" x="311.230469"/>
      <use xlink:href="#ArialMT-69" x="366.845703"/>
      <use xlink:href="#ArialMT-6e" x="389.0625"/>
      <use xlink:href="#ArialMT-67" x="444.677734"/>
     </g>
    </g>
    <g id="line2d_27">
     <path d="M 372.83125 1061.744219 
L 392.83125 1061.744219 
L 412.83125 1061.744219 
" style="fill: none; stroke: #2ca02c; stroke-width: 6; stroke-linecap: round"/>
     <g>
      <use xlink:href="#m737f083872" x="392.83125" y="1061.744219" style="fill: #2ca02c; stroke: #2ca02c"/>
     </g>
    </g>
    <g id="text_20">
     <!-- Bayesian -->
     <g style="fill: #262626" transform="translate(428.83125 1068.744219) scale(0.2 -0.2)">
      <defs>
       <path id="ArialMT-42" d="M 469 0 
L 469 4581 
L 2188 4581 
Q 2713 4581 3030 4442 
Q 3347 4303 3526 4014 
Q 3706 3725 3706 3409 
Q 3706 3116 3547 2856 
Q 3388 2597 3066 2438 
Q 3481 2316 3704 2022 
Q 3928 1728 3928 1328 
Q 3928 1006 3792 729 
Q 3656 453 3456 303 
Q 3256 153 2954 76 
Q 2653 0 2216 0 
L 469 0 
z
M 1075 2656 
L 2066 2656 
Q 2469 2656 2644 2709 
Q 2875 2778 2992 2937 
Q 3109 3097 3109 3338 
Q 3109 3566 3000 3739 
Q 2891 3913 2687 3977 
Q 2484 4041 1991 4041 
L 1075 4041 
L 1075 2656 
z
M 1075 541 
L 2216 541 
Q 2509 541 2628 563 
Q 2838 600 2978 687 
Q 3119 775 3209 942 
Q 3300 1109 3300 1328 
Q 3300 1584 3169 1773 
Q 3038 1963 2805 2039 
Q 2572 2116 2134 2116 
L 1075 2116 
L 1075 541 
z
" transform="scale(0.015625)"/>
       <path id="ArialMT-73" d="M 197 991 
L 753 1078 
Q 800 744 1014 566 
Q 1228 388 1613 388 
Q 2000 388 2187 545 
Q 2375 703 2375 916 
Q 2375 1106 2209 1216 
Q 2094 1291 1634 1406 
Q 1016 1563 777 1677 
Q 538 1791 414 1992 
Q 291 2194 291 2438 
Q 291 2659 392 2848 
Q 494 3038 669 3163 
Q 800 3259 1026 3326 
Q 1253 3394 1513 3394 
Q 1903 3394 2198 3281 
Q 2494 3169 2634 2976 
Q 2775 2784 2828 2463 
L 2278 2388 
Q 2241 2644 2061 2787 
Q 1881 2931 1553 2931 
Q 1166 2931 1000 2803 
Q 834 2675 834 2503 
Q 834 2394 903 2306 
Q 972 2216 1119 2156 
Q 1203 2125 1616 2013 
Q 2213 1853 2448 1751 
Q 2684 1650 2818 1456 
Q 2953 1263 2953 975 
Q 2953 694 2789 445 
Q 2625 197 2315 61 
Q 2006 -75 1616 -75 
Q 969 -75 630 194 
Q 291 463 197 991 
z
" transform="scale(0.015625)"/>
      </defs>
      <use xlink:href="#ArialMT-42"/>
      <use xlink:href="#ArialMT-61" x="66.699219"/>
      <use xlink:href="#ArialMT-79" x="122.314453"/>
      <use xlink:href="#ArialMT-65" x="172.314453"/>
      <use xlink:href="#ArialMT-73" x="227.929688"/>
      <use xlink:href="#ArialMT-69" x="277.929688"/>
      <use xlink:href="#ArialMT-61" x="300.146484"/>
      <use xlink:href="#ArialMT-6e" x="355.761719"/>
     </g>
    </g>
    <g id="line2d_28">
     <path d="M 551.103125 1061.744219 
L 571.103125 1061.744219 
L 591.103125 1061.744219 
" style="fill: none; stroke: #d62728; stroke-width: 6; stroke-linecap: round"/>
     <g>
      <use xlink:href="#m6bd7a32a5f" x="571.103125" y="1061.744219" style="fill: #d62728; stroke: #d62728; stroke-linejoin: miter"/>
     </g>
    </g>
    <g id="text_21">
     <!-- Momentum -->
     <g style="fill: #262626" transform="translate(607.103125 1068.744219) scale(0.2 -0.2)">
      <defs>
       <path id="ArialMT-4d" d="M 475 0 
L 475 4581 
L 1388 4581 
L 2472 1338 
Q 2622 884 2691 659 
Q 2769 909 2934 1394 
L 4031 4581 
L 4847 4581 
L 4847 0 
L 4263 0 
L 4263 3834 
L 2931 0 
L 2384 0 
L 1059 3900 
L 1059 0 
L 475 0 
z
" transform="scale(0.015625)"/>
       <path id="ArialMT-6f" d="M 213 1659 
Q 213 2581 725 3025 
Q 1153 3394 1769 3394 
Q 2453 3394 2887 2945 
Q 3322 2497 3322 1706 
Q 3322 1066 3130 698 
Q 2938 331 2570 128 
Q 2203 -75 1769 -75 
Q 1072 -75 642 372 
Q 213 819 213 1659 
z
M 791 1659 
Q 791 1022 1069 705 
Q 1347 388 1769 388 
Q 2188 388 2466 706 
Q 2744 1025 2744 1678 
Q 2744 2294 2464 2611 
Q 2184 2928 1769 2928 
Q 1347 2928 1069 2612 
Q 791 2297 791 1659 
z
" transform="scale(0.015625)"/>
       <path id="ArialMT-6d" d="M 422 0 
L 422 3319 
L 925 3319 
L 925 2853 
Q 1081 3097 1340 3245 
Q 1600 3394 1931 3394 
Q 2300 3394 2536 3241 
Q 2772 3088 2869 2813 
Q 3263 3394 3894 3394 
Q 4388 3394 4653 3120 
Q 4919 2847 4919 2278 
L 4919 0 
L 4359 0 
L 4359 2091 
Q 4359 2428 4304 2576 
Q 4250 2725 4106 2815 
Q 3963 2906 3769 2906 
Q 3419 2906 3187 2673 
Q 2956 2441 2956 1928 
L 2956 0 
L 2394 0 
L 2394 2156 
Q 2394 2531 2256 2718 
Q 2119 2906 1806 2906 
Q 1569 2906 1367 2781 
Q 1166 2656 1075 2415 
Q 984 2175 984 1722 
L 984 0 
L 422 0 
z
" transform="scale(0.015625)"/>
       <path id="ArialMT-74" d="M 1650 503 
L 1731 6 
Q 1494 -44 1306 -44 
Q 1000 -44 831 53 
Q 663 150 594 308 
Q 525 466 525 972 
L 525 2881 
L 113 2881 
L 113 3319 
L 525 3319 
L 525 4141 
L 1084 4478 
L 1084 3319 
L 1650 3319 
L 1650 2881 
L 1084 2881 
L 1084 941 
Q 1084 700 1114 631 
Q 1144 563 1211 522 
Q 1278 481 1403 481 
Q 1497 481 1650 503 
z
" transform="scale(0.015625)"/>
       <path id="ArialMT-75" d="M 2597 0 
L 2597 488 
Q 2209 -75 1544 -75 
Q 1250 -75 995 37 
Q 741 150 617 320 
Q 494 491 444 738 
Q 409 903 409 1263 
L 409 3319 
L 972 3319 
L 972 1478 
Q 972 1038 1006 884 
Q 1059 663 1231 536 
Q 1403 409 1656 409 
Q 1909 409 2131 539 
Q 2353 669 2445 892 
Q 2538 1116 2538 1541 
L 2538 3319 
L 3100 3319 
L 3100 0 
L 2597 0 
z
" transform="scale(0.015625)"/>
      </defs>
      <use xlink:href="#ArialMT-4d"/>
      <use xlink:href="#ArialMT-6f" x="83.300781"/>
      <use xlink:href="#ArialMT-6d" x="138.916016"/>
      <use xlink:href="#ArialMT-65" x="222.216797"/>
      <use xlink:href="#ArialMT-6e" x="277.832031"/>
      <use xlink:href="#ArialMT-74" x="333.447266"/>
      <use xlink:href="#ArialMT-75" x="361.230469"/>
      <use xlink:href="#ArialMT-6d" x="416.845703"/>
     </g>
    </g>
    <g id="line2d_29">
     <path d="M 747.125 1061.744219 
L 767.125 1061.744219 
L 787.125 1061.744219 
" style="fill: none; stroke: #9467bd; stroke-width: 6; stroke-linecap: round"/>
     <g>
      <use xlink:href="#mdf969b57dd" x="767.125" y="1061.744219" style="fill: #9467bd; stroke: #9467bd; stroke-linejoin: bevel"/>
     </g>
    </g>
    <g id="text_22">
     <!-- HMM -->
     <g style="fill: #262626" transform="translate(803.125 1068.744219) scale(0.2 -0.2)">
      <defs>
       <path id="ArialMT-48" d="M 513 0 
L 513 4581 
L 1119 4581 
L 1119 2700 
L 3500 2700 
L 3500 4581 
L 4106 4581 
L 4106 0 
L 3500 0 
L 3500 2159 
L 1119 2159 
L 1119 0 
L 513 0 
z
" transform="scale(0.015625)"/>
      </defs>
      <use xlink:href="#ArialMT-48"/>
      <use xlink:href="#ArialMT-4d" x="72.216797"/>
      <use xlink:href="#ArialMT-4d" x="155.517578"/>
     </g>
    </g>
    <g id="line2d_30">
     <path d="M 890.8875 1061.744219 
L 910.8875 1061.744219 
L 930.8875 1061.744219 
" style="fill: none; stroke: #8c564b; stroke-width: 6; stroke-linecap: round"/>
     <g>
      <use xlink:href="#md0697a32af" x="910.8875" y="1061.744219" style="fill: #8c564b; stroke: #8c564b; stroke-linejoin: miter"/>
     </g>
    </g>
    <g id="text_23">
     <!-- Random -->
     <g style="fill: #262626" transform="translate(946.8875 1068.744219) scale(0.2 -0.2)">
      <defs>
       <path id="ArialMT-52" d="M 503 0 
L 503 4581 
L 2534 4581 
Q 3147 4581 3465 4457 
Q 3784 4334 3975 4021 
Q 4166 3709 4166 3331 
Q 4166 2844 3850 2509 
Q 3534 2175 2875 2084 
Q 3116 1969 3241 1856 
Q 3506 1613 3744 1247 
L 4541 0 
L 3778 0 
L 3172 953 
Q 2906 1366 2734 1584 
Q 2563 1803 2427 1890 
Q 2291 1978 2150 2013 
Q 2047 2034 1813 2034 
L 1109 2034 
L 1109 0 
L 503 0 
z
M 1109 2559 
L 2413 2559 
Q 2828 2559 3062 2645 
Q 3297 2731 3419 2920 
Q 3541 3109 3541 3331 
Q 3541 3656 3305 3865 
Q 3069 4075 2559 4075 
L 1109 4075 
L 1109 2559 
z
" transform="scale(0.015625)"/>
      </defs>
      <use xlink:href="#ArialMT-52"/>
      <use xlink:href="#ArialMT-61" x="72.216797"/>
      <use xlink:href="#ArialMT-6e" x="127.832031"/>
      <use xlink:href="#ArialMT-64" x="183.447266"/>
      <use xlink:href="#ArialMT-6f" x="239.0625"/>
      <use xlink:href="#ArialMT-6d" x="294.677734"/>
     </g>
    </g>
    <g id="line2d_31">
     <path d="M 1062.478125 1061.744219 
L 1082.478125 1061.744219 
L 1102.478125 1061.744219 
" style="fill: none; stroke: #e377c2; stroke-width: 6; stroke-linecap: round"/>
     <g>
      <use xlink:href="#ma9fe8f9c2c" x="1082.478125" y="1061.744219" style="fill: #e377c2; stroke: #e377c2; stroke-linejoin: miter"/>
     </g>
    </g>
    <g id="text_24">
     <!-- WSLS -->
     <g style="fill: #262626" transform="translate(1118.478125 1068.744219) scale(0.2 -0.2)">
      <defs>
       <path id="ArialMT-57" d="M 1294 0 
L 78 4581 
L 700 4581 
L 1397 1578 
Q 1509 1106 1591 641 
Q 1766 1375 1797 1488 
L 2669 4581 
L 3400 4581 
L 4056 2263 
Q 4303 1400 4413 641 
Q 4500 1075 4641 1638 
L 5359 4581 
L 5969 4581 
L 4713 0 
L 4128 0 
L 3163 3491 
Q 3041 3928 3019 4028 
Q 2947 3713 2884 3491 
L 1913 0 
L 1294 0 
z
" transform="scale(0.015625)"/>
       <path id="ArialMT-53" d="M 288 1472 
L 859 1522 
Q 900 1178 1048 958 
Q 1197 738 1509 602 
Q 1822 466 2213 466 
Q 2559 466 2825 569 
Q 3091 672 3220 851 
Q 3350 1031 3350 1244 
Q 3350 1459 3225 1620 
Q 3100 1781 2813 1891 
Q 2628 1963 1997 2114 
Q 1366 2266 1113 2400 
Q 784 2572 623 2826 
Q 463 3081 463 3397 
Q 463 3744 659 4045 
Q 856 4347 1234 4503 
Q 1613 4659 2075 4659 
Q 2584 4659 2973 4495 
Q 3363 4331 3572 4012 
Q 3781 3694 3797 3291 
L 3216 3247 
Q 3169 3681 2898 3903 
Q 2628 4125 2100 4125 
Q 1550 4125 1298 3923 
Q 1047 3722 1047 3438 
Q 1047 3191 1225 3031 
Q 1400 2872 2139 2705 
Q 2878 2538 3153 2413 
Q 3553 2228 3743 1945 
Q 3934 1663 3934 1294 
Q 3934 928 3725 604 
Q 3516 281 3123 101 
Q 2731 -78 2241 -78 
Q 1619 -78 1198 103 
Q 778 284 539 648 
Q 300 1013 288 1472 
z
" transform="scale(0.015625)"/>
      </defs>
      <use xlink:href="#ArialMT-57"/>
      <use xlink:href="#ArialMT-53" x="94.384766"/>
      <use xlink:href="#ArialMT-4c" x="161.083984"/>
      <use xlink:href="#ArialMT-53" x="216.699219"/>
     </g>
    </g>
    <g id="line2d_32">
     <path d="M 1215.159375 1061.744219 
L 1235.159375 1061.744219 
L 1255.159375 1061.744219 
" style="fill: none; stroke: #7f7f7f; stroke-width: 6; stroke-linecap: round"/>
     <g>
      <use xlink:href="#md225b70f9a" x="1235.159375" y="1061.744219" style="fill: #7f7f7f; stroke: #7f7f7f"/>
     </g>
    </g>
    <g id="text_25">
     <!-- Reinforce -->
     <g style="fill: #262626" transform="translate(1271.159375 1068.744219) scale(0.2 -0.2)">
      <defs>
       <path id="ArialMT-66" d="M 556 0 
L 556 2881 
L 59 2881 
L 59 3319 
L 556 3319 
L 556 3672 
Q 556 4006 616 4169 
Q 697 4388 901 4523 
Q 1106 4659 1475 4659 
Q 1713 4659 2000 4603 
L 1916 4113 
Q 1741 4144 1584 4144 
Q 1328 4144 1222 4034 
Q 1116 3925 1116 3625 
L 1116 3319 
L 1763 3319 
L 1763 2881 
L 1116 2881 
L 1116 0 
L 556 0 
z
" transform="scale(0.015625)"/>
       <path id="ArialMT-63" d="M 2588 1216 
L 3141 1144 
Q 3050 572 2676 248 
Q 2303 -75 1759 -75 
Q 1078 -75 664 370 
Q 250 816 250 1647 
Q 250 2184 428 2587 
Q 606 2991 970 3192 
Q 1334 3394 1763 3394 
Q 2303 3394 2647 3120 
Q 2991 2847 3088 2344 
L 2541 2259 
Q 2463 2594 2264 2762 
Q 2066 2931 1784 2931 
Q 1359 2931 1093 2626 
Q 828 2322 828 1663 
Q 828 994 1084 691 
Q 1341 388 1753 388 
Q 2084 388 2306 591 
Q 2528 794 2588 1216 
z
" transform="scale(0.015625)"/>
      </defs>
      <use xlink:href="#ArialMT-52"/>
      <use xlink:href="#ArialMT-65" x="72.216797"/>
      <use xlink:href="#ArialMT-69" x="127.832031"/>
      <use xlink:href="#ArialMT-6e" x="150.048828"/>
      <use xlink:href="#ArialMT-66" x="205.664062"/>
      <use xlink:href="#ArialMT-6f" x="233.447266"/>
      <use xlink:href="#ArialMT-72" x="289.0625"/>
      <use xlink:href="#ArialMT-63" x="322.363281"/>
      <use xlink:href="#ArialMT-65" x="372.363281"/>
     </g>
    </g>
    <g id="line2d_33">
     <path d="M 1396.75 1061.744219 
L 1416.75 1061.744219 
L 1436.75 1061.744219 
" style="fill: none; stroke: #bcbd22; stroke-width: 6; stroke-linecap: round"/>
     <g>
      <use xlink:href="#m57c0f57307" x="1416.75" y="1061.744219" style="fill: #bcbd22; stroke: #bcbd22; stroke-linejoin: miter"/>
     </g>
    </g>
    <g id="text_26">
     <!-- SARSA -->
     <g style="fill: #262626" transform="translate(1452.75 1068.744219) scale(0.2 -0.2)">
      <defs>
       <path id="ArialMT-41" d="M -9 0 
L 1750 4581 
L 2403 4581 
L 4278 0 
L 3588 0 
L 3053 1388 
L 1138 1388 
L 634 0 
L -9 0 
z
M 1313 1881 
L 2866 1881 
L 2388 3150 
Q 2169 3728 2063 4100 
Q 1975 3659 1816 3225 
L 1313 1881 
z
" transform="scale(0.015625)"/>
      </defs>
      <use xlink:href="#ArialMT-53"/>
      <use xlink:href="#ArialMT-41" x="66.699219"/>
      <use xlink:href="#ArialMT-52" x="133.398438"/>
      <use xlink:href="#ArialMT-53" x="205.615234"/>
      <use xlink:href="#ArialMT-41" x="272.314453"/>
     </g>
    </g>
    <g id="line2d_34">
     <path d="M 1560.55625 1061.744219 
L 1580.55625 1061.744219 
L 1600.55625 1061.744219 
" style="fill: none; stroke: #17becf; stroke-width: 6; stroke-linecap: round"/>
     <g>
      <use xlink:href="#m3b1f3de61d" x="1580.55625" y="1061.744219" style="fill: #17becf; stroke: #17becf"/>
     </g>
    </g>
    <g id="text_27">
     <!-- Actor-Critic -->
     <g style="fill: #262626" transform="translate(1616.55625 1068.744219) scale(0.2 -0.2)">
      <defs>
       <path id="ArialMT-43" d="M 3763 1606 
L 4369 1453 
Q 4178 706 3683 314 
Q 3188 -78 2472 -78 
Q 1731 -78 1267 223 
Q 803 525 561 1097 
Q 319 1669 319 2325 
Q 319 3041 592 3573 
Q 866 4106 1370 4382 
Q 1875 4659 2481 4659 
Q 3169 4659 3637 4309 
Q 4106 3959 4291 3325 
L 3694 3184 
Q 3534 3684 3231 3912 
Q 2928 4141 2469 4141 
Q 1941 4141 1586 3887 
Q 1231 3634 1087 3207 
Q 944 2781 944 2328 
Q 944 1744 1114 1308 
Q 1284 872 1643 656 
Q 2003 441 2422 441 
Q 2931 441 3284 734 
Q 3638 1028 3763 1606 
z
" transform="scale(0.015625)"/>
      </defs>
      <use xlink:href="#ArialMT-41"/>
      <use xlink:href="#ArialMT-63" x="66.699219"/>
      <use xlink:href="#ArialMT-74" x="116.699219"/>
      <use xlink:href="#ArialMT-6f" x="144.482422"/>
      <use xlink:href="#ArialMT-72" x="200.097656"/>
      <use xlink:href="#ArialMT-2d" x="233.398438"/>
      <use xlink:href="#ArialMT-43" x="266.699219"/>
      <use xlink:href="#ArialMT-72" x="338.916016"/>
      <use xlink:href="#ArialMT-69" x="372.216797"/>
      <use xlink:href="#ArialMT-74" x="394.433594"/>
      <use xlink:href="#ArialMT-69" x="422.216797"/>
      <use xlink:href="#ArialMT-63" x="444.433594"/>
     </g>
    </g>
   </g>
  </g>
 </g>
 <defs>
  <clipPath id="p7e932016c6">
   <rect x="555.2" y="38.252344" width="1116" height="831.6"/>
  </clipPath>
 </defs>
</svg>
