<?xml version="1.0" encoding="utf-8" standalone="no"?>
<!DOCTYPE svg PUBLIC "-//W3C//DTD SVG 1.1//EN"
  "http://www.w3.org/Graphics/SVG/1.1/DTD/svg11.dtd">
<svg xmlns:xlink="http://www.w3.org/1999/xlink" width="643.191406pt" height="929.78125pt" viewBox="0 0 643.191406 929.78125" xmlns="http://www.w3.org/2000/svg" version="1.1">
 <metadata>
  <rdf:RDF xmlns:dc="http://purl.org/dc/elements/1.1/" xmlns:cc="http://creativecommons.org/ns#" xmlns:rdf="http://www.w3.org/1999/02/22-rdf-syntax-ns#">
   <cc:Work>
    <dc:type rdf:resource="http://purl.org/dc/dcmitype/StillImage"/>
    <dc:date>2024-07-29T20:11:15.598261</dc:date>
    <dc:format>image/svg+xml</dc:format>
    <dc:creator>
     <cc:Agent>
      <dc:title>Matplotlib v3.7.2, https://matplotlib.org/</dc:title>
     </cc:Agent>
    </dc:creator>
   </cc:Work>
  </rdf:RDF>
 </metadata>
 <defs>
  <style type="text/css">*{stroke-linejoin: round; stroke-linecap: butt}</style>
 </defs>
 <g id="figure_1">
  <g id="patch_1">
   <path d="M 0 929.78125 
L 643.191406 929.78125 
L 643.191406 0 
L 0 0 
z
" style="fill: #ffffff"/>
  </g>
  <g id="axes_1">
   <g id="patch_2">
    <path d="M 77.991406 867.834375 
L 635.991406 867.834375 
L 635.991406 36.234375 
L 77.991406 36.234375 
z
" style="fill: #ffffff"/>
   </g>
   <g id="matplotlib.axis_1">
    <g id="xtick_1">
     <g id="line2d_1">
      <defs>
       <path id="m37d8145335" d="M 0 0 
L 0 3.5 
" style="stroke: #000000; stroke-width: 0.8"/>
      </defs>
      <g>
       <use xlink:href="#m37d8145335" x="103.355043" y="867.834375" style="stroke: #000000; stroke-width: 0.8"/>
      </g>
     </g>
     <g id="text_1">
      <!-- 10% -->
      <g transform="translate(79.419105 890.03125) scale(0.2 -0.2)">
       <defs>
        <path id="DejaVuSans-Bold-31" d="M 750 831 
L 1813 831 
L 1813 3847 
L 722 3622 
L 722 4441 
L 1806 4666 
L 2950 4666 
L 2950 831 
L 4013 831 
L 4013 0 
L 750 0 
L 750 831 
z
" transform="scale(0.015625)"/>
        <path id="DejaVuSans-Bold-30" d="M 2944 2338 
Q 2944 3213 2780 3570 
Q 2616 3928 2228 3928 
Q 1841 3928 1675 3570 
Q 1509 3213 1509 2338 
Q 1509 1453 1675 1090 
Q 1841 728 2228 728 
Q 2613 728 2778 1090 
Q 2944 1453 2944 2338 
z
M 4147 2328 
Q 4147 1169 3647 539 
Q 3147 -91 2228 -91 
Q 1306 -91 806 539 
Q 306 1169 306 2328 
Q 306 3491 806 4120 
Q 1306 4750 2228 4750 
Q 3147 4750 3647 4120 
Q 4147 3491 4147 2328 
z
" transform="scale(0.015625)"/>
        <path id="DejaVuSans-Bold-25" d="M 4959 1925 
Q 4738 1925 4616 1733 
Q 4494 1541 4494 1184 
Q 4494 825 4614 633 
Q 4734 441 4959 441 
Q 5184 441 5303 633 
Q 5422 825 5422 1184 
Q 5422 1541 5301 1733 
Q 5181 1925 4959 1925 
z
M 4959 2450 
Q 5541 2450 5875 2112 
Q 6209 1775 6209 1184 
Q 6209 594 5875 251 
Q 5541 -91 4959 -91 
Q 4378 -91 4042 251 
Q 3706 594 3706 1184 
Q 3706 1772 4042 2111 
Q 4378 2450 4959 2450 
z
M 2094 -91 
L 1403 -91 
L 4319 4750 
L 5013 4750 
L 2094 -91 
z
M 1453 4750 
Q 2034 4750 2367 4411 
Q 2700 4072 2700 3481 
Q 2700 2891 2367 2550 
Q 2034 2209 1453 2209 
Q 872 2209 539 2550 
Q 206 2891 206 3481 
Q 206 4072 539 4411 
Q 872 4750 1453 4750 
z
M 1453 4225 
Q 1228 4225 1106 4031 
Q 984 3838 984 3481 
Q 984 3122 1106 2926 
Q 1228 2731 1453 2731 
Q 1678 2731 1798 2926 
Q 1919 3122 1919 3481 
Q 1919 3838 1797 4031 
Q 1675 4225 1453 4225 
z
" transform="scale(0.015625)"/>
       </defs>
       <use xlink:href="#DejaVuSans-Bold-31"/>
       <use xlink:href="#DejaVuSans-Bold-30" x="69.580078"/>
       <use xlink:href="#DejaVuSans-Bold-25" x="139.160156"/>
      </g>
     </g>
    </g>
    <g id="xtick_2">
     <g id="line2d_2">
      <g>
       <use xlink:href="#m37d8145335" x="166.764134" y="867.834375" style="stroke: #000000; stroke-width: 0.8"/>
      </g>
     </g>
     <g id="text_2">
      <!-- 20% -->
      <g transform="translate(142.828196 890.03125) scale(0.2 -0.2)">
       <defs>
        <path id="DejaVuSans-Bold-32" d="M 1844 884 
L 3897 884 
L 3897 0 
L 506 0 
L 506 884 
L 2209 2388 
Q 2438 2594 2547 2791 
Q 2656 2988 2656 3200 
Q 2656 3528 2436 3728 
Q 2216 3928 1850 3928 
Q 1569 3928 1234 3808 
Q 900 3688 519 3450 
L 519 4475 
Q 925 4609 1322 4679 
Q 1719 4750 2100 4750 
Q 2938 4750 3402 4381 
Q 3866 4013 3866 3353 
Q 3866 2972 3669 2642 
Q 3472 2313 2841 1759 
L 1844 884 
z
" transform="scale(0.015625)"/>
       </defs>
       <use xlink:href="#DejaVuSans-Bold-32"/>
       <use xlink:href="#DejaVuSans-Bold-30" x="69.580078"/>
       <use xlink:href="#DejaVuSans-Bold-25" x="139.160156"/>
      </g>
     </g>
    </g>
    <g id="xtick_3">
     <g id="line2d_3">
      <g>
       <use xlink:href="#m37d8145335" x="230.173224" y="867.834375" style="stroke: #000000; stroke-width: 0.8"/>
      </g>
     </g>
     <g id="text_3">
      <!-- 30% -->
      <g transform="translate(206.237287 890.03125) scale(0.2 -0.2)">
       <defs>
        <path id="DejaVuSans-Bold-33" d="M 2981 2516 
Q 3453 2394 3698 2092 
Q 3944 1791 3944 1325 
Q 3944 631 3412 270 
Q 2881 -91 1863 -91 
Q 1503 -91 1142 -33 
Q 781 25 428 141 
L 428 1069 
Q 766 900 1098 814 
Q 1431 728 1753 728 
Q 2231 728 2486 893 
Q 2741 1059 2741 1369 
Q 2741 1688 2480 1852 
Q 2219 2016 1709 2016 
L 1228 2016 
L 1228 2791 
L 1734 2791 
Q 2188 2791 2409 2933 
Q 2631 3075 2631 3366 
Q 2631 3634 2415 3781 
Q 2200 3928 1806 3928 
Q 1516 3928 1219 3862 
Q 922 3797 628 3669 
L 628 4550 
Q 984 4650 1334 4700 
Q 1684 4750 2022 4750 
Q 2931 4750 3382 4451 
Q 3834 4153 3834 3553 
Q 3834 3144 3618 2883 
Q 3403 2622 2981 2516 
z
" transform="scale(0.015625)"/>
       </defs>
       <use xlink:href="#DejaVuSans-Bold-33"/>
       <use xlink:href="#DejaVuSans-Bold-30" x="69.580078"/>
       <use xlink:href="#DejaVuSans-Bold-25" x="139.160156"/>
      </g>
     </g>
    </g>
    <g id="xtick_4">
     <g id="line2d_4">
      <g>
       <use xlink:href="#m37d8145335" x="293.582315" y="867.834375" style="stroke: #000000; stroke-width: 0.8"/>
      </g>
     </g>
     <g id="text_4">
      <!-- 40% -->
      <g transform="translate(269.646378 890.03125) scale(0.2 -0.2)">
       <defs>
        <path id="DejaVuSans-Bold-34" d="M 2356 3675 
L 1038 1722 
L 2356 1722 
L 2356 3675 
z
M 2156 4666 
L 3494 4666 
L 3494 1722 
L 4159 1722 
L 4159 850 
L 3494 850 
L 3494 0 
L 2356 0 
L 2356 850 
L 288 850 
L 288 1881 
L 2156 4666 
z
" transform="scale(0.015625)"/>
       </defs>
       <use xlink:href="#DejaVuSans-Bold-34"/>
       <use xlink:href="#DejaVuSans-Bold-30" x="69.580078"/>
       <use xlink:href="#DejaVuSans-Bold-25" x="139.160156"/>
      </g>
     </g>
    </g>
    <g id="xtick_5">
     <g id="line2d_5">
      <g>
       <use xlink:href="#m37d8145335" x="356.991406" y="867.834375" style="stroke: #000000; stroke-width: 0.8"/>
      </g>
     </g>
     <g id="text_5">
      <!-- 50% -->
      <g transform="translate(333.055469 890.03125) scale(0.2 -0.2)">
       <defs>
        <path id="DejaVuSans-Bold-35" d="M 678 4666 
L 3669 4666 
L 3669 3781 
L 1638 3781 
L 1638 3059 
Q 1775 3097 1914 3117 
Q 2053 3138 2203 3138 
Q 3056 3138 3531 2711 
Q 4006 2284 4006 1522 
Q 4006 766 3489 337 
Q 2972 -91 2053 -91 
Q 1656 -91 1267 -14 
Q 878 63 494 219 
L 494 1166 
Q 875 947 1217 837 
Q 1559 728 1863 728 
Q 2300 728 2551 942 
Q 2803 1156 2803 1522 
Q 2803 1891 2551 2103 
Q 2300 2316 1863 2316 
Q 1603 2316 1309 2248 
Q 1016 2181 678 2041 
L 678 4666 
z
" transform="scale(0.015625)"/>
       </defs>
       <use xlink:href="#DejaVuSans-Bold-35"/>
       <use xlink:href="#DejaVuSans-Bold-30" x="69.580078"/>
       <use xlink:href="#DejaVuSans-Bold-25" x="139.160156"/>
      </g>
     </g>
    </g>
    <g id="xtick_6">
     <g id="line2d_6">
      <g>
       <use xlink:href="#m37d8145335" x="420.400497" y="867.834375" style="stroke: #000000; stroke-width: 0.8"/>
      </g>
     </g>
     <g id="text_6">
      <!-- 60% -->
      <g transform="translate(396.46456 890.03125) scale(0.2 -0.2)">
       <defs>
        <path id="DejaVuSans-Bold-36" d="M 2316 2303 
Q 2000 2303 1842 2098 
Q 1684 1894 1684 1484 
Q 1684 1075 1842 870 
Q 2000 666 2316 666 
Q 2634 666 2792 870 
Q 2950 1075 2950 1484 
Q 2950 1894 2792 2098 
Q 2634 2303 2316 2303 
z
M 3803 4544 
L 3803 3681 
Q 3506 3822 3243 3889 
Q 2981 3956 2731 3956 
Q 2194 3956 1894 3657 
Q 1594 3359 1544 2772 
Q 1750 2925 1990 3001 
Q 2231 3078 2516 3078 
Q 3231 3078 3670 2659 
Q 4109 2241 4109 1563 
Q 4109 813 3618 361 
Q 3128 -91 2303 -91 
Q 1394 -91 895 523 
Q 397 1138 397 2266 
Q 397 3422 980 4083 
Q 1563 4744 2578 4744 
Q 2900 4744 3203 4694 
Q 3506 4644 3803 4544 
z
" transform="scale(0.015625)"/>
       </defs>
       <use xlink:href="#DejaVuSans-Bold-36"/>
       <use xlink:href="#DejaVuSans-Bold-30" x="69.580078"/>
       <use xlink:href="#DejaVuSans-Bold-25" x="139.160156"/>
      </g>
     </g>
    </g>
    <g id="xtick_7">
     <g id="line2d_7">
      <g>
       <use xlink:href="#m37d8145335" x="483.809588" y="867.834375" style="stroke: #000000; stroke-width: 0.8"/>
      </g>
     </g>
     <g id="text_7">
      <!-- 70% -->
      <g transform="translate(459.873651 890.03125) scale(0.2 -0.2)">
       <defs>
        <path id="DejaVuSans-Bold-37" d="M 428 4666 
L 3944 4666 
L 3944 3988 
L 2125 0 
L 953 0 
L 2675 3781 
L 428 3781 
L 428 4666 
z
" transform="scale(0.015625)"/>
       </defs>
       <use xlink:href="#DejaVuSans-Bold-37"/>
       <use xlink:href="#DejaVuSans-Bold-30" x="69.580078"/>
       <use xlink:href="#DejaVuSans-Bold-25" x="139.160156"/>
      </g>
     </g>
    </g>
    <g id="xtick_8">
     <g id="line2d_8">
      <g>
       <use xlink:href="#m37d8145335" x="547.218679" y="867.834375" style="stroke: #000000; stroke-width: 0.8"/>
      </g>
     </g>
     <g id="text_8">
      <!-- 80% -->
      <g transform="translate(523.282741 890.03125) scale(0.2 -0.2)">
       <defs>
        <path id="DejaVuSans-Bold-38" d="M 2228 2088 
Q 1891 2088 1709 1903 
Q 1528 1719 1528 1375 
Q 1528 1031 1709 848 
Q 1891 666 2228 666 
Q 2563 666 2741 848 
Q 2919 1031 2919 1375 
Q 2919 1722 2741 1905 
Q 2563 2088 2228 2088 
z
M 1350 2484 
Q 925 2613 709 2878 
Q 494 3144 494 3541 
Q 494 4131 934 4440 
Q 1375 4750 2228 4750 
Q 3075 4750 3515 4442 
Q 3956 4134 3956 3541 
Q 3956 3144 3739 2878 
Q 3522 2613 3097 2484 
Q 3572 2353 3814 2058 
Q 4056 1763 4056 1313 
Q 4056 619 3595 264 
Q 3134 -91 2228 -91 
Q 1319 -91 855 264 
Q 391 619 391 1313 
Q 391 1763 633 2058 
Q 875 2353 1350 2484 
z
M 1631 3419 
Q 1631 3141 1786 2991 
Q 1941 2841 2228 2841 
Q 2509 2841 2662 2991 
Q 2816 3141 2816 3419 
Q 2816 3697 2662 3845 
Q 2509 3994 2228 3994 
Q 1941 3994 1786 3844 
Q 1631 3694 1631 3419 
z
" transform="scale(0.015625)"/>
       </defs>
       <use xlink:href="#DejaVuSans-Bold-38"/>
       <use xlink:href="#DejaVuSans-Bold-30" x="69.580078"/>
       <use xlink:href="#DejaVuSans-Bold-25" x="139.160156"/>
      </g>
     </g>
    </g>
    <g id="xtick_9">
     <g id="line2d_9">
      <g>
       <use xlink:href="#m37d8145335" x="610.62777" y="867.834375" style="stroke: #000000; stroke-width: 0.8"/>
      </g>
     </g>
     <g id="text_9">
      <!-- 90% -->
      <g transform="translate(586.691832 890.03125) scale(0.2 -0.2)">
       <defs>
        <path id="DejaVuSans-Bold-39" d="M 641 103 
L 641 966 
Q 928 831 1190 764 
Q 1453 697 1709 697 
Q 2247 697 2547 995 
Q 2847 1294 2900 1881 
Q 2688 1725 2447 1647 
Q 2206 1569 1925 1569 
Q 1209 1569 770 1986 
Q 331 2403 331 3084 
Q 331 3838 820 4291 
Q 1309 4744 2131 4744 
Q 3044 4744 3544 4128 
Q 4044 3513 4044 2388 
Q 4044 1231 3459 570 
Q 2875 -91 1856 -91 
Q 1528 -91 1228 -42 
Q 928 6 641 103 
z
M 2125 2350 
Q 2441 2350 2600 2554 
Q 2759 2759 2759 3169 
Q 2759 3575 2600 3781 
Q 2441 3988 2125 3988 
Q 1809 3988 1650 3781 
Q 1491 3575 1491 3169 
Q 1491 2759 1650 2554 
Q 1809 2350 2125 2350 
z
" transform="scale(0.015625)"/>
       </defs>
       <use xlink:href="#DejaVuSans-Bold-39"/>
       <use xlink:href="#DejaVuSans-Bold-30" x="69.580078"/>
       <use xlink:href="#DejaVuSans-Bold-25" x="139.160156"/>
      </g>
     </g>
    </g>
    <g id="text_10">
     <!-- Percentage of data used for training -->
     <g transform="translate(99.145703 917.186719) scale(0.25 -0.25)">
      <defs>
       <path id="DejaVuSans-Bold-50" d="M 588 4666 
L 2584 4666 
Q 3475 4666 3951 4270 
Q 4428 3875 4428 3144 
Q 4428 2409 3951 2014 
Q 3475 1619 2584 1619 
L 1791 1619 
L 1791 0 
L 588 0 
L 588 4666 
z
M 1791 3794 
L 1791 2491 
L 2456 2491 
Q 2806 2491 2997 2661 
Q 3188 2831 3188 3144 
Q 3188 3456 2997 3625 
Q 2806 3794 2456 3794 
L 1791 3794 
z
" transform="scale(0.015625)"/>
       <path id="DejaVuSans-Bold-65" d="M 4031 1759 
L 4031 1441 
L 1416 1441 
Q 1456 1047 1700 850 
Q 1944 653 2381 653 
Q 2734 653 3104 758 
Q 3475 863 3866 1075 
L 3866 213 
Q 3469 63 3072 -14 
Q 2675 -91 2278 -91 
Q 1328 -91 801 392 
Q 275 875 275 1747 
Q 275 2603 792 3093 
Q 1309 3584 2216 3584 
Q 3041 3584 3536 3087 
Q 4031 2591 4031 1759 
z
M 2881 2131 
Q 2881 2450 2695 2645 
Q 2509 2841 2209 2841 
Q 1884 2841 1681 2658 
Q 1478 2475 1428 2131 
L 2881 2131 
z
" transform="scale(0.015625)"/>
       <path id="DejaVuSans-Bold-72" d="M 3138 2547 
Q 2991 2616 2845 2648 
Q 2700 2681 2553 2681 
Q 2122 2681 1889 2404 
Q 1656 2128 1656 1613 
L 1656 0 
L 538 0 
L 538 3500 
L 1656 3500 
L 1656 2925 
Q 1872 3269 2151 3426 
Q 2431 3584 2822 3584 
Q 2878 3584 2943 3579 
Q 3009 3575 3134 3559 
L 3138 2547 
z
" transform="scale(0.015625)"/>
       <path id="DejaVuSans-Bold-63" d="M 3366 3391 
L 3366 2478 
Q 3138 2634 2908 2709 
Q 2678 2784 2431 2784 
Q 1963 2784 1702 2511 
Q 1441 2238 1441 1747 
Q 1441 1256 1702 982 
Q 1963 709 2431 709 
Q 2694 709 2930 787 
Q 3166 866 3366 1019 
L 3366 103 
Q 3103 6 2833 -42 
Q 2563 -91 2291 -91 
Q 1344 -91 809 395 
Q 275 881 275 1747 
Q 275 2613 809 3098 
Q 1344 3584 2291 3584 
Q 2566 3584 2833 3536 
Q 3100 3488 3366 3391 
z
" transform="scale(0.015625)"/>
       <path id="DejaVuSans-Bold-6e" d="M 4056 2131 
L 4056 0 
L 2931 0 
L 2931 347 
L 2931 1631 
Q 2931 2084 2911 2256 
Q 2891 2428 2841 2509 
Q 2775 2619 2662 2680 
Q 2550 2741 2406 2741 
Q 2056 2741 1856 2470 
Q 1656 2200 1656 1722 
L 1656 0 
L 538 0 
L 538 3500 
L 1656 3500 
L 1656 2988 
Q 1909 3294 2193 3439 
Q 2478 3584 2822 3584 
Q 3428 3584 3742 3212 
Q 4056 2841 4056 2131 
z
" transform="scale(0.015625)"/>
       <path id="DejaVuSans-Bold-74" d="M 1759 4494 
L 1759 3500 
L 2913 3500 
L 2913 2700 
L 1759 2700 
L 1759 1216 
Q 1759 972 1856 886 
Q 1953 800 2241 800 
L 2816 800 
L 2816 0 
L 1856 0 
Q 1194 0 917 276 
Q 641 553 641 1216 
L 641 2700 
L 84 2700 
L 84 3500 
L 641 3500 
L 641 4494 
L 1759 4494 
z
" transform="scale(0.015625)"/>
       <path id="DejaVuSans-Bold-61" d="M 2106 1575 
Q 1756 1575 1579 1456 
Q 1403 1338 1403 1106 
Q 1403 894 1545 773 
Q 1688 653 1941 653 
Q 2256 653 2472 879 
Q 2688 1106 2688 1447 
L 2688 1575 
L 2106 1575 
z
M 3816 1997 
L 3816 0 
L 2688 0 
L 2688 519 
Q 2463 200 2181 54 
Q 1900 -91 1497 -91 
Q 953 -91 614 226 
Q 275 544 275 1050 
Q 275 1666 698 1953 
Q 1122 2241 2028 2241 
L 2688 2241 
L 2688 2328 
Q 2688 2594 2478 2717 
Q 2269 2841 1825 2841 
Q 1466 2841 1156 2769 
Q 847 2697 581 2553 
L 581 3406 
Q 941 3494 1303 3539 
Q 1666 3584 2028 3584 
Q 2975 3584 3395 3211 
Q 3816 2838 3816 1997 
z
" transform="scale(0.015625)"/>
       <path id="DejaVuSans-Bold-67" d="M 2919 594 
Q 2688 288 2409 144 
Q 2131 0 1766 0 
Q 1125 0 706 504 
Q 288 1009 288 1791 
Q 288 2575 706 3076 
Q 1125 3578 1766 3578 
Q 2131 3578 2409 3434 
Q 2688 3291 2919 2981 
L 2919 3500 
L 4044 3500 
L 4044 353 
Q 4044 -491 3511 -936 
Q 2978 -1381 1966 -1381 
Q 1638 -1381 1331 -1331 
Q 1025 -1281 716 -1178 
L 716 -306 
Q 1009 -475 1290 -558 
Q 1572 -641 1856 -641 
Q 2406 -641 2662 -400 
Q 2919 -159 2919 353 
L 2919 594 
z
M 2181 2772 
Q 1834 2772 1640 2515 
Q 1447 2259 1447 1791 
Q 1447 1309 1634 1061 
Q 1822 813 2181 813 
Q 2531 813 2725 1069 
Q 2919 1325 2919 1791 
Q 2919 2259 2725 2515 
Q 2531 2772 2181 2772 
z
" transform="scale(0.015625)"/>
       <path id="DejaVuSans-Bold-20" transform="scale(0.015625)"/>
       <path id="DejaVuSans-Bold-6f" d="M 2203 2784 
Q 1831 2784 1636 2517 
Q 1441 2250 1441 1747 
Q 1441 1244 1636 976 
Q 1831 709 2203 709 
Q 2569 709 2762 976 
Q 2956 1244 2956 1747 
Q 2956 2250 2762 2517 
Q 2569 2784 2203 2784 
z
M 2203 3584 
Q 3106 3584 3614 3096 
Q 4122 2609 4122 1747 
Q 4122 884 3614 396 
Q 3106 -91 2203 -91 
Q 1297 -91 786 396 
Q 275 884 275 1747 
Q 275 2609 786 3096 
Q 1297 3584 2203 3584 
z
" transform="scale(0.015625)"/>
       <path id="DejaVuSans-Bold-66" d="M 2841 4863 
L 2841 4128 
L 2222 4128 
Q 1984 4128 1890 4042 
Q 1797 3956 1797 3744 
L 1797 3500 
L 2753 3500 
L 2753 2700 
L 1797 2700 
L 1797 0 
L 678 0 
L 678 2700 
L 122 2700 
L 122 3500 
L 678 3500 
L 678 3744 
Q 678 4316 997 4589 
Q 1316 4863 1984 4863 
L 2841 4863 
z
" transform="scale(0.015625)"/>
       <path id="DejaVuSans-Bold-64" d="M 2919 2988 
L 2919 4863 
L 4044 4863 
L 4044 0 
L 2919 0 
L 2919 506 
Q 2688 197 2409 53 
Q 2131 -91 1766 -91 
Q 1119 -91 703 423 
Q 288 938 288 1747 
Q 288 2556 703 3070 
Q 1119 3584 1766 3584 
Q 2128 3584 2408 3439 
Q 2688 3294 2919 2988 
z
M 2181 722 
Q 2541 722 2730 984 
Q 2919 1247 2919 1747 
Q 2919 2247 2730 2509 
Q 2541 2772 2181 2772 
Q 1825 2772 1636 2509 
Q 1447 2247 1447 1747 
Q 1447 1247 1636 984 
Q 1825 722 2181 722 
z
" transform="scale(0.015625)"/>
       <path id="DejaVuSans-Bold-75" d="M 500 1363 
L 500 3500 
L 1625 3500 
L 1625 3150 
Q 1625 2866 1622 2436 
Q 1619 2006 1619 1863 
Q 1619 1441 1641 1255 
Q 1663 1069 1716 984 
Q 1784 875 1895 815 
Q 2006 756 2150 756 
Q 2500 756 2700 1025 
Q 2900 1294 2900 1772 
L 2900 3500 
L 4019 3500 
L 4019 0 
L 2900 0 
L 2900 506 
Q 2647 200 2364 54 
Q 2081 -91 1741 -91 
Q 1134 -91 817 281 
Q 500 653 500 1363 
z
" transform="scale(0.015625)"/>
       <path id="DejaVuSans-Bold-73" d="M 3272 3391 
L 3272 2541 
Q 2913 2691 2578 2766 
Q 2244 2841 1947 2841 
Q 1628 2841 1473 2761 
Q 1319 2681 1319 2516 
Q 1319 2381 1436 2309 
Q 1553 2238 1856 2203 
L 2053 2175 
Q 2913 2066 3209 1816 
Q 3506 1566 3506 1031 
Q 3506 472 3093 190 
Q 2681 -91 1863 -91 
Q 1516 -91 1145 -36 
Q 775 19 384 128 
L 384 978 
Q 719 816 1070 734 
Q 1422 653 1784 653 
Q 2113 653 2278 743 
Q 2444 834 2444 1013 
Q 2444 1163 2330 1236 
Q 2216 1309 1875 1350 
L 1678 1375 
Q 931 1469 631 1722 
Q 331 1975 331 2491 
Q 331 3047 712 3315 
Q 1094 3584 1881 3584 
Q 2191 3584 2531 3537 
Q 2872 3491 3272 3391 
z
" transform="scale(0.015625)"/>
       <path id="DejaVuSans-Bold-69" d="M 538 3500 
L 1656 3500 
L 1656 0 
L 538 0 
L 538 3500 
z
M 538 4863 
L 1656 4863 
L 1656 3950 
L 538 3950 
L 538 4863 
z
" transform="scale(0.015625)"/>
      </defs>
      <use xlink:href="#DejaVuSans-Bold-50"/>
      <use xlink:href="#DejaVuSans-Bold-65" x="73.291016"/>
      <use xlink:href="#DejaVuSans-Bold-72" x="141.113281"/>
      <use xlink:href="#DejaVuSans-Bold-63" x="190.429688"/>
      <use xlink:href="#DejaVuSans-Bold-65" x="249.707031"/>
      <use xlink:href="#DejaVuSans-Bold-6e" x="317.529297"/>
      <use xlink:href="#DejaVuSans-Bold-74" x="388.720703"/>
      <use xlink:href="#DejaVuSans-Bold-61" x="436.523438"/>
      <use xlink:href="#DejaVuSans-Bold-67" x="504.003906"/>
      <use xlink:href="#DejaVuSans-Bold-65" x="575.585938"/>
      <use xlink:href="#DejaVuSans-Bold-20" x="643.408203"/>
      <use xlink:href="#DejaVuSans-Bold-6f" x="678.222656"/>
      <use xlink:href="#DejaVuSans-Bold-66" x="746.923828"/>
      <use xlink:href="#DejaVuSans-Bold-20" x="790.429688"/>
      <use xlink:href="#DejaVuSans-Bold-64" x="825.244141"/>
      <use xlink:href="#DejaVuSans-Bold-61" x="896.826172"/>
      <use xlink:href="#DejaVuSans-Bold-74" x="964.306641"/>
      <use xlink:href="#DejaVuSans-Bold-61" x="1012.109375"/>
      <use xlink:href="#DejaVuSans-Bold-20" x="1079.589844"/>
      <use xlink:href="#DejaVuSans-Bold-75" x="1114.404297"/>
      <use xlink:href="#DejaVuSans-Bold-73" x="1185.595703"/>
      <use xlink:href="#DejaVuSans-Bold-65" x="1245.117188"/>
      <use xlink:href="#DejaVuSans-Bold-64" x="1312.939453"/>
      <use xlink:href="#DejaVuSans-Bold-20" x="1384.521484"/>
      <use xlink:href="#DejaVuSans-Bold-66" x="1419.335938"/>
      <use xlink:href="#DejaVuSans-Bold-6f" x="1462.841797"/>
      <use xlink:href="#DejaVuSans-Bold-72" x="1531.542969"/>
      <use xlink:href="#DejaVuSans-Bold-20" x="1580.859375"/>
      <use xlink:href="#DejaVuSans-Bold-74" x="1615.673828"/>
      <use xlink:href="#DejaVuSans-Bold-72" x="1663.476562"/>
      <use xlink:href="#DejaVuSans-Bold-61" x="1712.792969"/>
      <use xlink:href="#DejaVuSans-Bold-69" x="1780.273438"/>
      <use xlink:href="#DejaVuSans-Bold-6e" x="1814.550781"/>
      <use xlink:href="#DejaVuSans-Bold-69" x="1885.742188"/>
      <use xlink:href="#DejaVuSans-Bold-6e" x="1920.019531"/>
      <use xlink:href="#DejaVuSans-Bold-67" x="1991.210938"/>
     </g>
    </g>
   </g>
   <g id="matplotlib.axis_2">
    <g id="ytick_1">
     <g id="line2d_10">
      <path d="M 77.991406 837.917778 
L 635.991406 837.917778 
" clip-path="url(#p34d866086b)" style="fill: none; stroke: #b0b0b0; stroke-width: 2; stroke-linecap: square"/>
     </g>
     <g id="line2d_11">
      <defs>
       <path id="mb2ea01f206" d="M 0 0 
L -3.5 0 
" style="stroke: #000000; stroke-width: 0.8"/>
      </defs>
      <g>
       <use xlink:href="#mb2ea01f206" x="77.991406" y="837.917778" style="stroke: #000000; stroke-width: 0.8"/>
      </g>
     </g>
     <g id="text_11">
      <!-- 0.1 -->
      <g transform="translate(35.563281 845.516216) scale(0.2 -0.2)">
       <defs>
        <path id="DejaVuSans-Bold-2e" d="M 653 1209 
L 1778 1209 
L 1778 0 
L 653 0 
L 653 1209 
z
" transform="scale(0.015625)"/>
       </defs>
       <use xlink:href="#DejaVuSans-Bold-30"/>
       <use xlink:href="#DejaVuSans-Bold-2e" x="69.580078"/>
       <use xlink:href="#DejaVuSans-Bold-31" x="107.568359"/>
      </g>
     </g>
    </g>
    <g id="ytick_2">
     <g id="line2d_12">
      <path d="M 77.991406 709.458271 
L 635.991406 709.458271 
" clip-path="url(#p34d866086b)" style="fill: none; stroke: #b0b0b0; stroke-width: 2; stroke-linecap: square"/>
     </g>
     <g id="line2d_13">
      <g>
       <use xlink:href="#mb2ea01f206" x="77.991406" y="709.458271" style="stroke: #000000; stroke-width: 0.8"/>
      </g>
     </g>
     <g id="text_12">
      <!-- 0.2 -->
      <g transform="translate(35.563281 717.056708) scale(0.2 -0.2)">
       <use xlink:href="#DejaVuSans-Bold-30"/>
       <use xlink:href="#DejaVuSans-Bold-2e" x="69.580078"/>
       <use xlink:href="#DejaVuSans-Bold-32" x="107.568359"/>
      </g>
     </g>
    </g>
    <g id="ytick_3">
     <g id="line2d_14">
      <path d="M 77.991406 580.998763 
L 635.991406 580.998763 
" clip-path="url(#p34d866086b)" style="fill: none; stroke: #b0b0b0; stroke-width: 2; stroke-linecap: square"/>
     </g>
     <g id="line2d_15">
      <g>
       <use xlink:href="#mb2ea01f206" x="77.991406" y="580.998763" style="stroke: #000000; stroke-width: 0.8"/>
      </g>
     </g>
     <g id="text_13">
      <!-- 0.3 -->
      <g transform="translate(35.563281 588.5972) scale(0.2 -0.2)">
       <use xlink:href="#DejaVuSans-Bold-30"/>
       <use xlink:href="#DejaVuSans-Bold-2e" x="69.580078"/>
       <use xlink:href="#DejaVuSans-Bold-33" x="107.568359"/>
      </g>
     </g>
    </g>
    <g id="ytick_4">
     <g id="line2d_16">
      <path d="M 77.991406 452.539255 
L 635.991406 452.539255 
" clip-path="url(#p34d866086b)" style="fill: none; stroke: #b0b0b0; stroke-width: 2; stroke-linecap: square"/>
     </g>
     <g id="line2d_17">
      <g>
       <use xlink:href="#mb2ea01f206" x="77.991406" y="452.539255" style="stroke: #000000; stroke-width: 0.8"/>
      </g>
     </g>
     <g id="text_14">
      <!-- 0.4 -->
      <g transform="translate(35.563281 460.137693) scale(0.2 -0.2)">
       <use xlink:href="#DejaVuSans-Bold-30"/>
       <use xlink:href="#DejaVuSans-Bold-2e" x="69.580078"/>
       <use xlink:href="#DejaVuSans-Bold-34" x="107.568359"/>
      </g>
     </g>
    </g>
    <g id="ytick_5">
     <g id="line2d_18">
      <path d="M 77.991406 324.079747 
L 635.991406 324.079747 
" clip-path="url(#p34d866086b)" style="fill: none; stroke: #b0b0b0; stroke-width: 2; stroke-linecap: square"/>
     </g>
     <g id="line2d_19">
      <g>
       <use xlink:href="#mb2ea01f206" x="77.991406" y="324.079747" style="stroke: #000000; stroke-width: 0.8"/>
      </g>
     </g>
     <g id="text_15">
      <!-- 0.5 -->
      <g transform="translate(35.563281 331.678185) scale(0.2 -0.2)">
       <use xlink:href="#DejaVuSans-Bold-30"/>
       <use xlink:href="#DejaVuSans-Bold-2e" x="69.580078"/>
       <use xlink:href="#DejaVuSans-Bold-35" x="107.568359"/>
      </g>
     </g>
    </g>
    <g id="ytick_6">
     <g id="line2d_20">
      <path d="M 77.991406 195.62024 
L 635.991406 195.62024 
" clip-path="url(#p34d866086b)" style="fill: none; stroke: #b0b0b0; stroke-width: 2; stroke-linecap: square"/>
     </g>
     <g id="line2d_21">
      <g>
       <use xlink:href="#mb2ea01f206" x="77.991406" y="195.62024" style="stroke: #000000; stroke-width: 0.8"/>
      </g>
     </g>
     <g id="text_16">
      <!-- 0.6 -->
      <g transform="translate(35.563281 203.218677) scale(0.2 -0.2)">
       <use xlink:href="#DejaVuSans-Bold-30"/>
       <use xlink:href="#DejaVuSans-Bold-2e" x="69.580078"/>
       <use xlink:href="#DejaVuSans-Bold-36" x="107.568359"/>
      </g>
     </g>
    </g>
    <g id="ytick_7">
     <g id="line2d_22">
      <path d="M 77.991406 67.160732 
L 635.991406 67.160732 
" clip-path="url(#p34d866086b)" style="fill: none; stroke: #b0b0b0; stroke-width: 2; stroke-linecap: square"/>
     </g>
     <g id="line2d_23">
      <g>
       <use xlink:href="#mb2ea01f206" x="77.991406" y="67.160732" style="stroke: #000000; stroke-width: 0.8"/>
      </g>
     </g>
     <g id="text_17">
      <!-- 0.7 -->
      <g transform="translate(35.563281 74.759169) scale(0.2 -0.2)">
       <use xlink:href="#DejaVuSans-Bold-30"/>
       <use xlink:href="#DejaVuSans-Bold-2e" x="69.580078"/>
       <use xlink:href="#DejaVuSans-Bold-37" x="107.568359"/>
      </g>
     </g>
    </g>
    <g id="text_18">
     <!-- Accuracy (%) -->
     <g transform="translate(26.16875 543.887891) rotate(-90) scale(0.25 -0.25)">
      <defs>
       <path id="DejaVuSans-Bold-41" d="M 3419 850 
L 1538 850 
L 1241 0 
L 31 0 
L 1759 4666 
L 3194 4666 
L 4922 0 
L 3713 0 
L 3419 850 
z
M 1838 1716 
L 3116 1716 
L 2478 3572 
L 1838 1716 
z
" transform="scale(0.015625)"/>
       <path id="DejaVuSans-Bold-79" d="M 78 3500 
L 1197 3500 
L 2138 1125 
L 2938 3500 
L 4056 3500 
L 2584 -331 
Q 2363 -916 2067 -1148 
Q 1772 -1381 1288 -1381 
L 641 -1381 
L 641 -647 
L 991 -647 
Q 1275 -647 1404 -556 
Q 1534 -466 1606 -231 
L 1638 -134 
L 78 3500 
z
" transform="scale(0.015625)"/>
       <path id="DejaVuSans-Bold-28" d="M 2413 -844 
L 1484 -844 
Q 1006 -72 778 623 
Q 550 1319 550 2003 
Q 550 2688 779 3389 
Q 1009 4091 1484 4856 
L 2413 4856 
Q 2013 4116 1813 3408 
Q 1613 2700 1613 2009 
Q 1613 1319 1811 609 
Q 2009 -100 2413 -844 
z
" transform="scale(0.015625)"/>
       <path id="DejaVuSans-Bold-29" d="M 513 -844 
Q 913 -100 1113 609 
Q 1313 1319 1313 2009 
Q 1313 2700 1113 3408 
Q 913 4116 513 4856 
L 1441 4856 
Q 1916 4091 2145 3389 
Q 2375 2688 2375 2003 
Q 2375 1319 2147 623 
Q 1919 -72 1441 -844 
L 513 -844 
z
" transform="scale(0.015625)"/>
      </defs>
      <use xlink:href="#DejaVuSans-Bold-41"/>
      <use xlink:href="#DejaVuSans-Bold-63" x="77.392578"/>
      <use xlink:href="#DejaVuSans-Bold-63" x="136.669922"/>
      <use xlink:href="#DejaVuSans-Bold-75" x="195.947266"/>
      <use xlink:href="#DejaVuSans-Bold-72" x="267.138672"/>
      <use xlink:href="#DejaVuSans-Bold-61" x="316.455078"/>
      <use xlink:href="#DejaVuSans-Bold-63" x="383.935547"/>
      <use xlink:href="#DejaVuSans-Bold-79" x="443.212891"/>
      <use xlink:href="#DejaVuSans-Bold-20" x="508.398438"/>
      <use xlink:href="#DejaVuSans-Bold-28" x="543.212891"/>
      <use xlink:href="#DejaVuSans-Bold-25" x="588.916016"/>
      <use xlink:href="#DejaVuSans-Bold-29" x="689.111328"/>
     </g>
    </g>
   </g>
   <g id="line2d_24">
    <path d="M 103.355043 450.067109 
L 166.764134 443.03151 
L 230.173224 430.227857 
L 293.582315 449.686619 
L 356.991406 415.59263 
L 420.400497 420.651594 
L 483.809588 408.414865 
L 547.218679 374.784843 
L 610.62777 337.70016 
" clip-path="url(#p34d866086b)" style="fill: none; stroke: #1f77b4; stroke-width: 6; stroke-linecap: square"/>
    <defs>
     <path id="m46f7337267" d="M -6 6 
L 6 6 
L 6 -6 
L -6 -6 
z
" style="stroke: #1f77b4; stroke-linejoin: miter"/>
    </defs>
    <g clip-path="url(#p34d866086b)">
     <use xlink:href="#m46f7337267" x="103.355043" y="450.067109" style="fill: #1f77b4; stroke: #1f77b4; stroke-linejoin: miter"/>
     <use xlink:href="#m46f7337267" x="166.764134" y="443.03151" style="fill: #1f77b4; stroke: #1f77b4; stroke-linejoin: miter"/>
     <use xlink:href="#m46f7337267" x="230.173224" y="430.227857" style="fill: #1f77b4; stroke: #1f77b4; stroke-linejoin: miter"/>
     <use xlink:href="#m46f7337267" x="293.582315" y="449.686619" style="fill: #1f77b4; stroke: #1f77b4; stroke-linejoin: miter"/>
     <use xlink:href="#m46f7337267" x="356.991406" y="415.59263" style="fill: #1f77b4; stroke: #1f77b4; stroke-linejoin: miter"/>
     <use xlink:href="#m46f7337267" x="420.400497" y="420.651594" style="fill: #1f77b4; stroke: #1f77b4; stroke-linejoin: miter"/>
     <use xlink:href="#m46f7337267" x="483.809588" y="408.414865" style="fill: #1f77b4; stroke: #1f77b4; stroke-linejoin: miter"/>
     <use xlink:href="#m46f7337267" x="547.218679" y="374.784843" style="fill: #1f77b4; stroke: #1f77b4; stroke-linejoin: miter"/>
     <use xlink:href="#m46f7337267" x="610.62777" y="337.70016" style="fill: #1f77b4; stroke: #1f77b4; stroke-linejoin: miter"/>
    </g>
   </g>
   <g id="line2d_25">
    <path d="M 103.355043 313.933602 
L 166.764134 274.500386 
L 230.173224 257.065903 
L 293.582315 234.786907 
L 356.991406 229.892229 
L 420.400497 205.155777 
L 483.809588 196.681163 
L 547.218679 159.400298 
L 610.62777 109.575758 
" clip-path="url(#p34d866086b)" style="fill: none; stroke: #ff7f0e; stroke-width: 6; stroke-linecap: square"/>
    <defs>
     <path id="m3bdfb4e5c3" d="M 0 6 
C 1.591219 6 3.117479 5.367802 4.242641 4.242641 
C 5.367802 3.117479 6 1.591219 6 0 
C 6 -1.591219 5.367802 -3.117479 4.242641 -4.242641 
C 3.117479 -5.367802 1.591219 -6 0 -6 
C -1.591219 -6 -3.117479 -5.367802 -4.242641 -4.242641 
C -5.367802 -3.117479 -6 -1.591219 -6 0 
C -6 1.591219 -5.367802 3.117479 -4.242641 4.242641 
C -3.117479 5.367802 -1.591219 6 0 6 
z
" style="stroke: #ff7f0e"/>
    </defs>
    <g clip-path="url(#p34d866086b)">
     <use xlink:href="#m3bdfb4e5c3" x="103.355043" y="313.933602" style="fill: #ff7f0e; stroke: #ff7f0e"/>
     <use xlink:href="#m3bdfb4e5c3" x="166.764134" y="274.500386" style="fill: #ff7f0e; stroke: #ff7f0e"/>
     <use xlink:href="#m3bdfb4e5c3" x="230.173224" y="257.065903" style="fill: #ff7f0e; stroke: #ff7f0e"/>
     <use xlink:href="#m3bdfb4e5c3" x="293.582315" y="234.786907" style="fill: #ff7f0e; stroke: #ff7f0e"/>
     <use xlink:href="#m3bdfb4e5c3" x="356.991406" y="229.892229" style="fill: #ff7f0e; stroke: #ff7f0e"/>
     <use xlink:href="#m3bdfb4e5c3" x="420.400497" y="205.155777" style="fill: #ff7f0e; stroke: #ff7f0e"/>
     <use xlink:href="#m3bdfb4e5c3" x="483.809588" y="196.681163" style="fill: #ff7f0e; stroke: #ff7f0e"/>
     <use xlink:href="#m3bdfb4e5c3" x="547.218679" y="159.400298" style="fill: #ff7f0e; stroke: #ff7f0e"/>
     <use xlink:href="#m3bdfb4e5c3" x="610.62777" y="109.575758" style="fill: #ff7f0e; stroke: #ff7f0e"/>
    </g>
   </g>
   <g id="line2d_26">
    <path d="M 103.355043 830.034375 
L 166.764134 828.524327 
L 230.173224 828.179248 
L 293.582315 828.730972 
L 356.991406 827.699231 
L 420.400497 826.962979 
L 483.809588 825.204896 
L 547.218679 822.321512 
L 610.62777 817.082231 
" clip-path="url(#p34d866086b)" style="fill: none; stroke: #2ca02c; stroke-width: 6; stroke-linecap: square"/>
    <defs>
     <path id="m91b1f83592" d="M -6 0 
L 6 0 
M 0 6 
L 0 -6 
" style="stroke: #2ca02c"/>
    </defs>
    <g clip-path="url(#p34d866086b)">
     <use xlink:href="#m91b1f83592" x="103.355043" y="830.034375" style="fill: #2ca02c; stroke: #2ca02c"/>
     <use xlink:href="#m91b1f83592" x="166.764134" y="828.524327" style="fill: #2ca02c; stroke: #2ca02c"/>
     <use xlink:href="#m91b1f83592" x="230.173224" y="828.179248" style="fill: #2ca02c; stroke: #2ca02c"/>
     <use xlink:href="#m91b1f83592" x="293.582315" y="828.730972" style="fill: #2ca02c; stroke: #2ca02c"/>
     <use xlink:href="#m91b1f83592" x="356.991406" y="827.699231" style="fill: #2ca02c; stroke: #2ca02c"/>
     <use xlink:href="#m91b1f83592" x="420.400497" y="826.962979" style="fill: #2ca02c; stroke: #2ca02c"/>
     <use xlink:href="#m91b1f83592" x="483.809588" y="825.204896" style="fill: #2ca02c; stroke: #2ca02c"/>
     <use xlink:href="#m91b1f83592" x="547.218679" y="822.321512" style="fill: #2ca02c; stroke: #2ca02c"/>
     <use xlink:href="#m91b1f83592" x="610.62777" y="817.082231" style="fill: #2ca02c; stroke: #2ca02c"/>
    </g>
   </g>
   <g id="line2d_27">
    <path d="M 103.355043 613.222783 
L 166.764134 593.292428 
L 230.173224 552.426794 
L 293.582315 586.463658 
L 356.991406 556.25215 
L 420.400497 542.832916 
L 483.809588 531.409899 
L 547.218679 551.079443 
L 610.62777 500.249479 
" clip-path="url(#p34d866086b)" style="fill: none; stroke: #d62728; stroke-width: 6; stroke-linecap: square"/>
    <defs>
     <path id="m71e7ad53bb" d="M -3 -5.196152 
L -6 -0 
L -3 5.196152 
L 3 5.196152 
L 6 0 
L 3 -5.196152 
z
" style="stroke: #d62728; stroke-linejoin: miter"/>
    </defs>
    <g clip-path="url(#p34d866086b)">
     <use xlink:href="#m71e7ad53bb" x="103.355043" y="613.222783" style="fill: #d62728; stroke: #d62728; stroke-linejoin: miter"/>
     <use xlink:href="#m71e7ad53bb" x="166.764134" y="593.292428" style="fill: #d62728; stroke: #d62728; stroke-linejoin: miter"/>
     <use xlink:href="#m71e7ad53bb" x="230.173224" y="552.426794" style="fill: #d62728; stroke: #d62728; stroke-linejoin: miter"/>
     <use xlink:href="#m71e7ad53bb" x="293.582315" y="586.463658" style="fill: #d62728; stroke: #d62728; stroke-linejoin: miter"/>
     <use xlink:href="#m71e7ad53bb" x="356.991406" y="556.25215" style="fill: #d62728; stroke: #d62728; stroke-linejoin: miter"/>
     <use xlink:href="#m71e7ad53bb" x="420.400497" y="542.832916" style="fill: #d62728; stroke: #d62728; stroke-linejoin: miter"/>
     <use xlink:href="#m71e7ad53bb" x="483.809588" y="531.409899" style="fill: #d62728; stroke: #d62728; stroke-linejoin: miter"/>
     <use xlink:href="#m71e7ad53bb" x="547.218679" y="551.079443" style="fill: #d62728; stroke: #d62728; stroke-linejoin: miter"/>
     <use xlink:href="#m71e7ad53bb" x="610.62777" y="500.249479" style="fill: #d62728; stroke: #d62728; stroke-linejoin: miter"/>
    </g>
   </g>
   <g id="line2d_28">
    <path d="M 103.355043 339.758492 
L 166.764134 340.856454 
L 230.173224 338.858378 
L 293.582315 350.030334 
L 356.991406 345.260512 
L 420.400497 337.999561 
L 483.809588 343.596377 
L 547.218679 329.50746 
L 610.62777 313.629223 
" clip-path="url(#p34d866086b)" style="fill: none; stroke: #9467bd; stroke-width: 6; stroke-linecap: square"/>
    <defs>
     <path id="mc4c83cd123" d="M 0 -6 
L -1.347084 -1.854102 
L -5.706339 -1.854102 
L -2.179628 0.708204 
L -3.526712 4.854102 
L -0 2.291796 
L 3.526712 4.854102 
L 2.179628 0.708204 
L 5.706339 -1.854102 
L 1.347084 -1.854102 
z
" style="stroke: #9467bd; stroke-linejoin: bevel"/>
    </defs>
    <g clip-path="url(#p34d866086b)">
     <use xlink:href="#mc4c83cd123" x="103.355043" y="339.758492" style="fill: #9467bd; stroke: #9467bd; stroke-linejoin: bevel"/>
     <use xlink:href="#mc4c83cd123" x="166.764134" y="340.856454" style="fill: #9467bd; stroke: #9467bd; stroke-linejoin: bevel"/>
     <use xlink:href="#mc4c83cd123" x="230.173224" y="338.858378" style="fill: #9467bd; stroke: #9467bd; stroke-linejoin: bevel"/>
     <use xlink:href="#mc4c83cd123" x="293.582315" y="350.030334" style="fill: #9467bd; stroke: #9467bd; stroke-linejoin: bevel"/>
     <use xlink:href="#mc4c83cd123" x="356.991406" y="345.260512" style="fill: #9467bd; stroke: #9467bd; stroke-linejoin: bevel"/>
     <use xlink:href="#mc4c83cd123" x="420.400497" y="337.999561" style="fill: #9467bd; stroke: #9467bd; stroke-linejoin: bevel"/>
     <use xlink:href="#mc4c83cd123" x="483.809588" y="343.596377" style="fill: #9467bd; stroke: #9467bd; stroke-linejoin: bevel"/>
     <use xlink:href="#mc4c83cd123" x="547.218679" y="329.50746" style="fill: #9467bd; stroke: #9467bd; stroke-linejoin: bevel"/>
     <use xlink:href="#mc4c83cd123" x="610.62777" y="313.629223" style="fill: #9467bd; stroke: #9467bd; stroke-linejoin: bevel"/>
    </g>
   </g>
   <g id="line2d_29">
    <path d="M 103.355043 646.735721 
L 166.764134 644.456814 
L 230.173224 647.20646 
L 293.582315 646.006818 
L 356.991406 642.658086 
L 420.400497 646.823452 
L 483.809588 642.098607 
L 547.218679 646.348494 
L 610.62777 633.018526 
" clip-path="url(#p34d866086b)" style="fill: none; stroke: #8c564b; stroke-width: 6; stroke-linecap: square"/>
    <defs>
     <path id="m5990c4679d" d="M -0 8.485281 
L 8.485281 0 
L 0 -8.485281 
L -8.485281 -0 
z
" style="stroke: #8c564b; stroke-linejoin: miter"/>
    </defs>
    <g clip-path="url(#p34d866086b)">
     <use xlink:href="#m5990c4679d" x="103.355043" y="646.735721" style="fill: #8c564b; stroke: #8c564b; stroke-linejoin: miter"/>
     <use xlink:href="#m5990c4679d" x="166.764134" y="644.456814" style="fill: #8c564b; stroke: #8c564b; stroke-linejoin: miter"/>
     <use xlink:href="#m5990c4679d" x="230.173224" y="647.20646" style="fill: #8c564b; stroke: #8c564b; stroke-linejoin: miter"/>
     <use xlink:href="#m5990c4679d" x="293.582315" y="646.006818" style="fill: #8c564b; stroke: #8c564b; stroke-linejoin: miter"/>
     <use xlink:href="#m5990c4679d" x="356.991406" y="642.658086" style="fill: #8c564b; stroke: #8c564b; stroke-linejoin: miter"/>
     <use xlink:href="#m5990c4679d" x="420.400497" y="646.823452" style="fill: #8c564b; stroke: #8c564b; stroke-linejoin: miter"/>
     <use xlink:href="#m5990c4679d" x="483.809588" y="642.098607" style="fill: #8c564b; stroke: #8c564b; stroke-linejoin: miter"/>
     <use xlink:href="#m5990c4679d" x="547.218679" y="646.348494" style="fill: #8c564b; stroke: #8c564b; stroke-linejoin: miter"/>
     <use xlink:href="#m5990c4679d" x="610.62777" y="633.018526" style="fill: #8c564b; stroke: #8c564b; stroke-linejoin: miter"/>
    </g>
   </g>
   <g id="line2d_30">
    <path d="M 103.355043 644.034069 
L 166.764134 651.523994 
L 230.173224 649.970144 
L 293.582315 646.95132 
L 356.991406 639.828359 
L 420.400497 654.601925 
L 483.809588 640.825241 
L 547.218679 655.218338 
L 610.62777 618.14654 
" clip-path="url(#p34d866086b)" style="fill: none; stroke: #e377c2; stroke-width: 6; stroke-linecap: square"/>
    <defs>
     <path id="m373e97b7fb" d="M 0 -6 
L -6 6 
L 6 6 
z
" style="stroke: #e377c2; stroke-linejoin: miter"/>
    </defs>
    <g clip-path="url(#p34d866086b)">
     <use xlink:href="#m373e97b7fb" x="103.355043" y="644.034069" style="fill: #e377c2; stroke: #e377c2; stroke-linejoin: miter"/>
     <use xlink:href="#m373e97b7fb" x="166.764134" y="651.523994" style="fill: #e377c2; stroke: #e377c2; stroke-linejoin: miter"/>
     <use xlink:href="#m373e97b7fb" x="230.173224" y="649.970144" style="fill: #e377c2; stroke: #e377c2; stroke-linejoin: miter"/>
     <use xlink:href="#m373e97b7fb" x="293.582315" y="646.95132" style="fill: #e377c2; stroke: #e377c2; stroke-linejoin: miter"/>
     <use xlink:href="#m373e97b7fb" x="356.991406" y="639.828359" style="fill: #e377c2; stroke: #e377c2; stroke-linejoin: miter"/>
     <use xlink:href="#m373e97b7fb" x="420.400497" y="654.601925" style="fill: #e377c2; stroke: #e377c2; stroke-linejoin: miter"/>
     <use xlink:href="#m373e97b7fb" x="483.809588" y="640.825241" style="fill: #e377c2; stroke: #e377c2; stroke-linejoin: miter"/>
     <use xlink:href="#m373e97b7fb" x="547.218679" y="655.218338" style="fill: #e377c2; stroke: #e377c2; stroke-linejoin: miter"/>
     <use xlink:href="#m373e97b7fb" x="610.62777" y="618.14654" style="fill: #e377c2; stroke: #e377c2; stroke-linejoin: miter"/>
    </g>
   </g>
   <g id="line2d_31">
    <path d="M 103.355043 306.506006 
L 166.764134 300.571884 
L 230.173224 257.32969 
L 293.582315 269.240416 
L 356.991406 268.178531 
L 420.400497 245.850244 
L 483.809588 241.091044 
L 547.218679 200.60972 
L 610.62777 196.98668 
" clip-path="url(#p34d866086b)" style="fill: none; stroke: #7f7f7f; stroke-width: 6; stroke-linecap: square"/>
    <defs>
     <path id="m6fcbf9d08a" d="M -6 6 
L 6 -6 
M -6 -6 
L 6 6 
" style="stroke: #7f7f7f"/>
    </defs>
    <g clip-path="url(#p34d866086b)">
     <use xlink:href="#m6fcbf9d08a" x="103.355043" y="306.506006" style="fill: #7f7f7f; stroke: #7f7f7f"/>
     <use xlink:href="#m6fcbf9d08a" x="166.764134" y="300.571884" style="fill: #7f7f7f; stroke: #7f7f7f"/>
     <use xlink:href="#m6fcbf9d08a" x="230.173224" y="257.32969" style="fill: #7f7f7f; stroke: #7f7f7f"/>
     <use xlink:href="#m6fcbf9d08a" x="293.582315" y="269.240416" style="fill: #7f7f7f; stroke: #7f7f7f"/>
     <use xlink:href="#m6fcbf9d08a" x="356.991406" y="268.178531" style="fill: #7f7f7f; stroke: #7f7f7f"/>
     <use xlink:href="#m6fcbf9d08a" x="420.400497" y="245.850244" style="fill: #7f7f7f; stroke: #7f7f7f"/>
     <use xlink:href="#m6fcbf9d08a" x="483.809588" y="241.091044" style="fill: #7f7f7f; stroke: #7f7f7f"/>
     <use xlink:href="#m6fcbf9d08a" x="547.218679" y="200.60972" style="fill: #7f7f7f; stroke: #7f7f7f"/>
     <use xlink:href="#m6fcbf9d08a" x="610.62777" y="196.98668" style="fill: #7f7f7f; stroke: #7f7f7f"/>
    </g>
   </g>
   <g id="line2d_32">
    <path d="M 103.355043 283.126347 
L 166.764134 250.272029 
L 230.173224 224.829674 
L 293.582315 216.96798 
L 356.991406 219.236563 
L 420.400497 187.64218 
L 483.809588 158.721838 
L 547.218679 135.488778 
L 610.62777 74.034375 
" clip-path="url(#p34d866086b)" style="fill: none; stroke: #bcbd22; stroke-width: 6; stroke-linecap: square"/>
    <defs>
     <path id="m1cc5cf664d" d="M 0 -6 
L -5.706339 -1.854102 
L -3.526712 4.854102 
L 3.526712 4.854102 
L 5.706339 -1.854102 
z
" style="stroke: #bcbd22; stroke-linejoin: miter"/>
    </defs>
    <g clip-path="url(#p34d866086b)">
     <use xlink:href="#m1cc5cf664d" x="103.355043" y="283.126347" style="fill: #bcbd22; stroke: #bcbd22; stroke-linejoin: miter"/>
     <use xlink:href="#m1cc5cf664d" x="166.764134" y="250.272029" style="fill: #bcbd22; stroke: #bcbd22; stroke-linejoin: miter"/>
     <use xlink:href="#m1cc5cf664d" x="230.173224" y="224.829674" style="fill: #bcbd22; stroke: #bcbd22; stroke-linejoin: miter"/>
     <use xlink:href="#m1cc5cf664d" x="293.582315" y="216.96798" style="fill: #bcbd22; stroke: #bcbd22; stroke-linejoin: miter"/>
     <use xlink:href="#m1cc5cf664d" x="356.991406" y="219.236563" style="fill: #bcbd22; stroke: #bcbd22; stroke-linejoin: miter"/>
     <use xlink:href="#m1cc5cf664d" x="420.400497" y="187.64218" style="fill: #bcbd22; stroke: #bcbd22; stroke-linejoin: miter"/>
     <use xlink:href="#m1cc5cf664d" x="483.809588" y="158.721838" style="fill: #bcbd22; stroke: #bcbd22; stroke-linejoin: miter"/>
     <use xlink:href="#m1cc5cf664d" x="547.218679" y="135.488778" style="fill: #bcbd22; stroke: #bcbd22; stroke-linejoin: miter"/>
     <use xlink:href="#m1cc5cf664d" x="610.62777" y="74.034375" style="fill: #bcbd22; stroke: #bcbd22; stroke-linejoin: miter"/>
    </g>
   </g>
   <g id="line2d_33">
    <path d="M 103.355043 304.800158 
L 166.764134 277.710958 
L 230.173224 284.949258 
L 293.582315 282.917348 
L 356.991406 267.999015 
L 420.400497 248.507611 
L 483.809588 243.961861 
L 547.218679 220.465845 
L 610.62777 154.521112 
" clip-path="url(#p34d866086b)" style="fill: none; stroke: #17becf; stroke-width: 6; stroke-linecap: square"/>
    <defs>
     <path id="m9aca406dcb" d="M 0 6 
L 0 -6 
" style="stroke: #17becf"/>
    </defs>
    <g clip-path="url(#p34d866086b)">
     <use xlink:href="#m9aca406dcb" x="103.355043" y="304.800158" style="fill: #17becf; stroke: #17becf"/>
     <use xlink:href="#m9aca406dcb" x="166.764134" y="277.710958" style="fill: #17becf; stroke: #17becf"/>
     <use xlink:href="#m9aca406dcb" x="230.173224" y="284.949258" style="fill: #17becf; stroke: #17becf"/>
     <use xlink:href="#m9aca406dcb" x="293.582315" y="282.917348" style="fill: #17becf; stroke: #17becf"/>
     <use xlink:href="#m9aca406dcb" x="356.991406" y="267.999015" style="fill: #17becf; stroke: #17becf"/>
     <use xlink:href="#m9aca406dcb" x="420.400497" y="248.507611" style="fill: #17becf; stroke: #17becf"/>
     <use xlink:href="#m9aca406dcb" x="483.809588" y="243.961861" style="fill: #17becf; stroke: #17becf"/>
     <use xlink:href="#m9aca406dcb" x="547.218679" y="220.465845" style="fill: #17becf; stroke: #17becf"/>
     <use xlink:href="#m9aca406dcb" x="610.62777" y="154.521112" style="fill: #17becf; stroke: #17becf"/>
    </g>
   </g>
   <g id="patch_3">
    <path d="M 77.991406 867.834375 
L 77.991406 36.234375 
" style="fill: none; stroke: #000000; stroke-width: 0.8; stroke-linejoin: miter; stroke-linecap: square"/>
   </g>
   <g id="patch_4">
    <path d="M 635.991406 867.834375 
L 635.991406 36.234375 
" style="fill: none; stroke: #000000; stroke-width: 0.8; stroke-linejoin: miter; stroke-linecap: square"/>
   </g>
   <g id="patch_5">
    <path d="M 77.991406 867.834375 
L 635.991406 867.834375 
" style="fill: none; stroke: #000000; stroke-width: 0.8; stroke-linejoin: miter; stroke-linecap: square"/>
   </g>
   <g id="patch_6">
    <path d="M 77.991406 36.234375 
L 635.991406 36.234375 
" style="fill: none; stroke: #000000; stroke-width: 0.8; stroke-linejoin: miter; stroke-linecap: square"/>
   </g>
   <g id="text_19">
    <!-- Movies - Openended -->
    <g transform="translate(184.226563 29.995313) scale(0.3 -0.3)">
     <defs>
      <path id="DejaVuSans-Bold-4d" d="M 588 4666 
L 2119 4666 
L 3181 2169 
L 4250 4666 
L 5778 4666 
L 5778 0 
L 4641 0 
L 4641 3413 
L 3566 897 
L 2803 897 
L 1728 3413 
L 1728 0 
L 588 0 
L 588 4666 
z
" transform="scale(0.015625)"/>
      <path id="DejaVuSans-Bold-76" d="M 97 3500 
L 1216 3500 
L 2088 1081 
L 2956 3500 
L 4078 3500 
L 2700 0 
L 1472 0 
L 97 3500 
z
" transform="scale(0.015625)"/>
      <path id="DejaVuSans-Bold-2d" d="M 347 2297 
L 2309 2297 
L 2309 1388 
L 347 1388 
L 347 2297 
z
" transform="scale(0.015625)"/>
      <path id="DejaVuSans-Bold-4f" d="M 2719 3878 
Q 2169 3878 1866 3472 
Q 1563 3066 1563 2328 
Q 1563 1594 1866 1187 
Q 2169 781 2719 781 
Q 3272 781 3575 1187 
Q 3878 1594 3878 2328 
Q 3878 3066 3575 3472 
Q 3272 3878 2719 3878 
z
M 2719 4750 
Q 3844 4750 4481 4106 
Q 5119 3463 5119 2328 
Q 5119 1197 4481 553 
Q 3844 -91 2719 -91 
Q 1597 -91 958 553 
Q 319 1197 319 2328 
Q 319 3463 958 4106 
Q 1597 4750 2719 4750 
z
" transform="scale(0.015625)"/>
      <path id="DejaVuSans-Bold-70" d="M 1656 506 
L 1656 -1331 
L 538 -1331 
L 538 3500 
L 1656 3500 
L 1656 2988 
Q 1888 3294 2169 3439 
Q 2450 3584 2816 3584 
Q 3463 3584 3878 3070 
Q 4294 2556 4294 1747 
Q 4294 938 3878 423 
Q 3463 -91 2816 -91 
Q 2450 -91 2169 54 
Q 1888 200 1656 506 
z
M 2400 2772 
Q 2041 2772 1848 2508 
Q 1656 2244 1656 1747 
Q 1656 1250 1848 986 
Q 2041 722 2400 722 
Q 2759 722 2948 984 
Q 3138 1247 3138 1747 
Q 3138 2247 2948 2509 
Q 2759 2772 2400 2772 
z
" transform="scale(0.015625)"/>
     </defs>
     <use xlink:href="#DejaVuSans-Bold-4d"/>
     <use xlink:href="#DejaVuSans-Bold-6f" x="99.511719"/>
     <use xlink:href="#DejaVuSans-Bold-76" x="168.212891"/>
     <use xlink:href="#DejaVuSans-Bold-69" x="233.398438"/>
     <use xlink:href="#DejaVuSans-Bold-65" x="267.675781"/>
     <use xlink:href="#DejaVuSans-Bold-73" x="335.498047"/>
     <use xlink:href="#DejaVuSans-Bold-20" x="395.019531"/>
     <use xlink:href="#DejaVuSans-Bold-2d" x="429.833984"/>
     <use xlink:href="#DejaVuSans-Bold-20" x="471.337891"/>
     <use xlink:href="#DejaVuSans-Bold-4f" x="506.152344"/>
     <use xlink:href="#DejaVuSans-Bold-70" x="591.162109"/>
     <use xlink:href="#DejaVuSans-Bold-65" x="662.744141"/>
     <use xlink:href="#DejaVuSans-Bold-6e" x="730.566406"/>
     <use xlink:href="#DejaVuSans-Bold-65" x="801.757812"/>
     <use xlink:href="#DejaVuSans-Bold-6e" x="869.580078"/>
     <use xlink:href="#DejaVuSans-Bold-64" x="940.771484"/>
     <use xlink:href="#DejaVuSans-Bold-65" x="1012.353516"/>
     <use xlink:href="#DejaVuSans-Bold-64" x="1080.175781"/>
    </g>
   </g>
  </g>
 </g>
 <defs>
  <clipPath id="p34d866086b">
   <rect x="77.991406" y="36.234375" width="558" height="831.6"/>
  </clipPath>
 </defs>
</svg>
