<?xml version="1.0" encoding="utf-8" standalone="no"?>
<!DOCTYPE svg PUBLIC "-//W3C//DTD SVG 1.1//EN"
  "http://www.w3.org/Graphics/SVG/1.1/DTD/svg11.dtd">
<svg xmlns:xlink="http://www.w3.org/1999/xlink" width="634.660937pt" height="926.5625pt" viewBox="0 0 634.660937 926.5625" xmlns="http://www.w3.org/2000/svg" version="1.1">
 <metadata>
  <rdf:RDF xmlns:dc="http://purl.org/dc/elements/1.1/" xmlns:cc="http://creativecommons.org/ns#" xmlns:rdf="http://www.w3.org/1999/02/22-rdf-syntax-ns#">
   <cc:Work>
    <dc:type rdf:resource="http://purl.org/dc/dcmitype/StillImage"/>
    <dc:date>2024-03-27T18:41:33.017408</dc:date>
    <dc:format>image/svg+xml</dc:format>
    <dc:creator>
     <cc:Agent>
      <dc:title>Matplotlib v3.7.2, https://matplotlib.org/</dc:title>
     </cc:Agent>
    </dc:creator>
   </cc:Work>
  </rdf:RDF>
 </metadata>
 <defs>
  <style type="text/css">*{stroke-linejoin: round; stroke-linecap: butt}</style>
 </defs>
 <g id="figure_1">
  <g id="patch_1">
   <path d="M 0 926.5625 
L 634.660937 926.5625 
L 634.660937 0 
L 0 0 
z
" style="fill: #ffffff"/>
  </g>
  <g id="axes_1">
   <g id="patch_2">
    <path d="M 69.460938 866.639062 
L 627.460938 866.639062 
L 627.460938 35.039062 
L 69.460938 35.039062 
z
" style="fill: #eaeaf2"/>
   </g>
   <g id="matplotlib.axis_1">
    <g id="xtick_1">
     <g id="line2d_1">
      <path d="M 94.824574 866.639062 
L 94.824574 35.039062 
" clip-path="url(#p9bd24b8d57)" style="fill: none; stroke: #ffffff; stroke-width: 0.8; stroke-linecap: round"/>
     </g>
     <g id="text_1">
      <!-- 10% -->
      <g style="fill: #262626" transform="translate(74.810511 887.954687) scale(0.2 -0.2)">
       <defs>
        <path id="Arial-BoldMT-31" d="M 2519 0 
L 1641 0 
L 1641 3309 
Q 1159 2859 506 2644 
L 506 3441 
Q 850 3553 1253 3867 
Q 1656 4181 1806 4600 
L 2519 4600 
L 2519 0 
z
" transform="scale(0.015625)"/>
        <path id="Arial-BoldMT-30" d="M 1756 4600 
Q 2422 4600 2797 4125 
Q 3244 3563 3244 2259 
Q 3244 959 2794 391 
Q 2422 -78 1756 -78 
Q 1088 -78 678 436 
Q 269 950 269 2269 
Q 269 3563 719 4131 
Q 1091 4600 1756 4600 
z
M 1756 3872 
Q 1597 3872 1472 3770 
Q 1347 3669 1278 3406 
Q 1188 3066 1188 2259 
Q 1188 1453 1269 1151 
Q 1350 850 1473 750 
Q 1597 650 1756 650 
Q 1916 650 2041 751 
Q 2166 853 2234 1116 
Q 2325 1453 2325 2259 
Q 2325 3066 2244 3367 
Q 2163 3669 2039 3770 
Q 1916 3872 1756 3872 
z
" transform="scale(0.015625)"/>
        <path id="Arial-BoldMT-25" d="M 278 3450 
Q 278 4066 548 4362 
Q 819 4659 1281 4659 
Q 1759 4659 2029 4364 
Q 2300 4069 2300 3450 
Q 2300 2834 2029 2537 
Q 1759 2241 1297 2241 
Q 819 2241 548 2536 
Q 278 2831 278 3450 
z
M 963 3456 
Q 963 3009 1066 2856 
Q 1144 2744 1281 2744 
Q 1422 2744 1500 2856 
Q 1600 3009 1600 3456 
Q 1600 3903 1500 4053 
Q 1422 4169 1281 4169 
Q 1144 4169 1066 4056 
Q 963 3903 963 3456 
z
M 1950 -175 
L 1300 -175 
L 3741 4659 
L 4372 4659 
L 1950 -175 
z
M 3369 1028 
Q 3369 1644 3639 1941 
Q 3909 2238 4378 2238 
Q 4850 2238 5120 1941 
Q 5391 1644 5391 1028 
Q 5391 409 5120 112 
Q 4850 -184 4388 -184 
Q 3909 -184 3639 112 
Q 3369 409 3369 1028 
z
M 4053 1031 
Q 4053 584 4156 434 
Q 4234 319 4372 319 
Q 4513 319 4588 431 
Q 4691 584 4691 1031 
Q 4691 1478 4591 1631 
Q 4513 1744 4372 1744 
Q 4231 1744 4156 1631 
Q 4053 1478 4053 1031 
z
" transform="scale(0.015625)"/>
       </defs>
       <use xlink:href="#Arial-BoldMT-31"/>
       <use xlink:href="#Arial-BoldMT-30" x="55.615234"/>
       <use xlink:href="#Arial-BoldMT-25" x="111.230469"/>
      </g>
     </g>
    </g>
    <g id="xtick_2">
     <g id="line2d_2">
      <path d="M 158.233665 866.639062 
L 158.233665 35.039062 
" clip-path="url(#p9bd24b8d57)" style="fill: none; stroke: #ffffff; stroke-width: 0.8; stroke-linecap: round"/>
     </g>
     <g id="text_2">
      <!-- 20% -->
      <g style="fill: #262626" transform="translate(138.219602 887.954687) scale(0.2 -0.2)">
       <defs>
        <path id="Arial-BoldMT-32" d="M 3238 816 
L 3238 0 
L 159 0 
Q 209 463 459 877 
Q 709 1291 1447 1975 
Q 2041 2528 2175 2725 
Q 2356 2997 2356 3263 
Q 2356 3556 2198 3714 
Q 2041 3872 1763 3872 
Q 1488 3872 1325 3706 
Q 1163 3541 1138 3156 
L 263 3244 
Q 341 3969 753 4284 
Q 1166 4600 1784 4600 
Q 2463 4600 2850 4234 
Q 3238 3869 3238 3325 
Q 3238 3016 3127 2736 
Q 3016 2456 2775 2150 
Q 2616 1947 2200 1565 
Q 1784 1184 1673 1059 
Q 1563 934 1494 816 
L 3238 816 
z
" transform="scale(0.015625)"/>
       </defs>
       <use xlink:href="#Arial-BoldMT-32"/>
       <use xlink:href="#Arial-BoldMT-30" x="55.615234"/>
       <use xlink:href="#Arial-BoldMT-25" x="111.230469"/>
      </g>
     </g>
    </g>
    <g id="xtick_3">
     <g id="line2d_3">
      <path d="M 221.642756 866.639062 
L 221.642756 35.039062 
" clip-path="url(#p9bd24b8d57)" style="fill: none; stroke: #ffffff; stroke-width: 0.8; stroke-linecap: round"/>
     </g>
     <g id="text_3">
      <!-- 30% -->
      <g style="fill: #262626" transform="translate(201.628693 887.954687) scale(0.2 -0.2)">
       <defs>
        <path id="Arial-BoldMT-33" d="M 241 1216 
L 1091 1319 
Q 1131 994 1309 822 
Q 1488 650 1741 650 
Q 2013 650 2198 856 
Q 2384 1063 2384 1413 
Q 2384 1744 2206 1937 
Q 2028 2131 1772 2131 
Q 1603 2131 1369 2066 
L 1466 2781 
Q 1822 2772 2009 2936 
Q 2197 3100 2197 3372 
Q 2197 3603 2059 3740 
Q 1922 3878 1694 3878 
Q 1469 3878 1309 3722 
Q 1150 3566 1116 3266 
L 306 3403 
Q 391 3819 561 4067 
Q 731 4316 1036 4458 
Q 1341 4600 1719 4600 
Q 2366 4600 2756 4188 
Q 3078 3850 3078 3425 
Q 3078 2822 2419 2463 
Q 2813 2378 3048 2084 
Q 3284 1791 3284 1375 
Q 3284 772 2843 347 
Q 2403 -78 1747 -78 
Q 1125 -78 715 280 
Q 306 638 241 1216 
z
" transform="scale(0.015625)"/>
       </defs>
       <use xlink:href="#Arial-BoldMT-33"/>
       <use xlink:href="#Arial-BoldMT-30" x="55.615234"/>
       <use xlink:href="#Arial-BoldMT-25" x="111.230469"/>
      </g>
     </g>
    </g>
    <g id="xtick_4">
     <g id="line2d_4">
      <path d="M 285.051847 866.639062 
L 285.051847 35.039062 
" clip-path="url(#p9bd24b8d57)" style="fill: none; stroke: #ffffff; stroke-width: 0.8; stroke-linecap: round"/>
     </g>
     <g id="text_4">
      <!-- 40% -->
      <g style="fill: #262626" transform="translate(265.037784 887.954687) scale(0.2 -0.2)">
       <defs>
        <path id="Arial-BoldMT-34" d="M 1994 0 
L 1994 922 
L 119 922 
L 119 1691 
L 2106 4600 
L 2844 4600 
L 2844 1694 
L 3413 1694 
L 3413 922 
L 2844 922 
L 2844 0 
L 1994 0 
z
M 1994 1694 
L 1994 3259 
L 941 1694 
L 1994 1694 
z
" transform="scale(0.015625)"/>
       </defs>
       <use xlink:href="#Arial-BoldMT-34"/>
       <use xlink:href="#Arial-BoldMT-30" x="55.615234"/>
       <use xlink:href="#Arial-BoldMT-25" x="111.230469"/>
      </g>
     </g>
    </g>
    <g id="xtick_5">
     <g id="line2d_5">
      <path d="M 348.460938 866.639062 
L 348.460938 35.039062 
" clip-path="url(#p9bd24b8d57)" style="fill: none; stroke: #ffffff; stroke-width: 0.8; stroke-linecap: round"/>
     </g>
     <g id="text_5">
      <!-- 50% -->
      <g style="fill: #262626" transform="translate(328.446875 887.954687) scale(0.2 -0.2)">
       <defs>
        <path id="Arial-BoldMT-35" d="M 284 1178 
L 1159 1269 
Q 1197 972 1381 798 
Q 1566 625 1806 625 
Q 2081 625 2272 848 
Q 2463 1072 2463 1522 
Q 2463 1944 2273 2155 
Q 2084 2366 1781 2366 
Q 1403 2366 1103 2031 
L 391 2134 
L 841 4519 
L 3163 4519 
L 3163 3697 
L 1506 3697 
L 1369 2919 
Q 1663 3066 1969 3066 
Q 2553 3066 2959 2641 
Q 3366 2216 3366 1538 
Q 3366 972 3038 528 
Q 2591 -78 1797 -78 
Q 1163 -78 763 262 
Q 363 603 284 1178 
z
" transform="scale(0.015625)"/>
       </defs>
       <use xlink:href="#Arial-BoldMT-35"/>
       <use xlink:href="#Arial-BoldMT-30" x="55.615234"/>
       <use xlink:href="#Arial-BoldMT-25" x="111.230469"/>
      </g>
     </g>
    </g>
    <g id="xtick_6">
     <g id="line2d_6">
      <path d="M 411.870028 866.639062 
L 411.870028 35.039062 
" clip-path="url(#p9bd24b8d57)" style="fill: none; stroke: #ffffff; stroke-width: 0.8; stroke-linecap: round"/>
     </g>
     <g id="text_6">
      <!-- 60% -->
      <g style="fill: #262626" transform="translate(391.855966 887.954687) scale(0.2 -0.2)">
       <defs>
        <path id="Arial-BoldMT-36" d="M 3247 3459 
L 2397 3366 
Q 2366 3628 2234 3753 
Q 2103 3878 1894 3878 
Q 1616 3878 1423 3628 
Q 1231 3378 1181 2588 
Q 1509 2975 1997 2975 
Q 2547 2975 2939 2556 
Q 3331 2138 3331 1475 
Q 3331 772 2918 347 
Q 2506 -78 1859 -78 
Q 1166 -78 719 461 
Q 272 1000 272 2228 
Q 272 3488 737 4044 
Q 1203 4600 1947 4600 
Q 2469 4600 2811 4308 
Q 3153 4016 3247 3459 
z
M 1256 1544 
Q 1256 1116 1453 883 
Q 1650 650 1903 650 
Q 2147 650 2309 840 
Q 2472 1031 2472 1466 
Q 2472 1913 2297 2120 
Q 2122 2328 1859 2328 
Q 1606 2328 1431 2129 
Q 1256 1931 1256 1544 
z
" transform="scale(0.015625)"/>
       </defs>
       <use xlink:href="#Arial-BoldMT-36"/>
       <use xlink:href="#Arial-BoldMT-30" x="55.615234"/>
       <use xlink:href="#Arial-BoldMT-25" x="111.230469"/>
      </g>
     </g>
    </g>
    <g id="xtick_7">
     <g id="line2d_7">
      <path d="M 475.279119 866.639062 
L 475.279119 35.039062 
" clip-path="url(#p9bd24b8d57)" style="fill: none; stroke: #ffffff; stroke-width: 0.8; stroke-linecap: round"/>
     </g>
     <g id="text_7">
      <!-- 70% -->
      <g style="fill: #262626" transform="translate(455.265057 887.954687) scale(0.2 -0.2)">
       <defs>
        <path id="Arial-BoldMT-37" d="M 272 3703 
L 272 4519 
L 3275 4519 
L 3275 3881 
Q 2903 3516 2518 2831 
Q 2134 2147 1932 1376 
Q 1731 606 1734 0 
L 888 0 
Q 909 950 1279 1937 
Q 1650 2925 2269 3703 
L 272 3703 
z
" transform="scale(0.015625)"/>
       </defs>
       <use xlink:href="#Arial-BoldMT-37"/>
       <use xlink:href="#Arial-BoldMT-30" x="55.615234"/>
       <use xlink:href="#Arial-BoldMT-25" x="111.230469"/>
      </g>
     </g>
    </g>
    <g id="xtick_8">
     <g id="line2d_8">
      <path d="M 538.68821 866.639062 
L 538.68821 35.039062 
" clip-path="url(#p9bd24b8d57)" style="fill: none; stroke: #ffffff; stroke-width: 0.8; stroke-linecap: round"/>
     </g>
     <g id="text_8">
      <!-- 80% -->
      <g style="fill: #262626" transform="translate(518.674148 887.954687) scale(0.2 -0.2)">
       <defs>
        <path id="Arial-BoldMT-38" d="M 1025 2472 
Q 684 2616 529 2867 
Q 375 3119 375 3419 
Q 375 3931 733 4265 
Q 1091 4600 1750 4600 
Q 2403 4600 2764 4265 
Q 3125 3931 3125 3419 
Q 3125 3100 2959 2851 
Q 2794 2603 2494 2472 
Q 2875 2319 3073 2025 
Q 3272 1731 3272 1347 
Q 3272 713 2867 316 
Q 2463 -81 1791 -81 
Q 1166 -81 750 247 
Q 259 634 259 1309 
Q 259 1681 443 1992 
Q 628 2303 1025 2472 
z
M 1206 3356 
Q 1206 3094 1354 2947 
Q 1503 2800 1750 2800 
Q 2000 2800 2150 2948 
Q 2300 3097 2300 3359 
Q 2300 3606 2151 3754 
Q 2003 3903 1759 3903 
Q 1506 3903 1356 3753 
Q 1206 3603 1206 3356 
z
M 1125 1394 
Q 1125 1031 1311 828 
Q 1497 625 1775 625 
Q 2047 625 2225 820 
Q 2403 1016 2403 1384 
Q 2403 1706 2222 1901 
Q 2041 2097 1763 2097 
Q 1441 2097 1283 1875 
Q 1125 1653 1125 1394 
z
" transform="scale(0.015625)"/>
       </defs>
       <use xlink:href="#Arial-BoldMT-38"/>
       <use xlink:href="#Arial-BoldMT-30" x="55.615234"/>
       <use xlink:href="#Arial-BoldMT-25" x="111.230469"/>
      </g>
     </g>
    </g>
    <g id="xtick_9">
     <g id="line2d_9">
      <path d="M 602.097301 866.639062 
L 602.097301 35.039062 
" clip-path="url(#p9bd24b8d57)" style="fill: none; stroke: #ffffff; stroke-width: 0.8; stroke-linecap: round"/>
     </g>
     <g id="text_9">
      <!-- 90% -->
      <g style="fill: #262626" transform="translate(582.083239 887.954687) scale(0.2 -0.2)">
       <defs>
        <path id="Arial-BoldMT-39" d="M 291 1059 
L 1141 1153 
Q 1172 894 1303 769 
Q 1434 644 1650 644 
Q 1922 644 2112 894 
Q 2303 1144 2356 1931 
Q 2025 1547 1528 1547 
Q 988 1547 595 1964 
Q 203 2381 203 3050 
Q 203 3747 617 4173 
Q 1031 4600 1672 4600 
Q 2369 4600 2816 4061 
Q 3263 3522 3263 2288 
Q 3263 1031 2797 475 
Q 2331 -81 1584 -81 
Q 1047 -81 715 205 
Q 384 491 291 1059 
z
M 2278 2978 
Q 2278 3403 2083 3637 
Q 1888 3872 1631 3872 
Q 1388 3872 1227 3680 
Q 1066 3488 1066 3050 
Q 1066 2606 1241 2398 
Q 1416 2191 1678 2191 
Q 1931 2191 2104 2391 
Q 2278 2591 2278 2978 
z
" transform="scale(0.015625)"/>
       </defs>
       <use xlink:href="#Arial-BoldMT-39"/>
       <use xlink:href="#Arial-BoldMT-30" x="55.615234"/>
       <use xlink:href="#Arial-BoldMT-25" x="111.230469"/>
      </g>
     </g>
    </g>
    <g id="text_10">
     <!-- Percentage of data used for training -->
     <g style="fill: #262626" transform="translate(134.548828 914.100781) scale(0.25 -0.25)">
      <defs>
       <path id="Arial-BoldMT-50" d="M 466 0 
L 466 4581 
L 1950 4581 
Q 2794 4581 3050 4513 
Q 3444 4409 3709 4064 
Q 3975 3719 3975 3172 
Q 3975 2750 3822 2462 
Q 3669 2175 3433 2011 
Q 3197 1847 2953 1794 
Q 2622 1728 1994 1728 
L 1391 1728 
L 1391 0 
L 466 0 
z
M 1391 3806 
L 1391 2506 
L 1897 2506 
Q 2444 2506 2628 2578 
Q 2813 2650 2917 2803 
Q 3022 2956 3022 3159 
Q 3022 3409 2875 3571 
Q 2728 3734 2503 3775 
Q 2338 3806 1838 3806 
L 1391 3806 
z
" transform="scale(0.015625)"/>
       <path id="Arial-BoldMT-65" d="M 2381 1056 
L 3256 909 
Q 3088 428 2723 176 
Q 2359 -75 1813 -75 
Q 947 -75 531 491 
Q 203 944 203 1634 
Q 203 2459 634 2926 
Q 1066 3394 1725 3394 
Q 2466 3394 2894 2905 
Q 3322 2416 3303 1406 
L 1103 1406 
Q 1113 1016 1316 798 
Q 1519 581 1822 581 
Q 2028 581 2168 693 
Q 2309 806 2381 1056 
z
M 2431 1944 
Q 2422 2325 2234 2523 
Q 2047 2722 1778 2722 
Q 1491 2722 1303 2513 
Q 1116 2303 1119 1944 
L 2431 1944 
z
" transform="scale(0.015625)"/>
       <path id="Arial-BoldMT-72" d="M 1300 0 
L 422 0 
L 422 3319 
L 1238 3319 
L 1238 2847 
Q 1447 3181 1614 3287 
Q 1781 3394 1994 3394 
Q 2294 3394 2572 3228 
L 2300 2463 
Q 2078 2606 1888 2606 
Q 1703 2606 1575 2504 
Q 1447 2403 1373 2137 
Q 1300 1872 1300 1025 
L 1300 0 
z
" transform="scale(0.015625)"/>
       <path id="Arial-BoldMT-63" d="M 3353 2338 
L 2488 2181 
Q 2444 2441 2289 2572 
Q 2134 2703 1888 2703 
Q 1559 2703 1364 2476 
Q 1169 2250 1169 1719 
Q 1169 1128 1367 884 
Q 1566 641 1900 641 
Q 2150 641 2309 783 
Q 2469 925 2534 1272 
L 3397 1125 
Q 3263 531 2881 228 
Q 2500 -75 1859 -75 
Q 1131 -75 698 384 
Q 266 844 266 1656 
Q 266 2478 700 2936 
Q 1134 3394 1875 3394 
Q 2481 3394 2839 3133 
Q 3197 2872 3353 2338 
z
" transform="scale(0.015625)"/>
       <path id="Arial-BoldMT-6e" d="M 3478 0 
L 2600 0 
L 2600 1694 
Q 2600 2231 2544 2389 
Q 2488 2547 2361 2634 
Q 2234 2722 2056 2722 
Q 1828 2722 1647 2597 
Q 1466 2472 1398 2265 
Q 1331 2059 1331 1503 
L 1331 0 
L 453 0 
L 453 3319 
L 1269 3319 
L 1269 2831 
Q 1703 3394 2363 3394 
Q 2653 3394 2893 3289 
Q 3134 3184 3257 3021 
Q 3381 2859 3429 2653 
Q 3478 2447 3478 2063 
L 3478 0 
z
" transform="scale(0.015625)"/>
       <path id="Arial-BoldMT-74" d="M 1981 3319 
L 1981 2619 
L 1381 2619 
L 1381 1281 
Q 1381 875 1398 808 
Q 1416 741 1477 697 
Q 1538 653 1625 653 
Q 1747 653 1978 738 
L 2053 56 
Q 1747 -75 1359 -75 
Q 1122 -75 931 4 
Q 741 84 652 211 
Q 563 338 528 553 
Q 500 706 500 1172 
L 500 2619 
L 97 2619 
L 97 3319 
L 500 3319 
L 500 3978 
L 1381 4491 
L 1381 3319 
L 1981 3319 
z
" transform="scale(0.015625)"/>
       <path id="Arial-BoldMT-61" d="M 1116 2306 
L 319 2450 
Q 453 2931 781 3162 
Q 1109 3394 1756 3394 
Q 2344 3394 2631 3255 
Q 2919 3116 3036 2902 
Q 3153 2688 3153 2116 
L 3144 1091 
Q 3144 653 3186 445 
Q 3228 238 3344 0 
L 2475 0 
Q 2441 88 2391 259 
Q 2369 338 2359 363 
Q 2134 144 1878 34 
Q 1622 -75 1331 -75 
Q 819 -75 523 203 
Q 228 481 228 906 
Q 228 1188 362 1408 
Q 497 1628 739 1745 
Q 981 1863 1438 1950 
Q 2053 2066 2291 2166 
L 2291 2253 
Q 2291 2506 2166 2614 
Q 2041 2722 1694 2722 
Q 1459 2722 1328 2630 
Q 1197 2538 1116 2306 
z
M 2291 1594 
Q 2122 1538 1756 1459 
Q 1391 1381 1278 1306 
Q 1106 1184 1106 997 
Q 1106 813 1243 678 
Q 1381 544 1594 544 
Q 1831 544 2047 700 
Q 2206 819 2256 991 
Q 2291 1103 2291 1419 
L 2291 1594 
z
" transform="scale(0.015625)"/>
       <path id="Arial-BoldMT-67" d="M 378 -219 
L 1381 -341 
Q 1406 -516 1497 -581 
Q 1622 -675 1891 -675 
Q 2234 -675 2406 -572 
Q 2522 -503 2581 -350 
Q 2622 -241 2622 53 
L 2622 538 
Q 2228 0 1628 0 
Q 959 0 569 566 
Q 263 1013 263 1678 
Q 263 2513 664 2953 
Q 1066 3394 1663 3394 
Q 2278 3394 2678 2853 
L 2678 3319 
L 3500 3319 
L 3500 341 
Q 3500 -247 3403 -537 
Q 3306 -828 3131 -993 
Q 2956 -1159 2664 -1253 
Q 2372 -1347 1925 -1347 
Q 1081 -1347 728 -1058 
Q 375 -769 375 -325 
Q 375 -281 378 -219 
z
M 1163 1728 
Q 1163 1200 1367 954 
Q 1572 709 1872 709 
Q 2194 709 2416 961 
Q 2638 1213 2638 1706 
Q 2638 2222 2425 2472 
Q 2213 2722 1888 2722 
Q 1572 2722 1367 2476 
Q 1163 2231 1163 1728 
z
" transform="scale(0.015625)"/>
       <path id="Arial-BoldMT-20" transform="scale(0.015625)"/>
       <path id="Arial-BoldMT-6f" d="M 256 1706 
Q 256 2144 472 2553 
Q 688 2963 1083 3178 
Q 1478 3394 1966 3394 
Q 2719 3394 3200 2905 
Q 3681 2416 3681 1669 
Q 3681 916 3195 420 
Q 2709 -75 1972 -75 
Q 1516 -75 1102 131 
Q 688 338 472 736 
Q 256 1134 256 1706 
z
M 1156 1659 
Q 1156 1166 1390 903 
Q 1625 641 1969 641 
Q 2313 641 2545 903 
Q 2778 1166 2778 1666 
Q 2778 2153 2545 2415 
Q 2313 2678 1969 2678 
Q 1625 2678 1390 2415 
Q 1156 2153 1156 1659 
z
" transform="scale(0.015625)"/>
       <path id="Arial-BoldMT-66" d="M 75 3319 
L 563 3319 
L 563 3569 
Q 563 3988 652 4194 
Q 741 4400 980 4529 
Q 1219 4659 1584 4659 
Q 1959 4659 2319 4547 
L 2200 3934 
Q 1991 3984 1797 3984 
Q 1606 3984 1523 3895 
Q 1441 3806 1441 3553 
L 1441 3319 
L 2097 3319 
L 2097 2628 
L 1441 2628 
L 1441 0 
L 563 0 
L 563 2628 
L 75 2628 
L 75 3319 
z
" transform="scale(0.015625)"/>
       <path id="Arial-BoldMT-64" d="M 3503 0 
L 2688 0 
L 2688 488 
Q 2484 203 2207 64 
Q 1931 -75 1650 -75 
Q 1078 -75 670 386 
Q 263 847 263 1672 
Q 263 2516 659 2955 
Q 1056 3394 1663 3394 
Q 2219 3394 2625 2931 
L 2625 4581 
L 3503 4581 
L 3503 0 
z
M 1159 1731 
Q 1159 1200 1306 963 
Q 1519 619 1900 619 
Q 2203 619 2415 876 
Q 2628 1134 2628 1647 
Q 2628 2219 2422 2470 
Q 2216 2722 1894 2722 
Q 1581 2722 1370 2473 
Q 1159 2225 1159 1731 
z
" transform="scale(0.015625)"/>
       <path id="Arial-BoldMT-75" d="M 2644 0 
L 2644 497 
Q 2463 231 2167 78 
Q 1872 -75 1544 -75 
Q 1209 -75 943 72 
Q 678 219 559 484 
Q 441 750 441 1219 
L 441 3319 
L 1319 3319 
L 1319 1794 
Q 1319 1094 1367 936 
Q 1416 778 1544 686 
Q 1672 594 1869 594 
Q 2094 594 2272 717 
Q 2450 841 2515 1023 
Q 2581 1206 2581 1919 
L 2581 3319 
L 3459 3319 
L 3459 0 
L 2644 0 
z
" transform="scale(0.015625)"/>
       <path id="Arial-BoldMT-73" d="M 150 947 
L 1031 1081 
Q 1088 825 1259 692 
Q 1431 559 1741 559 
Q 2081 559 2253 684 
Q 2369 772 2369 919 
Q 2369 1019 2306 1084 
Q 2241 1147 2013 1200 
Q 950 1434 666 1628 
Q 272 1897 272 2375 
Q 272 2806 612 3100 
Q 953 3394 1669 3394 
Q 2350 3394 2681 3172 
Q 3013 2950 3138 2516 
L 2309 2363 
Q 2256 2556 2107 2659 
Q 1959 2763 1684 2763 
Q 1338 2763 1188 2666 
Q 1088 2597 1088 2488 
Q 1088 2394 1175 2328 
Q 1294 2241 1995 2081 
Q 2697 1922 2975 1691 
Q 3250 1456 3250 1038 
Q 3250 581 2869 253 
Q 2488 -75 1741 -75 
Q 1063 -75 667 200 
Q 272 475 150 947 
z
" transform="scale(0.015625)"/>
       <path id="Arial-BoldMT-69" d="M 459 3769 
L 459 4581 
L 1338 4581 
L 1338 3769 
L 459 3769 
z
M 459 0 
L 459 3319 
L 1338 3319 
L 1338 0 
L 459 0 
z
" transform="scale(0.015625)"/>
      </defs>
      <use xlink:href="#Arial-BoldMT-50"/>
      <use xlink:href="#Arial-BoldMT-65" x="66.699219"/>
      <use xlink:href="#Arial-BoldMT-72" x="122.314453"/>
      <use xlink:href="#Arial-BoldMT-63" x="161.230469"/>
      <use xlink:href="#Arial-BoldMT-65" x="216.845703"/>
      <use xlink:href="#Arial-BoldMT-6e" x="272.460938"/>
      <use xlink:href="#Arial-BoldMT-74" x="333.544922"/>
      <use xlink:href="#Arial-BoldMT-61" x="366.845703"/>
      <use xlink:href="#Arial-BoldMT-67" x="422.460938"/>
      <use xlink:href="#Arial-BoldMT-65" x="483.544922"/>
      <use xlink:href="#Arial-BoldMT-20" x="539.160156"/>
      <use xlink:href="#Arial-BoldMT-6f" x="566.943359"/>
      <use xlink:href="#Arial-BoldMT-66" x="628.027344"/>
      <use xlink:href="#Arial-BoldMT-20" x="661.328125"/>
      <use xlink:href="#Arial-BoldMT-64" x="689.111328"/>
      <use xlink:href="#Arial-BoldMT-61" x="750.195312"/>
      <use xlink:href="#Arial-BoldMT-74" x="805.810547"/>
      <use xlink:href="#Arial-BoldMT-61" x="839.111328"/>
      <use xlink:href="#Arial-BoldMT-20" x="894.726562"/>
      <use xlink:href="#Arial-BoldMT-75" x="922.509766"/>
      <use xlink:href="#Arial-BoldMT-73" x="983.59375"/>
      <use xlink:href="#Arial-BoldMT-65" x="1039.208984"/>
      <use xlink:href="#Arial-BoldMT-64" x="1094.824219"/>
      <use xlink:href="#Arial-BoldMT-20" x="1155.908203"/>
      <use xlink:href="#Arial-BoldMT-66" x="1183.691406"/>
      <use xlink:href="#Arial-BoldMT-6f" x="1216.992188"/>
      <use xlink:href="#Arial-BoldMT-72" x="1278.076172"/>
      <use xlink:href="#Arial-BoldMT-20" x="1316.992188"/>
      <use xlink:href="#Arial-BoldMT-74" x="1344.775391"/>
      <use xlink:href="#Arial-BoldMT-72" x="1378.076172"/>
      <use xlink:href="#Arial-BoldMT-61" x="1416.992188"/>
      <use xlink:href="#Arial-BoldMT-69" x="1472.607422"/>
      <use xlink:href="#Arial-BoldMT-6e" x="1500.390625"/>
      <use xlink:href="#Arial-BoldMT-69" x="1561.474609"/>
      <use xlink:href="#Arial-BoldMT-6e" x="1589.257812"/>
      <use xlink:href="#Arial-BoldMT-67" x="1650.341797"/>
     </g>
    </g>
   </g>
   <g id="matplotlib.axis_2">
    <g id="ytick_1">
     <g id="line2d_10">
      <path d="M 69.460938 732.645762 
L 627.460938 732.645762 
" clip-path="url(#p9bd24b8d57)" style="fill: none; stroke: #ffffff; stroke-width: 2; stroke-linecap: round"/>
     </g>
     <g id="text_11">
      <!-- 0.3 -->
      <g style="fill: #262626" transform="translate(34.660938 739.803575) scale(0.2 -0.2)">
       <defs>
        <path id="Arial-BoldMT-2e" d="M 459 0 
L 459 878 
L 1338 878 
L 1338 0 
L 459 0 
z
" transform="scale(0.015625)"/>
       </defs>
       <use xlink:href="#Arial-BoldMT-30"/>
       <use xlink:href="#Arial-BoldMT-2e" x="55.615234"/>
       <use xlink:href="#Arial-BoldMT-33" x="83.398438"/>
      </g>
     </g>
    </g>
    <g id="ytick_2">
     <g id="line2d_11">
      <path d="M 69.460938 566.154051 
L 627.460938 566.154051 
" clip-path="url(#p9bd24b8d57)" style="fill: none; stroke: #ffffff; stroke-width: 2; stroke-linecap: round"/>
     </g>
     <g id="text_12">
      <!-- 0.4 -->
      <g style="fill: #262626" transform="translate(34.660938 573.311863) scale(0.2 -0.2)">
       <use xlink:href="#Arial-BoldMT-30"/>
       <use xlink:href="#Arial-BoldMT-2e" x="55.615234"/>
       <use xlink:href="#Arial-BoldMT-34" x="83.398438"/>
      </g>
     </g>
    </g>
    <g id="ytick_3">
     <g id="line2d_12">
      <path d="M 69.460938 399.66234 
L 627.460938 399.66234 
" clip-path="url(#p9bd24b8d57)" style="fill: none; stroke: #ffffff; stroke-width: 2; stroke-linecap: round"/>
     </g>
     <g id="text_13">
      <!-- 0.5 -->
      <g style="fill: #262626" transform="translate(34.660938 406.820152) scale(0.2 -0.2)">
       <use xlink:href="#Arial-BoldMT-30"/>
       <use xlink:href="#Arial-BoldMT-2e" x="55.615234"/>
       <use xlink:href="#Arial-BoldMT-35" x="83.398438"/>
      </g>
     </g>
    </g>
    <g id="ytick_4">
     <g id="line2d_13">
      <path d="M 69.460938 233.170628 
L 627.460938 233.170628 
" clip-path="url(#p9bd24b8d57)" style="fill: none; stroke: #ffffff; stroke-width: 2; stroke-linecap: round"/>
     </g>
     <g id="text_14">
      <!-- 0.6 -->
      <g style="fill: #262626" transform="translate(34.660938 240.328441) scale(0.2 -0.2)">
       <use xlink:href="#Arial-BoldMT-30"/>
       <use xlink:href="#Arial-BoldMT-2e" x="55.615234"/>
       <use xlink:href="#Arial-BoldMT-36" x="83.398438"/>
      </g>
     </g>
    </g>
    <g id="ytick_5">
     <g id="line2d_14">
      <path d="M 69.460938 66.678917 
L 627.460938 66.678917 
" clip-path="url(#p9bd24b8d57)" style="fill: none; stroke: #ffffff; stroke-width: 2; stroke-linecap: round"/>
     </g>
     <g id="text_15">
      <!-- 0.7 -->
      <g style="fill: #262626" transform="translate(34.660938 73.83673) scale(0.2 -0.2)">
       <use xlink:href="#Arial-BoldMT-30"/>
       <use xlink:href="#Arial-BoldMT-2e" x="55.615234"/>
       <use xlink:href="#Arial-BoldMT-37" x="83.398438"/>
      </g>
     </g>
    </g>
    <g id="text_16">
     <!-- Accuracy (%) -->
     <g style="fill: #262626" transform="translate(25.399219 530.034375) rotate(-90) scale(0.25 -0.25)">
      <defs>
       <path id="Arial-BoldMT-41" d="M 4597 0 
L 3591 0 
L 3191 1041 
L 1359 1041 
L 981 0 
L 0 0 
L 1784 4581 
L 2763 4581 
L 4597 0 
z
M 2894 1813 
L 2263 3513 
L 1644 1813 
L 2894 1813 
z
" transform="scale(0.015625)"/>
       <path id="Arial-BoldMT-79" d="M 44 3319 
L 978 3319 
L 1772 963 
L 2547 3319 
L 3456 3319 
L 2284 125 
L 2075 -453 
Q 1959 -744 1854 -897 
Q 1750 -1050 1614 -1145 
Q 1478 -1241 1279 -1294 
Q 1081 -1347 831 -1347 
Q 578 -1347 334 -1294 
L 256 -606 
Q 463 -647 628 -647 
Q 934 -647 1081 -467 
Q 1228 -288 1306 -9 
L 44 3319 
z
" transform="scale(0.015625)"/>
       <path id="Arial-BoldMT-28" d="M 1916 -1347 
L 1313 -1347 
Q 834 -625 584 153 
Q 334 931 334 1659 
Q 334 2563 644 3369 
Q 913 4069 1325 4659 
L 1925 4659 
Q 1497 3713 1336 3048 
Q 1175 2384 1175 1641 
Q 1175 1128 1270 590 
Q 1366 53 1531 -431 
Q 1641 -750 1916 -1347 
z
" transform="scale(0.015625)"/>
       <path id="Arial-BoldMT-29" d="M 216 -1347 
Q 475 -791 581 -494 
Q 688 -197 778 190 
Q 869 578 912 926 
Q 956 1275 956 1641 
Q 956 2384 797 3048 
Q 638 3713 209 4659 
L 806 4659 
Q 1278 3988 1539 3234 
Q 1800 2481 1800 1706 
Q 1800 1053 1594 306 
Q 1359 -531 822 -1347 
L 216 -1347 
z
" transform="scale(0.015625)"/>
      </defs>
      <use xlink:href="#Arial-BoldMT-41"/>
      <use xlink:href="#Arial-BoldMT-63" x="72.216797"/>
      <use xlink:href="#Arial-BoldMT-63" x="127.832031"/>
      <use xlink:href="#Arial-BoldMT-75" x="183.447266"/>
      <use xlink:href="#Arial-BoldMT-72" x="244.53125"/>
      <use xlink:href="#Arial-BoldMT-61" x="283.447266"/>
      <use xlink:href="#Arial-BoldMT-63" x="339.0625"/>
      <use xlink:href="#Arial-BoldMT-79" x="394.677734"/>
      <use xlink:href="#Arial-BoldMT-20" x="450.292969"/>
      <use xlink:href="#Arial-BoldMT-28" x="478.076172"/>
      <use xlink:href="#Arial-BoldMT-25" x="511.376953"/>
      <use xlink:href="#Arial-BoldMT-29" x="600.292969"/>
     </g>
    </g>
   </g>
   <g id="line2d_15">
    <path d="M 94.824574 564.392443 
L 158.233665 545.425479 
L 221.642756 526.629488 
L 285.051847 562.814174 
L 348.460938 532.676635 
L 411.870028 494.195195 
L 475.279119 504.155356 
L 538.68821 492.399713 
L 602.097301 407.141021 
" clip-path="url(#p9bd24b8d57)" style="fill: none; stroke: #1f77b4; stroke-width: 6; stroke-linecap: round"/>
    <defs>
     <path id="m815e9e851f" d="M -6 6 
L 6 6 
L 6 -6 
L -6 -6 
z
" style="stroke: #1f77b4; stroke-linejoin: miter"/>
    </defs>
    <g clip-path="url(#p9bd24b8d57)">
     <use xlink:href="#m815e9e851f" x="94.824574" y="564.392443" style="fill: #1f77b4; stroke: #1f77b4; stroke-linejoin: miter"/>
     <use xlink:href="#m815e9e851f" x="158.233665" y="545.425479" style="fill: #1f77b4; stroke: #1f77b4; stroke-linejoin: miter"/>
     <use xlink:href="#m815e9e851f" x="221.642756" y="526.629488" style="fill: #1f77b4; stroke: #1f77b4; stroke-linejoin: miter"/>
     <use xlink:href="#m815e9e851f" x="285.051847" y="562.814174" style="fill: #1f77b4; stroke: #1f77b4; stroke-linejoin: miter"/>
     <use xlink:href="#m815e9e851f" x="348.460938" y="532.676635" style="fill: #1f77b4; stroke: #1f77b4; stroke-linejoin: miter"/>
     <use xlink:href="#m815e9e851f" x="411.870028" y="494.195195" style="fill: #1f77b4; stroke: #1f77b4; stroke-linejoin: miter"/>
     <use xlink:href="#m815e9e851f" x="475.279119" y="504.155356" style="fill: #1f77b4; stroke: #1f77b4; stroke-linejoin: miter"/>
     <use xlink:href="#m815e9e851f" x="538.68821" y="492.399713" style="fill: #1f77b4; stroke: #1f77b4; stroke-linejoin: miter"/>
     <use xlink:href="#m815e9e851f" x="602.097301" y="407.141021" style="fill: #1f77b4; stroke: #1f77b4; stroke-linejoin: miter"/>
    </g>
   </g>
   <g id="line2d_16">
    <path d="M 94.824574 349.995799 
L 158.233665 307.730413 
L 221.642756 287.497264 
L 285.051847 255.394863 
L 348.460938 225.618319 
L 411.870028 216.404643 
L 475.279119 189.006626 
L 538.68821 150.691088 
L 602.097301 72.839062 
" clip-path="url(#p9bd24b8d57)" style="fill: none; stroke: #ff7f0e; stroke-width: 6; stroke-linecap: round"/>
    <defs>
     <path id="mc2310c218d" d="M 0 6 
C 1.591219 6 3.117479 5.367802 4.242641 4.242641 
C 5.367802 3.117479 6 1.591219 6 0 
C 6 -1.591219 5.367802 -3.117479 4.242641 -4.242641 
C 3.117479 -5.367802 1.591219 -6 0 -6 
C -1.591219 -6 -3.117479 -5.367802 -4.242641 -4.242641 
C -5.367802 -3.117479 -6 -1.591219 -6 0 
C -6 1.591219 -5.367802 3.117479 -4.242641 4.242641 
C -3.117479 5.367802 -1.591219 6 0 6 
z
" style="stroke: #ff7f0e"/>
    </defs>
    <g clip-path="url(#p9bd24b8d57)">
     <use xlink:href="#mc2310c218d" x="94.824574" y="349.995799" style="fill: #ff7f0e; stroke: #ff7f0e"/>
     <use xlink:href="#mc2310c218d" x="158.233665" y="307.730413" style="fill: #ff7f0e; stroke: #ff7f0e"/>
     <use xlink:href="#mc2310c218d" x="221.642756" y="287.497264" style="fill: #ff7f0e; stroke: #ff7f0e"/>
     <use xlink:href="#mc2310c218d" x="285.051847" y="255.394863" style="fill: #ff7f0e; stroke: #ff7f0e"/>
     <use xlink:href="#mc2310c218d" x="348.460938" y="225.618319" style="fill: #ff7f0e; stroke: #ff7f0e"/>
     <use xlink:href="#mc2310c218d" x="411.870028" y="216.404643" style="fill: #ff7f0e; stroke: #ff7f0e"/>
     <use xlink:href="#mc2310c218d" x="475.279119" y="189.006626" style="fill: #ff7f0e; stroke: #ff7f0e"/>
     <use xlink:href="#mc2310c218d" x="538.68821" y="150.691088" style="fill: #ff7f0e; stroke: #ff7f0e"/>
     <use xlink:href="#mc2310c218d" x="602.097301" y="72.839062" style="fill: #ff7f0e; stroke: #ff7f0e"/>
    </g>
   </g>
   <g id="line2d_17">
    <path d="M 94.824574 351.008696 
L 158.233665 340.148307 
L 221.642756 330.893609 
L 285.051847 336.386921 
L 348.460938 332.296332 
L 411.870028 317.317072 
L 475.279119 324.097976 
L 538.68821 295.459292 
L 602.097301 264.606312 
" clip-path="url(#p9bd24b8d57)" style="fill: none; stroke: #2ca02c; stroke-width: 6; stroke-linecap: round"/>
    <defs>
     <path id="m18a6216f1e" d="M -6 0 
L 6 0 
M 0 6 
L 0 -6 
" style="stroke: #2ca02c"/>
    </defs>
    <g clip-path="url(#p9bd24b8d57)">
     <use xlink:href="#m18a6216f1e" x="94.824574" y="351.008696" style="fill: #2ca02c; stroke: #2ca02c"/>
     <use xlink:href="#m18a6216f1e" x="158.233665" y="340.148307" style="fill: #2ca02c; stroke: #2ca02c"/>
     <use xlink:href="#m18a6216f1e" x="221.642756" y="330.893609" style="fill: #2ca02c; stroke: #2ca02c"/>
     <use xlink:href="#m18a6216f1e" x="285.051847" y="336.386921" style="fill: #2ca02c; stroke: #2ca02c"/>
     <use xlink:href="#m18a6216f1e" x="348.460938" y="332.296332" style="fill: #2ca02c; stroke: #2ca02c"/>
     <use xlink:href="#m18a6216f1e" x="411.870028" y="317.317072" style="fill: #2ca02c; stroke: #2ca02c"/>
     <use xlink:href="#m18a6216f1e" x="475.279119" y="324.097976" style="fill: #2ca02c; stroke: #2ca02c"/>
     <use xlink:href="#m18a6216f1e" x="538.68821" y="295.459292" style="fill: #2ca02c; stroke: #2ca02c"/>
     <use xlink:href="#m18a6216f1e" x="602.097301" y="264.606312" style="fill: #2ca02c; stroke: #2ca02c"/>
    </g>
   </g>
   <g id="line2d_18">
    <path d="M 94.824574 774.410147 
L 158.233665 748.579136 
L 221.642756 695.614669 
L 285.051847 739.728615 
L 348.460938 700.572574 
L 411.870028 683.180392 
L 475.279119 668.375434 
L 538.68821 693.868416 
L 602.097301 627.989542 
" clip-path="url(#p9bd24b8d57)" style="fill: none; stroke: #d62728; stroke-width: 6; stroke-linecap: round"/>
    <defs>
     <path id="m49fb13e7bd" d="M -3 -5.196152 
L -6 -0 
L -3 5.196152 
L 3 5.196152 
L 6 0 
L 3 -5.196152 
z
" style="stroke: #d62728; stroke-linejoin: miter"/>
    </defs>
    <g clip-path="url(#p9bd24b8d57)">
     <use xlink:href="#m49fb13e7bd" x="94.824574" y="774.410147" style="fill: #d62728; stroke: #d62728; stroke-linejoin: miter"/>
     <use xlink:href="#m49fb13e7bd" x="158.233665" y="748.579136" style="fill: #d62728; stroke: #d62728; stroke-linejoin: miter"/>
     <use xlink:href="#m49fb13e7bd" x="221.642756" y="695.614669" style="fill: #d62728; stroke: #d62728; stroke-linejoin: miter"/>
     <use xlink:href="#m49fb13e7bd" x="285.051847" y="739.728615" style="fill: #d62728; stroke: #d62728; stroke-linejoin: miter"/>
     <use xlink:href="#m49fb13e7bd" x="348.460938" y="700.572574" style="fill: #d62728; stroke: #d62728; stroke-linejoin: miter"/>
     <use xlink:href="#m49fb13e7bd" x="411.870028" y="683.180392" style="fill: #d62728; stroke: #d62728; stroke-linejoin: miter"/>
     <use xlink:href="#m49fb13e7bd" x="475.279119" y="668.375434" style="fill: #d62728; stroke: #d62728; stroke-linejoin: miter"/>
     <use xlink:href="#m49fb13e7bd" x="538.68821" y="693.868416" style="fill: #d62728; stroke: #d62728; stroke-linejoin: miter"/>
     <use xlink:href="#m49fb13e7bd" x="602.097301" y="627.989542" style="fill: #d62728; stroke: #d62728; stroke-linejoin: miter"/>
    </g>
   </g>
   <g id="line2d_19">
    <path d="M 94.824574 419.982993 
L 158.233665 421.406021 
L 221.642756 418.816387 
L 285.051847 433.295954 
L 348.460938 427.113961 
L 411.870028 417.703305 
L 475.279119 424.957135 
L 538.68821 406.697001 
L 602.097301 386.117794 
" clip-path="url(#p9bd24b8d57)" style="fill: none; stroke: #9467bd; stroke-width: 6; stroke-linecap: round"/>
    <defs>
     <path id="mc24a0860be" d="M 0 -6 
L -1.347084 -1.854102 
L -5.706339 -1.854102 
L -2.179628 0.708204 
L -3.526712 4.854102 
L -0 2.291796 
L 3.526712 4.854102 
L 2.179628 0.708204 
L 5.706339 -1.854102 
L 1.347084 -1.854102 
z
" style="stroke: #9467bd; stroke-linejoin: bevel"/>
    </defs>
    <g clip-path="url(#p9bd24b8d57)">
     <use xlink:href="#mc24a0860be" x="94.824574" y="419.982993" style="fill: #9467bd; stroke: #9467bd; stroke-linejoin: bevel"/>
     <use xlink:href="#mc24a0860be" x="158.233665" y="421.406021" style="fill: #9467bd; stroke: #9467bd; stroke-linejoin: bevel"/>
     <use xlink:href="#mc24a0860be" x="221.642756" y="418.816387" style="fill: #9467bd; stroke: #9467bd; stroke-linejoin: bevel"/>
     <use xlink:href="#mc24a0860be" x="285.051847" y="433.295954" style="fill: #9467bd; stroke: #9467bd; stroke-linejoin: bevel"/>
     <use xlink:href="#mc24a0860be" x="348.460938" y="427.113961" style="fill: #9467bd; stroke: #9467bd; stroke-linejoin: bevel"/>
     <use xlink:href="#mc24a0860be" x="411.870028" y="417.703305" style="fill: #9467bd; stroke: #9467bd; stroke-linejoin: bevel"/>
     <use xlink:href="#mc24a0860be" x="475.279119" y="424.957135" style="fill: #9467bd; stroke: #9467bd; stroke-linejoin: bevel"/>
     <use xlink:href="#mc24a0860be" x="538.68821" y="406.697001" style="fill: #9467bd; stroke: #9467bd; stroke-linejoin: bevel"/>
     <use xlink:href="#mc24a0860be" x="602.097301" y="386.117794" style="fill: #9467bd; stroke: #9467bd; stroke-linejoin: bevel"/>
    </g>
   </g>
   <g id="line2d_20">
    <path d="M 94.824574 817.845051 
L 158.233665 814.891442 
L 221.642756 818.455159 
L 285.051847 816.900346 
L 348.460938 812.560176 
L 411.870028 817.958755 
L 475.279119 811.835055 
L 538.68821 817.34318 
L 602.097301 800.066692 
" clip-path="url(#p9bd24b8d57)" style="fill: none; stroke: #8c564b; stroke-width: 6; stroke-linecap: round"/>
    <defs>
     <path id="m251a94d550" d="M -0 8.485281 
L 8.485281 0 
L 0 -8.485281 
L -8.485281 -0 
z
" style="stroke: #8c564b; stroke-linejoin: miter"/>
    </defs>
    <g clip-path="url(#p9bd24b8d57)">
     <use xlink:href="#m251a94d550" x="94.824574" y="817.845051" style="fill: #8c564b; stroke: #8c564b; stroke-linejoin: miter"/>
     <use xlink:href="#m251a94d550" x="158.233665" y="814.891442" style="fill: #8c564b; stroke: #8c564b; stroke-linejoin: miter"/>
     <use xlink:href="#m251a94d550" x="221.642756" y="818.455159" style="fill: #8c564b; stroke: #8c564b; stroke-linejoin: miter"/>
     <use xlink:href="#m251a94d550" x="285.051847" y="816.900346" style="fill: #8c564b; stroke: #8c564b; stroke-linejoin: miter"/>
     <use xlink:href="#m251a94d550" x="348.460938" y="812.560176" style="fill: #8c564b; stroke: #8c564b; stroke-linejoin: miter"/>
     <use xlink:href="#m251a94d550" x="411.870028" y="817.958755" style="fill: #8c564b; stroke: #8c564b; stroke-linejoin: miter"/>
     <use xlink:href="#m251a94d550" x="475.279119" y="811.835055" style="fill: #8c564b; stroke: #8c564b; stroke-linejoin: miter"/>
     <use xlink:href="#m251a94d550" x="538.68821" y="817.34318" style="fill: #8c564b; stroke: #8c564b; stroke-linejoin: miter"/>
     <use xlink:href="#m251a94d550" x="602.097301" y="800.066692" style="fill: #8c564b; stroke: #8c564b; stroke-linejoin: miter"/>
    </g>
   </g>
   <g id="line2d_21">
    <path d="M 94.824574 814.343537 
L 158.233665 824.050958 
L 221.642756 822.037068 
L 285.051847 818.12448 
L 348.460938 808.89267 
L 411.870028 828.040152 
L 475.279119 810.184692 
L 538.68821 828.839062 
L 602.097301 780.79165 
" clip-path="url(#p9bd24b8d57)" style="fill: none; stroke: #e377c2; stroke-width: 6; stroke-linecap: round"/>
    <defs>
     <path id="m821b64dcf7" d="M 0 -6 
L -6 6 
L 6 6 
z
" style="stroke: #e377c2; stroke-linejoin: miter"/>
    </defs>
    <g clip-path="url(#p9bd24b8d57)">
     <use xlink:href="#m821b64dcf7" x="94.824574" y="814.343537" style="fill: #e377c2; stroke: #e377c2; stroke-linejoin: miter"/>
     <use xlink:href="#m821b64dcf7" x="158.233665" y="824.050958" style="fill: #e377c2; stroke: #e377c2; stroke-linejoin: miter"/>
     <use xlink:href="#m821b64dcf7" x="221.642756" y="822.037068" style="fill: #e377c2; stroke: #e377c2; stroke-linejoin: miter"/>
     <use xlink:href="#m821b64dcf7" x="285.051847" y="818.12448" style="fill: #e377c2; stroke: #e377c2; stroke-linejoin: miter"/>
     <use xlink:href="#m821b64dcf7" x="348.460938" y="808.89267" style="fill: #e377c2; stroke: #e377c2; stroke-linejoin: miter"/>
     <use xlink:href="#m821b64dcf7" x="411.870028" y="828.040152" style="fill: #e377c2; stroke: #e377c2; stroke-linejoin: miter"/>
     <use xlink:href="#m821b64dcf7" x="475.279119" y="810.184692" style="fill: #e377c2; stroke: #e377c2; stroke-linejoin: miter"/>
     <use xlink:href="#m821b64dcf7" x="538.68821" y="828.839062" style="fill: #e377c2; stroke: #e377c2; stroke-linejoin: miter"/>
     <use xlink:href="#m821b64dcf7" x="602.097301" y="780.79165" style="fill: #e377c2; stroke: #e377c2; stroke-linejoin: miter"/>
    </g>
   </g>
   <g id="line2d_22">
    <path d="M 94.824574 376.885651 
L 158.233665 369.194649 
L 221.642756 313.150011 
L 285.051847 328.58707 
L 348.460938 327.2108 
L 411.870028 298.271916 
L 475.279119 292.103689 
L 538.68821 239.637313 
L 602.097301 234.941622 
" clip-path="url(#p9bd24b8d57)" style="fill: none; stroke: #7f7f7f; stroke-width: 6; stroke-linecap: round"/>
    <defs>
     <path id="maa23aca2d0" d="M -6 6 
L 6 -6 
M -6 -6 
L 6 6 
" style="stroke: #7f7f7f"/>
    </defs>
    <g clip-path="url(#p9bd24b8d57)">
     <use xlink:href="#maa23aca2d0" x="94.824574" y="376.885651" style="fill: #7f7f7f; stroke: #7f7f7f"/>
     <use xlink:href="#maa23aca2d0" x="158.233665" y="369.194649" style="fill: #7f7f7f; stroke: #7f7f7f"/>
     <use xlink:href="#maa23aca2d0" x="221.642756" y="313.150011" style="fill: #7f7f7f; stroke: #7f7f7f"/>
     <use xlink:href="#maa23aca2d0" x="285.051847" y="328.58707" style="fill: #7f7f7f; stroke: #7f7f7f"/>
     <use xlink:href="#maa23aca2d0" x="348.460938" y="327.2108" style="fill: #7f7f7f; stroke: #7f7f7f"/>
     <use xlink:href="#maa23aca2d0" x="411.870028" y="298.271916" style="fill: #7f7f7f; stroke: #7f7f7f"/>
     <use xlink:href="#maa23aca2d0" x="475.279119" y="292.103689" style="fill: #7f7f7f; stroke: #7f7f7f"/>
     <use xlink:href="#maa23aca2d0" x="538.68821" y="239.637313" style="fill: #7f7f7f; stroke: #7f7f7f"/>
     <use xlink:href="#maa23aca2d0" x="602.097301" y="234.941622" style="fill: #7f7f7f; stroke: #7f7f7f"/>
    </g>
   </g>
   <g id="line2d_23">
    <path d="M 94.824574 346.584122 
L 158.233665 304.002832 
L 221.642756 271.027918 
L 285.051847 260.838661 
L 348.460938 263.778889 
L 411.870028 222.830555 
L 475.279119 185.347947 
L 538.68821 155.236421 
L 602.097301 75.587597 
" clip-path="url(#p9bd24b8d57)" style="fill: none; stroke: #bcbd22; stroke-width: 6; stroke-linecap: round"/>
    <defs>
     <path id="mea35fcdaa0" d="M 0 -6 
L -5.706339 -1.854102 
L -3.526712 4.854102 
L 3.526712 4.854102 
L 5.706339 -1.854102 
z
" style="stroke: #bcbd22; stroke-linejoin: miter"/>
    </defs>
    <g clip-path="url(#p9bd24b8d57)">
     <use xlink:href="#mea35fcdaa0" x="94.824574" y="346.584122" style="fill: #bcbd22; stroke: #bcbd22; stroke-linejoin: miter"/>
     <use xlink:href="#mea35fcdaa0" x="158.233665" y="304.002832" style="fill: #bcbd22; stroke: #bcbd22; stroke-linejoin: miter"/>
     <use xlink:href="#mea35fcdaa0" x="221.642756" y="271.027918" style="fill: #bcbd22; stroke: #bcbd22; stroke-linejoin: miter"/>
     <use xlink:href="#mea35fcdaa0" x="285.051847" y="260.838661" style="fill: #bcbd22; stroke: #bcbd22; stroke-linejoin: miter"/>
     <use xlink:href="#mea35fcdaa0" x="348.460938" y="263.778889" style="fill: #bcbd22; stroke: #bcbd22; stroke-linejoin: miter"/>
     <use xlink:href="#mea35fcdaa0" x="411.870028" y="222.830555" style="fill: #bcbd22; stroke: #bcbd22; stroke-linejoin: miter"/>
     <use xlink:href="#mea35fcdaa0" x="475.279119" y="185.347947" style="fill: #bcbd22; stroke: #bcbd22; stroke-linejoin: miter"/>
     <use xlink:href="#mea35fcdaa0" x="538.68821" y="155.236421" style="fill: #bcbd22; stroke: #bcbd22; stroke-linejoin: miter"/>
     <use xlink:href="#mea35fcdaa0" x="602.097301" y="75.587597" style="fill: #bcbd22; stroke: #bcbd22; stroke-linejoin: miter"/>
    </g>
   </g>
   <g id="line2d_24">
    <path d="M 94.824574 374.674763 
L 158.233665 339.565433 
L 221.642756 348.946731 
L 285.051847 346.313246 
L 348.460938 326.978135 
L 411.870028 301.716034 
L 475.279119 295.824451 
L 538.68821 265.372116 
L 602.097301 179.903539 
" clip-path="url(#p9bd24b8d57)" style="fill: none; stroke: #17becf; stroke-width: 6; stroke-linecap: round"/>
    <defs>
     <path id="m4e4a8d140b" d="M 0 6 
L 0 -6 
" style="stroke: #17becf"/>
    </defs>
    <g clip-path="url(#p9bd24b8d57)">
     <use xlink:href="#m4e4a8d140b" x="94.824574" y="374.674763" style="fill: #17becf; stroke: #17becf"/>
     <use xlink:href="#m4e4a8d140b" x="158.233665" y="339.565433" style="fill: #17becf; stroke: #17becf"/>
     <use xlink:href="#m4e4a8d140b" x="221.642756" y="348.946731" style="fill: #17becf; stroke: #17becf"/>
     <use xlink:href="#m4e4a8d140b" x="285.051847" y="346.313246" style="fill: #17becf; stroke: #17becf"/>
     <use xlink:href="#m4e4a8d140b" x="348.460938" y="326.978135" style="fill: #17becf; stroke: #17becf"/>
     <use xlink:href="#m4e4a8d140b" x="411.870028" y="301.716034" style="fill: #17becf; stroke: #17becf"/>
     <use xlink:href="#m4e4a8d140b" x="475.279119" y="295.824451" style="fill: #17becf; stroke: #17becf"/>
     <use xlink:href="#m4e4a8d140b" x="538.68821" y="265.372116" style="fill: #17becf; stroke: #17becf"/>
     <use xlink:href="#m4e4a8d140b" x="602.097301" y="179.903539" style="fill: #17becf; stroke: #17becf"/>
    </g>
   </g>
   <g id="patch_3">
    <path d="M 69.460938 866.639062 
L 69.460938 35.039062 
" style="fill: none; stroke: #ffffff; stroke-width: 0.8; stroke-linejoin: miter; stroke-linecap: square"/>
   </g>
   <g id="patch_4">
    <path d="M 627.460938 866.639062 
L 627.460938 35.039062 
" style="fill: none; stroke: #ffffff; stroke-width: 0.8; stroke-linejoin: miter; stroke-linecap: square"/>
   </g>
   <g id="patch_5">
    <path d="M 69.460938 866.639062 
L 627.460938 866.639062 
" style="fill: none; stroke: #ffffff; stroke-width: 0.8; stroke-linejoin: miter; stroke-linecap: square"/>
   </g>
   <g id="patch_6">
    <path d="M 69.460938 35.039062 
L 627.460938 35.039062 
" style="fill: none; stroke: #ffffff; stroke-width: 0.8; stroke-linejoin: miter; stroke-linecap: square"/>
   </g>
   <g id="text_17">
    <!-- Movies - Openended -->
    <g style="fill: #262626" transform="translate(201.784375 29.039062) scale(0.3 -0.3)">
     <defs>
      <path id="Arial-BoldMT-4d" d="M 453 0 
L 453 4581 
L 1838 4581 
L 2669 1456 
L 3491 4581 
L 4878 4581 
L 4878 0 
L 4019 0 
L 4019 3606 
L 3109 0 
L 2219 0 
L 1313 3606 
L 1313 0 
L 453 0 
z
" transform="scale(0.015625)"/>
      <path id="Arial-BoldMT-76" d="M 1372 0 
L 34 3319 
L 956 3319 
L 1581 1625 
L 1763 1059 
Q 1834 1275 1853 1344 
Q 1897 1484 1947 1625 
L 2578 3319 
L 3481 3319 
L 2163 0 
L 1372 0 
z
" transform="scale(0.015625)"/>
      <path id="Arial-BoldMT-2d" d="M 359 1222 
L 359 2100 
L 2084 2100 
L 2084 1222 
L 359 1222 
z
" transform="scale(0.015625)"/>
      <path id="Arial-BoldMT-4f" d="M 278 2263 
Q 278 2963 488 3438 
Q 644 3788 914 4066 
Q 1184 4344 1506 4478 
Q 1934 4659 2494 4659 
Q 3506 4659 4114 4031 
Q 4722 3403 4722 2284 
Q 4722 1175 4119 548 
Q 3516 -78 2506 -78 
Q 1484 -78 881 545 
Q 278 1169 278 2263 
z
M 1231 2294 
Q 1231 1516 1590 1114 
Q 1950 713 2503 713 
Q 3056 713 3411 1111 
Q 3766 1509 3766 2306 
Q 3766 3094 3420 3481 
Q 3075 3869 2503 3869 
Q 1931 3869 1581 3476 
Q 1231 3084 1231 2294 
z
" transform="scale(0.015625)"/>
      <path id="Arial-BoldMT-70" d="M 434 3319 
L 1253 3319 
L 1253 2831 
Q 1413 3081 1684 3237 
Q 1956 3394 2288 3394 
Q 2866 3394 3269 2941 
Q 3672 2488 3672 1678 
Q 3672 847 3265 386 
Q 2859 -75 2281 -75 
Q 2006 -75 1782 34 
Q 1559 144 1313 409 
L 1313 -1263 
L 434 -1263 
L 434 3319 
z
M 1303 1716 
Q 1303 1156 1525 889 
Q 1747 622 2066 622 
Q 2372 622 2575 867 
Q 2778 1113 2778 1672 
Q 2778 2194 2568 2447 
Q 2359 2700 2050 2700 
Q 1728 2700 1515 2451 
Q 1303 2203 1303 1716 
z
" transform="scale(0.015625)"/>
     </defs>
     <use xlink:href="#Arial-BoldMT-4d"/>
     <use xlink:href="#Arial-BoldMT-6f" x="83.300781"/>
     <use xlink:href="#Arial-BoldMT-76" x="144.384766"/>
     <use xlink:href="#Arial-BoldMT-69" x="200"/>
     <use xlink:href="#Arial-BoldMT-65" x="227.783203"/>
     <use xlink:href="#Arial-BoldMT-73" x="283.398438"/>
     <use xlink:href="#Arial-BoldMT-20" x="339.013672"/>
     <use xlink:href="#Arial-BoldMT-2d" x="366.796875"/>
     <use xlink:href="#Arial-BoldMT-20" x="400.097656"/>
     <use xlink:href="#Arial-BoldMT-4f" x="427.880859"/>
     <use xlink:href="#Arial-BoldMT-70" x="505.664062"/>
     <use xlink:href="#Arial-BoldMT-65" x="566.748047"/>
     <use xlink:href="#Arial-BoldMT-6e" x="622.363281"/>
     <use xlink:href="#Arial-BoldMT-65" x="683.447266"/>
     <use xlink:href="#Arial-BoldMT-6e" x="739.0625"/>
     <use xlink:href="#Arial-BoldMT-64" x="800.146484"/>
     <use xlink:href="#Arial-BoldMT-65" x="861.230469"/>
     <use xlink:href="#Arial-BoldMT-64" x="916.845703"/>
    </g>
   </g>
  </g>
 </g>
 <defs>
  <clipPath id="p9bd24b8d57">
   <rect x="69.460938" y="35.039062" width="558" height="831.6"/>
  </clipPath>
 </defs>
</svg>
