<?xml version="1.0" encoding="utf-8" standalone="no"?>
<!DOCTYPE svg PUBLIC "-//W3C//DTD SVG 1.1//EN"
  "http://www.w3.org/Graphics/SVG/1.1/DTD/svg11.dtd">
<svg xmlns:xlink="http://www.w3.org/1999/xlink" width="641.204062pt" height="352.103671pt" viewBox="0 0 641.204062 352.103671" xmlns="http://www.w3.org/2000/svg" version="1.1">
 <metadata>
  <rdf:RDF xmlns:dc="http://purl.org/dc/elements/1.1/" xmlns:cc="http://creativecommons.org/ns#" xmlns:rdf="http://www.w3.org/1999/02/22-rdf-syntax-ns#">
   <cc:Work>
    <dc:type rdf:resource="http://purl.org/dc/dcmitype/StillImage"/>
    <dc:date>2024-10-08T10:31:50.593693</dc:date>
    <dc:format>image/svg+xml</dc:format>
    <dc:creator>
     <cc:Agent>
      <dc:title>Matplotlib v3.7.2, https://matplotlib.org/</dc:title>
     </cc:Agent>
    </dc:creator>
   </cc:Work>
  </rdf:RDF>
 </metadata>
 <defs>
  <style type="text/css">*{stroke-linejoin: round; stroke-linecap: butt}</style>
 </defs>
 <g id="figure_1">
  <g id="patch_1">
   <path d="M 0 352.103671 
L 641.204062 352.103671 
L 641.204062 0 
L 0 0 
z
" style="fill: #ffffff"/>
  </g>
  <g id="axes_1">
   <g id="patch_2">
    <path d="M 46.144063 288.216714 
L 634.004062 288.216714 
L 634.004062 7.2 
L 46.144063 7.2 
z
" style="fill: #ffffff"/>
   </g>
   <g id="matplotlib.axis_1">
    <g id="xtick_1">
     <g id="text_1">
      <!-- Bayesian -->
      <g style="fill: #262626" transform="translate(39.721267 323.371811) rotate(-30) scale(0.1 -0.1)">
       <defs>
        <path id="Arial-BoldMT-42" d="M 469 4581 
L 2300 4581 
Q 2844 4581 3111 4536 
Q 3378 4491 3589 4347 
Q 3800 4203 3940 3964 
Q 4081 3725 4081 3428 
Q 4081 3106 3907 2837 
Q 3734 2569 3438 2434 
Q 3856 2313 4081 2019 
Q 4306 1725 4306 1328 
Q 4306 1016 4161 720 
Q 4016 425 3764 248 
Q 3513 72 3144 31 
Q 2913 6 2028 0 
L 469 0 
L 469 4581 
z
M 1394 3819 
L 1394 2759 
L 2000 2759 
Q 2541 2759 2672 2775 
Q 2909 2803 3045 2939 
Q 3181 3075 3181 3297 
Q 3181 3509 3064 3642 
Q 2947 3775 2716 3803 
Q 2578 3819 1925 3819 
L 1394 3819 
z
M 1394 1997 
L 1394 772 
L 2250 772 
Q 2750 772 2884 800 
Q 3091 838 3220 983 
Q 3350 1128 3350 1372 
Q 3350 1578 3250 1722 
Q 3150 1866 2961 1931 
Q 2772 1997 2141 1997 
L 1394 1997 
z
" transform="scale(0.015625)"/>
        <path id="Arial-BoldMT-61" d="M 1116 2306 
L 319 2450 
Q 453 2931 781 3162 
Q 1109 3394 1756 3394 
Q 2344 3394 2631 3255 
Q 2919 3116 3036 2902 
Q 3153 2688 3153 2116 
L 3144 1091 
Q 3144 653 3186 445 
Q 3228 238 3344 0 
L 2475 0 
Q 2441 88 2391 259 
Q 2369 338 2359 363 
Q 2134 144 1878 34 
Q 1622 -75 1331 -75 
Q 819 -75 523 203 
Q 228 481 228 906 
Q 228 1188 362 1408 
Q 497 1628 739 1745 
Q 981 1863 1438 1950 
Q 2053 2066 2291 2166 
L 2291 2253 
Q 2291 2506 2166 2614 
Q 2041 2722 1694 2722 
Q 1459 2722 1328 2630 
Q 1197 2538 1116 2306 
z
M 2291 1594 
Q 2122 1538 1756 1459 
Q 1391 1381 1278 1306 
Q 1106 1184 1106 997 
Q 1106 813 1243 678 
Q 1381 544 1594 544 
Q 1831 544 2047 700 
Q 2206 819 2256 991 
Q 2291 1103 2291 1419 
L 2291 1594 
z
" transform="scale(0.015625)"/>
        <path id="Arial-BoldMT-79" d="M 44 3319 
L 978 3319 
L 1772 963 
L 2547 3319 
L 3456 3319 
L 2284 125 
L 2075 -453 
Q 1959 -744 1854 -897 
Q 1750 -1050 1614 -1145 
Q 1478 -1241 1279 -1294 
Q 1081 -1347 831 -1347 
Q 578 -1347 334 -1294 
L 256 -606 
Q 463 -647 628 -647 
Q 934 -647 1081 -467 
Q 1228 -288 1306 -9 
L 44 3319 
z
" transform="scale(0.015625)"/>
        <path id="Arial-BoldMT-65" d="M 2381 1056 
L 3256 909 
Q 3088 428 2723 176 
Q 2359 -75 1813 -75 
Q 947 -75 531 491 
Q 203 944 203 1634 
Q 203 2459 634 2926 
Q 1066 3394 1725 3394 
Q 2466 3394 2894 2905 
Q 3322 2416 3303 1406 
L 1103 1406 
Q 1113 1016 1316 798 
Q 1519 581 1822 581 
Q 2028 581 2168 693 
Q 2309 806 2381 1056 
z
M 2431 1944 
Q 2422 2325 2234 2523 
Q 2047 2722 1778 2722 
Q 1491 2722 1303 2513 
Q 1116 2303 1119 1944 
L 2431 1944 
z
" transform="scale(0.015625)"/>
        <path id="Arial-BoldMT-73" d="M 150 947 
L 1031 1081 
Q 1088 825 1259 692 
Q 1431 559 1741 559 
Q 2081 559 2253 684 
Q 2369 772 2369 919 
Q 2369 1019 2306 1084 
Q 2241 1147 2013 1200 
Q 950 1434 666 1628 
Q 272 1897 272 2375 
Q 272 2806 612 3100 
Q 953 3394 1669 3394 
Q 2350 3394 2681 3172 
Q 3013 2950 3138 2516 
L 2309 2363 
Q 2256 2556 2107 2659 
Q 1959 2763 1684 2763 
Q 1338 2763 1188 2666 
Q 1088 2597 1088 2488 
Q 1088 2394 1175 2328 
Q 1294 2241 1995 2081 
Q 2697 1922 2975 1691 
Q 3250 1456 3250 1038 
Q 3250 581 2869 253 
Q 2488 -75 1741 -75 
Q 1063 -75 667 200 
Q 272 475 150 947 
z
" transform="scale(0.015625)"/>
        <path id="Arial-BoldMT-69" d="M 459 3769 
L 459 4581 
L 1338 4581 
L 1338 3769 
L 459 3769 
z
M 459 0 
L 459 3319 
L 1338 3319 
L 1338 0 
L 459 0 
z
" transform="scale(0.015625)"/>
        <path id="Arial-BoldMT-6e" d="M 3478 0 
L 2600 0 
L 2600 1694 
Q 2600 2231 2544 2389 
Q 2488 2547 2361 2634 
Q 2234 2722 2056 2722 
Q 1828 2722 1647 2597 
Q 1466 2472 1398 2265 
Q 1331 2059 1331 1503 
L 1331 0 
L 453 0 
L 453 3319 
L 1269 3319 
L 1269 2831 
Q 1703 3394 2363 3394 
Q 2653 3394 2893 3289 
Q 3134 3184 3257 3021 
Q 3381 2859 3429 2653 
Q 3478 2447 3478 2063 
L 3478 0 
z
" transform="scale(0.015625)"/>
       </defs>
       <use xlink:href="#Arial-BoldMT-42"/>
       <use xlink:href="#Arial-BoldMT-61" x="72.216797"/>
       <use xlink:href="#Arial-BoldMT-79" x="127.832031"/>
       <use xlink:href="#Arial-BoldMT-65" x="183.447266"/>
       <use xlink:href="#Arial-BoldMT-73" x="239.0625"/>
       <use xlink:href="#Arial-BoldMT-69" x="294.677734"/>
       <use xlink:href="#Arial-BoldMT-61" x="322.460938"/>
       <use xlink:href="#Arial-BoldMT-6e" x="378.076172"/>
      </g>
     </g>
    </g>
    <g id="xtick_2">
     <g id="text_2">
      <!-- Greedy -->
      <g style="fill: #262626" transform="translate(113.224338 318.751577) rotate(-30) scale(0.1 -0.1)">
       <defs>
        <path id="Arial-BoldMT-47" d="M 2597 1684 
L 2597 2456 
L 4591 2456 
L 4591 631 
Q 4300 350 3748 136 
Q 3197 -78 2631 -78 
Q 1913 -78 1378 223 
Q 844 525 575 1086 
Q 306 1647 306 2306 
Q 306 3022 606 3578 
Q 906 4134 1484 4431 
Q 1925 4659 2581 4659 
Q 3434 4659 3914 4301 
Q 4394 3944 4531 3313 
L 3613 3141 
Q 3516 3478 3248 3673 
Q 2981 3869 2581 3869 
Q 1975 3869 1617 3484 
Q 1259 3100 1259 2344 
Q 1259 1528 1621 1120 
Q 1984 713 2572 713 
Q 2863 713 3155 827 
Q 3447 941 3656 1103 
L 3656 1684 
L 2597 1684 
z
" transform="scale(0.015625)"/>
        <path id="Arial-BoldMT-72" d="M 1300 0 
L 422 0 
L 422 3319 
L 1238 3319 
L 1238 2847 
Q 1447 3181 1614 3287 
Q 1781 3394 1994 3394 
Q 2294 3394 2572 3228 
L 2300 2463 
Q 2078 2606 1888 2606 
Q 1703 2606 1575 2504 
Q 1447 2403 1373 2137 
Q 1300 1872 1300 1025 
L 1300 0 
z
" transform="scale(0.015625)"/>
        <path id="Arial-BoldMT-64" d="M 3503 0 
L 2688 0 
L 2688 488 
Q 2484 203 2207 64 
Q 1931 -75 1650 -75 
Q 1078 -75 670 386 
Q 263 847 263 1672 
Q 263 2516 659 2955 
Q 1056 3394 1663 3394 
Q 2219 3394 2625 2931 
L 2625 4581 
L 3503 4581 
L 3503 0 
z
M 1159 1731 
Q 1159 1200 1306 963 
Q 1519 619 1900 619 
Q 2203 619 2415 876 
Q 2628 1134 2628 1647 
Q 2628 2219 2422 2470 
Q 2216 2722 1894 2722 
Q 1581 2722 1370 2473 
Q 1159 2225 1159 1731 
z
" transform="scale(0.015625)"/>
       </defs>
       <use xlink:href="#Arial-BoldMT-47"/>
       <use xlink:href="#Arial-BoldMT-72" x="77.783203"/>
       <use xlink:href="#Arial-BoldMT-65" x="116.699219"/>
       <use xlink:href="#Arial-BoldMT-65" x="172.314453"/>
       <use xlink:href="#Arial-BoldMT-64" x="227.929688"/>
       <use xlink:href="#Arial-BoldMT-79" x="289.013672"/>
      </g>
     </g>
    </g>
    <g id="xtick_3">
     <g id="text_3">
      <!-- HMM -->
      <g style="fill: #262626" transform="translate(187.770019 313.356186) rotate(-30) scale(0.1 -0.1)">
       <defs>
        <path id="Arial-BoldMT-48" d="M 469 0 
L 469 4581 
L 1394 4581 
L 1394 2778 
L 3206 2778 
L 3206 4581 
L 4131 4581 
L 4131 0 
L 3206 0 
L 3206 2003 
L 1394 2003 
L 1394 0 
L 469 0 
z
" transform="scale(0.015625)"/>
        <path id="Arial-BoldMT-4d" d="M 453 0 
L 453 4581 
L 1838 4581 
L 2669 1456 
L 3491 4581 
L 4878 4581 
L 4878 0 
L 4019 0 
L 4019 3606 
L 3109 0 
L 2219 0 
L 1313 3606 
L 1313 0 
L 453 0 
z
" transform="scale(0.015625)"/>
       </defs>
       <use xlink:href="#Arial-BoldMT-48"/>
       <use xlink:href="#Arial-BoldMT-4d" x="72.216797"/>
       <use xlink:href="#Arial-BoldMT-4d" x="155.517578"/>
      </g>
     </g>
    </g>
    <g id="xtick_4">
     <g id="text_4">
      <!-- Momentum -->
      <g style="fill: #262626" transform="translate(227.586055 328.079624) rotate(-30) scale(0.1 -0.1)">
       <defs>
        <path id="Arial-BoldMT-6f" d="M 256 1706 
Q 256 2144 472 2553 
Q 688 2963 1083 3178 
Q 1478 3394 1966 3394 
Q 2719 3394 3200 2905 
Q 3681 2416 3681 1669 
Q 3681 916 3195 420 
Q 2709 -75 1972 -75 
Q 1516 -75 1102 131 
Q 688 338 472 736 
Q 256 1134 256 1706 
z
M 1156 1659 
Q 1156 1166 1390 903 
Q 1625 641 1969 641 
Q 2313 641 2545 903 
Q 2778 1166 2778 1666 
Q 2778 2153 2545 2415 
Q 2313 2678 1969 2678 
Q 1625 2678 1390 2415 
Q 1156 2153 1156 1659 
z
" transform="scale(0.015625)"/>
        <path id="Arial-BoldMT-6d" d="M 394 3319 
L 1203 3319 
L 1203 2866 
Q 1638 3394 2238 3394 
Q 2556 3394 2790 3262 
Q 3025 3131 3175 2866 
Q 3394 3131 3647 3262 
Q 3900 3394 4188 3394 
Q 4553 3394 4806 3245 
Q 5059 3097 5184 2809 
Q 5275 2597 5275 2122 
L 5275 0 
L 4397 0 
L 4397 1897 
Q 4397 2391 4306 2534 
Q 4184 2722 3931 2722 
Q 3747 2722 3584 2609 
Q 3422 2497 3350 2280 
Q 3278 2063 3278 1594 
L 3278 0 
L 2400 0 
L 2400 1819 
Q 2400 2303 2353 2443 
Q 2306 2584 2207 2653 
Q 2109 2722 1941 2722 
Q 1738 2722 1575 2612 
Q 1413 2503 1342 2297 
Q 1272 2091 1272 1613 
L 1272 0 
L 394 0 
L 394 3319 
z
" transform="scale(0.015625)"/>
        <path id="Arial-BoldMT-74" d="M 1981 3319 
L 1981 2619 
L 1381 2619 
L 1381 1281 
Q 1381 875 1398 808 
Q 1416 741 1477 697 
Q 1538 653 1625 653 
Q 1747 653 1978 738 
L 2053 56 
Q 1747 -75 1359 -75 
Q 1122 -75 931 4 
Q 741 84 652 211 
Q 563 338 528 553 
Q 500 706 500 1172 
L 500 2619 
L 97 2619 
L 97 3319 
L 500 3319 
L 500 3978 
L 1381 4491 
L 1381 3319 
L 1981 3319 
z
" transform="scale(0.015625)"/>
        <path id="Arial-BoldMT-75" d="M 2644 0 
L 2644 497 
Q 2463 231 2167 78 
Q 1872 -75 1544 -75 
Q 1209 -75 943 72 
Q 678 219 559 484 
Q 441 750 441 1219 
L 441 3319 
L 1319 3319 
L 1319 1794 
Q 1319 1094 1367 936 
Q 1416 778 1544 686 
Q 1672 594 1869 594 
Q 2094 594 2272 717 
Q 2450 841 2515 1023 
Q 2581 1206 2581 1919 
L 2581 3319 
L 3459 3319 
L 3459 0 
L 2644 0 
z
" transform="scale(0.015625)"/>
       </defs>
       <use xlink:href="#Arial-BoldMT-4d"/>
       <use xlink:href="#Arial-BoldMT-6f" x="83.300781"/>
       <use xlink:href="#Arial-BoldMT-6d" x="144.384766"/>
       <use xlink:href="#Arial-BoldMT-65" x="233.300781"/>
       <use xlink:href="#Arial-BoldMT-6e" x="288.916016"/>
       <use xlink:href="#Arial-BoldMT-74" x="350"/>
       <use xlink:href="#Arial-BoldMT-75" x="383.300781"/>
       <use xlink:href="#Arial-BoldMT-6d" x="444.384766"/>
      </g>
     </g>
    </g>
    <g id="xtick_5">
     <g id="text_5">
      <!-- QLearn -->
      <g style="fill: #262626" transform="translate(308.769689 318.919468) rotate(-30) scale(0.1 -0.1)">
       <defs>
        <path id="Arial-BoldMT-51" d="M 4153 581 
Q 4494 338 4894 194 
L 4553 -459 
Q 4344 -397 4144 -288 
Q 4100 -266 3528 119 
Q 3078 -78 2531 -78 
Q 1475 -78 876 544 
Q 278 1166 278 2291 
Q 278 3413 878 4036 
Q 1478 4659 2506 4659 
Q 3525 4659 4122 4036 
Q 4719 3413 4719 2291 
Q 4719 1697 4553 1247 
Q 4428 903 4153 581 
z
M 3409 1103 
Q 3588 1313 3677 1609 
Q 3766 1906 3766 2291 
Q 3766 3084 3416 3476 
Q 3066 3869 2500 3869 
Q 1934 3869 1582 3475 
Q 1231 3081 1231 2291 
Q 1231 1488 1582 1089 
Q 1934 691 2472 691 
Q 2672 691 2850 756 
Q 2569 941 2278 1044 
L 2538 1572 
Q 2994 1416 3409 1103 
z
" transform="scale(0.015625)"/>
        <path id="Arial-BoldMT-4c" d="M 491 0 
L 491 4544 
L 1416 4544 
L 1416 772 
L 3716 772 
L 3716 0 
L 491 0 
z
" transform="scale(0.015625)"/>
       </defs>
       <use xlink:href="#Arial-BoldMT-51"/>
       <use xlink:href="#Arial-BoldMT-4c" x="77.783203"/>
       <use xlink:href="#Arial-BoldMT-65" x="138.867188"/>
       <use xlink:href="#Arial-BoldMT-61" x="194.482422"/>
       <use xlink:href="#Arial-BoldMT-72" x="250.097656"/>
       <use xlink:href="#Arial-BoldMT-6e" x="289.013672"/>
      </g>
     </g>
    </g>
    <g id="xtick_6">
     <g id="text_6">
      <!-- Random -->
      <g style="fill: #262626" transform="translate(369.765459 321.41478) rotate(-30) scale(0.1 -0.1)">
       <defs>
        <path id="Arial-BoldMT-52" d="M 469 0 
L 469 4581 
L 2416 4581 
Q 3150 4581 3483 4457 
Q 3816 4334 4016 4018 
Q 4216 3703 4216 3297 
Q 4216 2781 3912 2445 
Q 3609 2109 3006 2022 
Q 3306 1847 3501 1637 
Q 3697 1428 4028 894 
L 4588 0 
L 3481 0 
L 2813 997 
Q 2456 1531 2325 1670 
Q 2194 1809 2047 1861 
Q 1900 1913 1581 1913 
L 1394 1913 
L 1394 0 
L 469 0 
z
M 1394 2644 
L 2078 2644 
Q 2744 2644 2909 2700 
Q 3075 2756 3169 2893 
Q 3263 3031 3263 3238 
Q 3263 3469 3139 3611 
Q 3016 3753 2791 3791 
Q 2678 3806 2116 3806 
L 1394 3806 
L 1394 2644 
z
" transform="scale(0.015625)"/>
       </defs>
       <use xlink:href="#Arial-BoldMT-52"/>
       <use xlink:href="#Arial-BoldMT-61" x="72.216797"/>
       <use xlink:href="#Arial-BoldMT-6e" x="127.832031"/>
       <use xlink:href="#Arial-BoldMT-64" x="188.916016"/>
       <use xlink:href="#Arial-BoldMT-6f" x="250"/>
       <use xlink:href="#Arial-BoldMT-6d" x="311.083984"/>
      </g>
     </g>
    </g>
    <g id="xtick_7">
     <g id="text_7">
      <!-- Reinforce -->
      <g style="fill: #262626" transform="translate(429.781537 324.475718) rotate(-30) scale(0.1 -0.1)">
       <defs>
        <path id="Arial-BoldMT-66" d="M 75 3319 
L 563 3319 
L 563 3569 
Q 563 3988 652 4194 
Q 741 4400 980 4529 
Q 1219 4659 1584 4659 
Q 1959 4659 2319 4547 
L 2200 3934 
Q 1991 3984 1797 3984 
Q 1606 3984 1523 3895 
Q 1441 3806 1441 3553 
L 1441 3319 
L 2097 3319 
L 2097 2628 
L 1441 2628 
L 1441 0 
L 563 0 
L 563 2628 
L 75 2628 
L 75 3319 
z
" transform="scale(0.015625)"/>
        <path id="Arial-BoldMT-63" d="M 3353 2338 
L 2488 2181 
Q 2444 2441 2289 2572 
Q 2134 2703 1888 2703 
Q 1559 2703 1364 2476 
Q 1169 2250 1169 1719 
Q 1169 1128 1367 884 
Q 1566 641 1900 641 
Q 2150 641 2309 783 
Q 2469 925 2534 1272 
L 3397 1125 
Q 3263 531 2881 228 
Q 2500 -75 1859 -75 
Q 1131 -75 698 384 
Q 266 844 266 1656 
Q 266 2478 700 2936 
Q 1134 3394 1875 3394 
Q 2481 3394 2839 3133 
Q 3197 2872 3353 2338 
z
" transform="scale(0.015625)"/>
       </defs>
       <use xlink:href="#Arial-BoldMT-52"/>
       <use xlink:href="#Arial-BoldMT-65" x="72.216797"/>
       <use xlink:href="#Arial-BoldMT-69" x="127.832031"/>
       <use xlink:href="#Arial-BoldMT-6e" x="155.615234"/>
       <use xlink:href="#Arial-BoldMT-66" x="216.699219"/>
       <use xlink:href="#Arial-BoldMT-6f" x="250"/>
       <use xlink:href="#Arial-BoldMT-72" x="311.083984"/>
       <use xlink:href="#Arial-BoldMT-63" x="350"/>
       <use xlink:href="#Arial-BoldMT-65" x="405.615234"/>
      </g>
     </g>
    </g>
    <g id="xtick_8">
     <g id="text_8">
      <!-- SARSA -->
      <g style="fill: #262626" transform="translate(504.724375 318.918686) rotate(-30) scale(0.1 -0.1)">
       <defs>
        <path id="Arial-BoldMT-53" d="M 231 1491 
L 1131 1578 
Q 1213 1125 1461 912 
Q 1709 700 2131 700 
Q 2578 700 2804 889 
Q 3031 1078 3031 1331 
Q 3031 1494 2936 1608 
Q 2841 1722 2603 1806 
Q 2441 1863 1863 2006 
Q 1119 2191 819 2459 
Q 397 2838 397 3381 
Q 397 3731 595 4036 
Q 794 4341 1167 4500 
Q 1541 4659 2069 4659 
Q 2931 4659 3367 4281 
Q 3803 3903 3825 3272 
L 2900 3231 
Q 2841 3584 2645 3739 
Q 2450 3894 2059 3894 
Q 1656 3894 1428 3728 
Q 1281 3622 1281 3444 
Q 1281 3281 1419 3166 
Q 1594 3019 2269 2859 
Q 2944 2700 3267 2529 
Q 3591 2359 3773 2064 
Q 3956 1769 3956 1334 
Q 3956 941 3737 597 
Q 3519 253 3119 86 
Q 2719 -81 2122 -81 
Q 1253 -81 787 320 
Q 322 722 231 1491 
z
" transform="scale(0.015625)"/>
        <path id="Arial-BoldMT-41" d="M 4597 0 
L 3591 0 
L 3191 1041 
L 1359 1041 
L 981 0 
L 0 0 
L 1784 4581 
L 2763 4581 
L 4597 0 
z
M 2894 1813 
L 2263 3513 
L 1644 1813 
L 2894 1813 
z
" transform="scale(0.015625)"/>
       </defs>
       <use xlink:href="#Arial-BoldMT-53"/>
       <use xlink:href="#Arial-BoldMT-41" x="66.699219"/>
       <use xlink:href="#Arial-BoldMT-52" x="138.916016"/>
       <use xlink:href="#Arial-BoldMT-53" x="211.132812"/>
       <use xlink:href="#Arial-BoldMT-41" x="277.832031"/>
      </g>
     </g>
    </g>
    <g id="xtick_9">
     <g id="text_9">
      <!-- WSLS -->
      <g style="fill: #262626" transform="translate(575.341146 315.859311) rotate(-30) scale(0.1 -0.1)">
       <defs>
        <path id="Arial-BoldMT-57" d="M 1116 0 
L 22 4581 
L 969 4581 
L 1659 1434 
L 2497 4581 
L 3597 4581 
L 4400 1381 
L 5103 4581 
L 6034 4581 
L 4922 0 
L 3941 0 
L 3028 3425 
L 2119 0 
L 1116 0 
z
" transform="scale(0.015625)"/>
       </defs>
       <use xlink:href="#Arial-BoldMT-57"/>
       <use xlink:href="#Arial-BoldMT-53" x="94.384766"/>
       <use xlink:href="#Arial-BoldMT-4c" x="161.083984"/>
       <use xlink:href="#Arial-BoldMT-53" x="222.167969"/>
      </g>
     </g>
    </g>
    <g id="text_10">
     <!-- Algorithm -->
     <g style="fill: #262626" transform="translate(311.744687 342.378046) scale(0.12 -0.12)">
      <defs>
       <path id="Arial-BoldMT-6c" d="M 459 0 
L 459 4581 
L 1338 4581 
L 1338 0 
L 459 0 
z
" transform="scale(0.015625)"/>
       <path id="Arial-BoldMT-67" d="M 378 -219 
L 1381 -341 
Q 1406 -516 1497 -581 
Q 1622 -675 1891 -675 
Q 2234 -675 2406 -572 
Q 2522 -503 2581 -350 
Q 2622 -241 2622 53 
L 2622 538 
Q 2228 0 1628 0 
Q 959 0 569 566 
Q 263 1013 263 1678 
Q 263 2513 664 2953 
Q 1066 3394 1663 3394 
Q 2278 3394 2678 2853 
L 2678 3319 
L 3500 3319 
L 3500 341 
Q 3500 -247 3403 -537 
Q 3306 -828 3131 -993 
Q 2956 -1159 2664 -1253 
Q 2372 -1347 1925 -1347 
Q 1081 -1347 728 -1058 
Q 375 -769 375 -325 
Q 375 -281 378 -219 
z
M 1163 1728 
Q 1163 1200 1367 954 
Q 1572 709 1872 709 
Q 2194 709 2416 961 
Q 2638 1213 2638 1706 
Q 2638 2222 2425 2472 
Q 2213 2722 1888 2722 
Q 1572 2722 1367 2476 
Q 1163 2231 1163 1728 
z
" transform="scale(0.015625)"/>
       <path id="Arial-BoldMT-68" d="M 1334 4581 
L 1334 2897 
Q 1759 3394 2350 3394 
Q 2653 3394 2897 3281 
Q 3141 3169 3264 2994 
Q 3388 2819 3433 2606 
Q 3478 2394 3478 1947 
L 3478 0 
L 2600 0 
L 2600 1753 
Q 2600 2275 2550 2415 
Q 2500 2556 2373 2639 
Q 2247 2722 2056 2722 
Q 1838 2722 1666 2615 
Q 1494 2509 1414 2295 
Q 1334 2081 1334 1663 
L 1334 0 
L 456 0 
L 456 4581 
L 1334 4581 
z
" transform="scale(0.015625)"/>
      </defs>
      <use xlink:href="#Arial-BoldMT-41"/>
      <use xlink:href="#Arial-BoldMT-6c" x="72.216797"/>
      <use xlink:href="#Arial-BoldMT-67" x="100"/>
      <use xlink:href="#Arial-BoldMT-6f" x="161.083984"/>
      <use xlink:href="#Arial-BoldMT-72" x="222.167969"/>
      <use xlink:href="#Arial-BoldMT-69" x="261.083984"/>
      <use xlink:href="#Arial-BoldMT-74" x="288.867188"/>
      <use xlink:href="#Arial-BoldMT-68" x="322.167969"/>
      <use xlink:href="#Arial-BoldMT-6d" x="383.251953"/>
     </g>
    </g>
   </g>
   <g id="matplotlib.axis_2">
    <g id="ytick_1">
     <g id="line2d_1">
      <path d="M 46.144063 275.443227 
L 634.004062 275.443227 
" clip-path="url(#p8d5b3fc16b)" style="fill: none; stroke: #cccccc; stroke-width: 0.8; stroke-linecap: round"/>
     </g>
     <g id="text_11">
      <!-- 0 -->
      <g style="fill: #262626" transform="translate(33.583125 279.022133) scale(0.1 -0.1)">
       <defs>
        <path id="Arial-BoldMT-30" d="M 1756 4600 
Q 2422 4600 2797 4125 
Q 3244 3563 3244 2259 
Q 3244 959 2794 391 
Q 2422 -78 1756 -78 
Q 1088 -78 678 436 
Q 269 950 269 2269 
Q 269 3563 719 4131 
Q 1091 4600 1756 4600 
z
M 1756 3872 
Q 1597 3872 1472 3770 
Q 1347 3669 1278 3406 
Q 1188 3066 1188 2259 
Q 1188 1453 1269 1151 
Q 1350 850 1473 750 
Q 1597 650 1756 650 
Q 1916 650 2041 751 
Q 2166 853 2234 1116 
Q 2325 1453 2325 2259 
Q 2325 3066 2244 3367 
Q 2163 3669 2039 3770 
Q 1916 3872 1756 3872 
z
" transform="scale(0.015625)"/>
       </defs>
       <use xlink:href="#Arial-BoldMT-30"/>
      </g>
     </g>
    </g>
    <g id="ytick_2">
     <g id="line2d_2">
      <path d="M 46.144063 224.349279 
L 634.004062 224.349279 
" clip-path="url(#p8d5b3fc16b)" style="fill: none; stroke: #cccccc; stroke-width: 0.8; stroke-linecap: round"/>
     </g>
     <g id="text_12">
      <!-- 20 -->
      <g style="fill: #262626" transform="translate(28.022188 227.928185) scale(0.1 -0.1)">
       <defs>
        <path id="Arial-BoldMT-32" d="M 3238 816 
L 3238 0 
L 159 0 
Q 209 463 459 877 
Q 709 1291 1447 1975 
Q 2041 2528 2175 2725 
Q 2356 2997 2356 3263 
Q 2356 3556 2198 3714 
Q 2041 3872 1763 3872 
Q 1488 3872 1325 3706 
Q 1163 3541 1138 3156 
L 263 3244 
Q 341 3969 753 4284 
Q 1166 4600 1784 4600 
Q 2463 4600 2850 4234 
Q 3238 3869 3238 3325 
Q 3238 3016 3127 2736 
Q 3016 2456 2775 2150 
Q 2616 1947 2200 1565 
Q 1784 1184 1673 1059 
Q 1563 934 1494 816 
L 3238 816 
z
" transform="scale(0.015625)"/>
       </defs>
       <use xlink:href="#Arial-BoldMT-32"/>
       <use xlink:href="#Arial-BoldMT-30" x="55.615234"/>
      </g>
     </g>
    </g>
    <g id="ytick_3">
     <g id="line2d_3">
      <path d="M 46.144063 173.255331 
L 634.004062 173.255331 
" clip-path="url(#p8d5b3fc16b)" style="fill: none; stroke: #cccccc; stroke-width: 0.8; stroke-linecap: round"/>
     </g>
     <g id="text_13">
      <!-- 40 -->
      <g style="fill: #262626" transform="translate(28.022188 176.834237) scale(0.1 -0.1)">
       <defs>
        <path id="Arial-BoldMT-34" d="M 1994 0 
L 1994 922 
L 119 922 
L 119 1691 
L 2106 4600 
L 2844 4600 
L 2844 1694 
L 3413 1694 
L 3413 922 
L 2844 922 
L 2844 0 
L 1994 0 
z
M 1994 1694 
L 1994 3259 
L 941 1694 
L 1994 1694 
z
" transform="scale(0.015625)"/>
       </defs>
       <use xlink:href="#Arial-BoldMT-34"/>
       <use xlink:href="#Arial-BoldMT-30" x="55.615234"/>
      </g>
     </g>
    </g>
    <g id="ytick_4">
     <g id="line2d_4">
      <path d="M 46.144063 122.161383 
L 634.004062 122.161383 
" clip-path="url(#p8d5b3fc16b)" style="fill: none; stroke: #cccccc; stroke-width: 0.8; stroke-linecap: round"/>
     </g>
     <g id="text_14">
      <!-- 60 -->
      <g style="fill: #262626" transform="translate(28.022188 125.740289) scale(0.1 -0.1)">
       <defs>
        <path id="Arial-BoldMT-36" d="M 3247 3459 
L 2397 3366 
Q 2366 3628 2234 3753 
Q 2103 3878 1894 3878 
Q 1616 3878 1423 3628 
Q 1231 3378 1181 2588 
Q 1509 2975 1997 2975 
Q 2547 2975 2939 2556 
Q 3331 2138 3331 1475 
Q 3331 772 2918 347 
Q 2506 -78 1859 -78 
Q 1166 -78 719 461 
Q 272 1000 272 2228 
Q 272 3488 737 4044 
Q 1203 4600 1947 4600 
Q 2469 4600 2811 4308 
Q 3153 4016 3247 3459 
z
M 1256 1544 
Q 1256 1116 1453 883 
Q 1650 650 1903 650 
Q 2147 650 2309 840 
Q 2472 1031 2472 1466 
Q 2472 1913 2297 2120 
Q 2122 2328 1859 2328 
Q 1606 2328 1431 2129 
Q 1256 1931 1256 1544 
z
" transform="scale(0.015625)"/>
       </defs>
       <use xlink:href="#Arial-BoldMT-36"/>
       <use xlink:href="#Arial-BoldMT-30" x="55.615234"/>
      </g>
     </g>
    </g>
    <g id="ytick_5">
     <g id="line2d_5">
      <path d="M 46.144063 71.067435 
L 634.004062 71.067435 
" clip-path="url(#p8d5b3fc16b)" style="fill: none; stroke: #cccccc; stroke-width: 0.8; stroke-linecap: round"/>
     </g>
     <g id="text_15">
      <!-- 80 -->
      <g style="fill: #262626" transform="translate(28.022188 74.646341) scale(0.1 -0.1)">
       <defs>
        <path id="Arial-BoldMT-38" d="M 1025 2472 
Q 684 2616 529 2867 
Q 375 3119 375 3419 
Q 375 3931 733 4265 
Q 1091 4600 1750 4600 
Q 2403 4600 2764 4265 
Q 3125 3931 3125 3419 
Q 3125 3100 2959 2851 
Q 2794 2603 2494 2472 
Q 2875 2319 3073 2025 
Q 3272 1731 3272 1347 
Q 3272 713 2867 316 
Q 2463 -81 1791 -81 
Q 1166 -81 750 247 
Q 259 634 259 1309 
Q 259 1681 443 1992 
Q 628 2303 1025 2472 
z
M 1206 3356 
Q 1206 3094 1354 2947 
Q 1503 2800 1750 2800 
Q 2000 2800 2150 2948 
Q 2300 3097 2300 3359 
Q 2300 3606 2151 3754 
Q 2003 3903 1759 3903 
Q 1506 3903 1356 3753 
Q 1206 3603 1206 3356 
z
M 1125 1394 
Q 1125 1031 1311 828 
Q 1497 625 1775 625 
Q 2047 625 2225 820 
Q 2403 1016 2403 1384 
Q 2403 1706 2222 1901 
Q 2041 2097 1763 2097 
Q 1441 2097 1283 1875 
Q 1125 1653 1125 1394 
z
" transform="scale(0.015625)"/>
       </defs>
       <use xlink:href="#Arial-BoldMT-38"/>
       <use xlink:href="#Arial-BoldMT-30" x="55.615234"/>
      </g>
     </g>
    </g>
    <g id="ytick_6">
     <g id="line2d_6">
      <path d="M 46.144063 19.973487 
L 634.004062 19.973487 
" clip-path="url(#p8d5b3fc16b)" style="fill: none; stroke: #cccccc; stroke-width: 0.8; stroke-linecap: round"/>
     </g>
     <g id="text_16">
      <!-- 100 -->
      <g style="fill: #262626" transform="translate(22.46125 23.552393) scale(0.1 -0.1)">
       <defs>
        <path id="Arial-BoldMT-31" d="M 2519 0 
L 1641 0 
L 1641 3309 
Q 1159 2859 506 2644 
L 506 3441 
Q 850 3553 1253 3867 
Q 1656 4181 1806 4600 
L 2519 4600 
L 2519 0 
z
" transform="scale(0.015625)"/>
       </defs>
       <use xlink:href="#Arial-BoldMT-31"/>
       <use xlink:href="#Arial-BoldMT-30" x="55.615234"/>
       <use xlink:href="#Arial-BoldMT-30" x="111.230469"/>
      </g>
     </g>
    </g>
    <g id="text_17">
     <!-- Accuracy (%) -->
     <g style="fill: #262626" transform="translate(15.935625 185.722107) rotate(-90) scale(0.12 -0.12)">
      <defs>
       <path id="Arial-BoldMT-20" transform="scale(0.015625)"/>
       <path id="Arial-BoldMT-28" d="M 1916 -1347 
L 1313 -1347 
Q 834 -625 584 153 
Q 334 931 334 1659 
Q 334 2563 644 3369 
Q 913 4069 1325 4659 
L 1925 4659 
Q 1497 3713 1336 3048 
Q 1175 2384 1175 1641 
Q 1175 1128 1270 590 
Q 1366 53 1531 -431 
Q 1641 -750 1916 -1347 
z
" transform="scale(0.015625)"/>
       <path id="Arial-BoldMT-25" d="M 278 3450 
Q 278 4066 548 4362 
Q 819 4659 1281 4659 
Q 1759 4659 2029 4364 
Q 2300 4069 2300 3450 
Q 2300 2834 2029 2537 
Q 1759 2241 1297 2241 
Q 819 2241 548 2536 
Q 278 2831 278 3450 
z
M 963 3456 
Q 963 3009 1066 2856 
Q 1144 2744 1281 2744 
Q 1422 2744 1500 2856 
Q 1600 3009 1600 3456 
Q 1600 3903 1500 4053 
Q 1422 4169 1281 4169 
Q 1144 4169 1066 4056 
Q 963 3903 963 3456 
z
M 1950 -175 
L 1300 -175 
L 3741 4659 
L 4372 4659 
L 1950 -175 
z
M 3369 1028 
Q 3369 1644 3639 1941 
Q 3909 2238 4378 2238 
Q 4850 2238 5120 1941 
Q 5391 1644 5391 1028 
Q 5391 409 5120 112 
Q 4850 -184 4388 -184 
Q 3909 -184 3639 112 
Q 3369 409 3369 1028 
z
M 4053 1031 
Q 4053 584 4156 434 
Q 4234 319 4372 319 
Q 4513 319 4588 431 
Q 4691 584 4691 1031 
Q 4691 1478 4591 1631 
Q 4513 1744 4372 1744 
Q 4231 1744 4156 1631 
Q 4053 1478 4053 1031 
z
" transform="scale(0.015625)"/>
       <path id="Arial-BoldMT-29" d="M 216 -1347 
Q 475 -791 581 -494 
Q 688 -197 778 190 
Q 869 578 912 926 
Q 956 1275 956 1641 
Q 956 2384 797 3048 
Q 638 3713 209 4659 
L 806 4659 
Q 1278 3988 1539 3234 
Q 1800 2481 1800 1706 
Q 1800 1053 1594 306 
Q 1359 -531 822 -1347 
L 216 -1347 
z
" transform="scale(0.015625)"/>
      </defs>
      <use xlink:href="#Arial-BoldMT-41"/>
      <use xlink:href="#Arial-BoldMT-63" x="72.216797"/>
      <use xlink:href="#Arial-BoldMT-63" x="127.832031"/>
      <use xlink:href="#Arial-BoldMT-75" x="183.447266"/>
      <use xlink:href="#Arial-BoldMT-72" x="244.53125"/>
      <use xlink:href="#Arial-BoldMT-61" x="283.447266"/>
      <use xlink:href="#Arial-BoldMT-63" x="339.0625"/>
      <use xlink:href="#Arial-BoldMT-79" x="394.677734"/>
      <use xlink:href="#Arial-BoldMT-20" x="450.292969"/>
      <use xlink:href="#Arial-BoldMT-28" x="478.076172"/>
      <use xlink:href="#Arial-BoldMT-25" x="511.376953"/>
      <use xlink:href="#Arial-BoldMT-29" x="600.292969"/>
     </g>
    </g>
   </g>
   <g id="patch_3">
    <path d="M 52.67584 163.766455 
L 104.930062 163.766455 
L 104.930062 92.364583 
L 52.67584 92.364583 
L 52.67584 163.766455 
z
" clip-path="url(#p8d5b3fc16b)" style="fill: #3274a1; stroke: #3d3d3d; stroke-width: 1.5; stroke-linejoin: miter"/>
   </g>
   <g id="patch_4">
    <path d="M 117.993618 190.286647 
L 170.24784 190.286647 
L 170.24784 89.98859 
L 117.993618 89.98859 
L 117.993618 190.286647 
z
" clip-path="url(#p8d5b3fc16b)" style="fill: #b5c8e1; stroke: #3d3d3d; stroke-width: 1.5; stroke-linejoin: miter"/>
   </g>
   <g id="patch_5">
    <path d="M 183.311396 188.29079 
L 235.565618 188.29079 
L 235.565618 89.363827 
L 183.311396 89.363827 
L 183.311396 188.29079 
z
" clip-path="url(#p8d5b3fc16b)" style="fill: #e1812c; stroke: #3d3d3d; stroke-width: 1.5; stroke-linejoin: miter"/>
   </g>
   <g id="patch_6">
    <path d="M 248.629174 231.952545 
L 300.883396 231.952545 
L 300.883396 166.538573 
L 248.629174 166.538573 
L 248.629174 231.952545 
z
" clip-path="url(#p8d5b3fc16b)" style="fill: #eebb89; stroke: #3d3d3d; stroke-width: 1.5; stroke-linejoin: miter"/>
   </g>
   <g id="patch_7">
    <path d="M 313.946951 127.743417 
L 366.201174 127.743417 
L 366.201174 62.551777 
L 313.946951 62.551777 
L 313.946951 127.743417 
z
" clip-path="url(#p8d5b3fc16b)" style="fill: #3a923a; stroke: #3d3d3d; stroke-width: 1.5; stroke-linejoin: miter"/>
   </g>
   <g id="patch_8">
    <path d="M 379.264729 219.704375 
L 431.518951 219.704375 
L 431.518951 203.9117 
L 379.264729 203.9117 
L 379.264729 219.704375 
z
" clip-path="url(#p8d5b3fc16b)" style="fill: #9fd495; stroke: #3d3d3d; stroke-width: 1.5; stroke-linejoin: miter"/>
   </g>
   <g id="patch_9">
    <path d="M 444.582507 136.542721 
L 496.836729 136.542721 
L 496.836729 66.880909 
L 444.582507 66.880909 
L 444.582507 136.542721 
z
" clip-path="url(#p8d5b3fc16b)" style="fill: #c03d3e; stroke: #3d3d3d; stroke-width: 1.5; stroke-linejoin: miter"/>
   </g>
   <g id="patch_10">
    <path d="M 509.900285 132.830148 
L 562.154507 132.830148 
L 562.154507 66.422531 
L 509.900285 66.422531 
L 509.900285 132.830148 
z
" clip-path="url(#p8d5b3fc16b)" style="fill: #f2a5a3; stroke: #3d3d3d; stroke-width: 1.5; stroke-linejoin: miter"/>
   </g>
   <g id="patch_11">
    <path d="M 575.218062 226.77828 
L 627.472285 226.77828 
L 627.472285 192.841344 
L 575.218062 192.841344 
L 575.218062 226.77828 
z
" clip-path="url(#p8d5b3fc16b)" style="fill: #9372b2; stroke: #3d3d3d; stroke-width: 1.5; stroke-linejoin: miter"/>
   </g>
   <g id="line2d_7">
    <path d="M 78.802951 163.766455 
L 78.802951 238.94755 
" clip-path="url(#p8d5b3fc16b)" style="fill: none; stroke: #3d3d3d; stroke-width: 1.5; stroke-linecap: round"/>
   </g>
   <g id="line2d_8">
    <path d="M 78.802951 92.364583 
L 78.802951 19.973487 
" clip-path="url(#p8d5b3fc16b)" style="fill: none; stroke: #3d3d3d; stroke-width: 1.5; stroke-linecap: round"/>
   </g>
   <g id="line2d_9">
    <path d="M 65.739396 238.94755 
L 91.866507 238.94755 
" clip-path="url(#p8d5b3fc16b)" style="fill: none; stroke: #3d3d3d; stroke-width: 1.5; stroke-linecap: round"/>
   </g>
   <g id="line2d_10">
    <path d="M 65.739396 19.973487 
L 91.866507 19.973487 
" clip-path="url(#p8d5b3fc16b)" style="fill: none; stroke: #3d3d3d; stroke-width: 1.5; stroke-linecap: round"/>
   </g>
   <g id="line2d_11"/>
   <g id="line2d_12">
    <path d="M 144.120729 190.286647 
L 144.120729 275.443227 
" clip-path="url(#p8d5b3fc16b)" style="fill: none; stroke: #3d3d3d; stroke-width: 1.5; stroke-linecap: round"/>
   </g>
   <g id="line2d_13">
    <path d="M 144.120729 89.98859 
L 144.120729 19.973487 
" clip-path="url(#p8d5b3fc16b)" style="fill: none; stroke: #3d3d3d; stroke-width: 1.5; stroke-linecap: round"/>
   </g>
   <g id="line2d_14">
    <path d="M 131.057174 275.443227 
L 157.184285 275.443227 
" clip-path="url(#p8d5b3fc16b)" style="fill: none; stroke: #3d3d3d; stroke-width: 1.5; stroke-linecap: round"/>
   </g>
   <g id="line2d_15">
    <path d="M 131.057174 19.973487 
L 157.184285 19.973487 
" clip-path="url(#p8d5b3fc16b)" style="fill: none; stroke: #3d3d3d; stroke-width: 1.5; stroke-linecap: round"/>
   </g>
   <g id="line2d_16"/>
   <g id="line2d_17">
    <path d="M 209.438507 188.29079 
L 209.438507 275.443227 
" clip-path="url(#p8d5b3fc16b)" style="fill: none; stroke: #3d3d3d; stroke-width: 1.5; stroke-linecap: round"/>
   </g>
   <g id="line2d_18">
    <path d="M 209.438507 89.363827 
L 209.438507 19.973487 
" clip-path="url(#p8d5b3fc16b)" style="fill: none; stroke: #3d3d3d; stroke-width: 1.5; stroke-linecap: round"/>
   </g>
   <g id="line2d_19">
    <path d="M 196.374951 275.443227 
L 222.502062 275.443227 
" clip-path="url(#p8d5b3fc16b)" style="fill: none; stroke: #3d3d3d; stroke-width: 1.5; stroke-linecap: round"/>
   </g>
   <g id="line2d_20">
    <path d="M 196.374951 19.973487 
L 222.502062 19.973487 
" clip-path="url(#p8d5b3fc16b)" style="fill: none; stroke: #3d3d3d; stroke-width: 1.5; stroke-linecap: round"/>
   </g>
   <g id="line2d_21"/>
   <g id="line2d_22">
    <path d="M 274.756285 231.952545 
L 274.756285 275.443227 
" clip-path="url(#p8d5b3fc16b)" style="fill: none; stroke: #3d3d3d; stroke-width: 1.5; stroke-linecap: round"/>
   </g>
   <g id="line2d_23">
    <path d="M 274.756285 166.538573 
L 274.756285 83.840922 
" clip-path="url(#p8d5b3fc16b)" style="fill: none; stroke: #3d3d3d; stroke-width: 1.5; stroke-linecap: round"/>
   </g>
   <g id="line2d_24">
    <path d="M 261.692729 275.443227 
L 287.81984 275.443227 
" clip-path="url(#p8d5b3fc16b)" style="fill: none; stroke: #3d3d3d; stroke-width: 1.5; stroke-linecap: round"/>
   </g>
   <g id="line2d_25">
    <path d="M 261.692729 83.840922 
L 287.81984 83.840922 
" clip-path="url(#p8d5b3fc16b)" style="fill: none; stroke: #3d3d3d; stroke-width: 1.5; stroke-linecap: round"/>
   </g>
   <g id="line2d_26">
    <defs>
     <path id="mdc842fb9c7" d="M -0 2.12132 
L 1.272792 0 
L 0 -2.12132 
L -1.272792 -0 
z
" style="stroke: #3d3d3d; stroke-linejoin: miter"/>
    </defs>
    <g clip-path="url(#p8d5b3fc16b)">
     <use xlink:href="#mdc842fb9c7" x="274.756285" y="19.973487" style="fill: #3d3d3d; stroke: #3d3d3d; stroke-linejoin: miter"/>
     <use xlink:href="#mdc842fb9c7" x="274.756285" y="19.973487" style="fill: #3d3d3d; stroke: #3d3d3d; stroke-linejoin: miter"/>
     <use xlink:href="#mdc842fb9c7" x="274.756285" y="19.973487" style="fill: #3d3d3d; stroke: #3d3d3d; stroke-linejoin: miter"/>
     <use xlink:href="#mdc842fb9c7" x="274.756285" y="19.973487" style="fill: #3d3d3d; stroke: #3d3d3d; stroke-linejoin: miter"/>
     <use xlink:href="#mdc842fb9c7" x="274.756285" y="19.973487" style="fill: #3d3d3d; stroke: #3d3d3d; stroke-linejoin: miter"/>
     <use xlink:href="#mdc842fb9c7" x="274.756285" y="19.973487" style="fill: #3d3d3d; stroke: #3d3d3d; stroke-linejoin: miter"/>
     <use xlink:href="#mdc842fb9c7" x="274.756285" y="19.973487" style="fill: #3d3d3d; stroke: #3d3d3d; stroke-linejoin: miter"/>
     <use xlink:href="#mdc842fb9c7" x="274.756285" y="19.973487" style="fill: #3d3d3d; stroke: #3d3d3d; stroke-linejoin: miter"/>
     <use xlink:href="#mdc842fb9c7" x="274.756285" y="19.973487" style="fill: #3d3d3d; stroke: #3d3d3d; stroke-linejoin: miter"/>
     <use xlink:href="#mdc842fb9c7" x="274.756285" y="19.973487" style="fill: #3d3d3d; stroke: #3d3d3d; stroke-linejoin: miter"/>
     <use xlink:href="#mdc842fb9c7" x="274.756285" y="51.907204" style="fill: #3d3d3d; stroke: #3d3d3d; stroke-linejoin: miter"/>
     <use xlink:href="#mdc842fb9c7" x="274.756285" y="19.973487" style="fill: #3d3d3d; stroke: #3d3d3d; stroke-linejoin: miter"/>
     <use xlink:href="#mdc842fb9c7" x="274.756285" y="19.973487" style="fill: #3d3d3d; stroke: #3d3d3d; stroke-linejoin: miter"/>
     <use xlink:href="#mdc842fb9c7" x="274.756285" y="19.973487" style="fill: #3d3d3d; stroke: #3d3d3d; stroke-linejoin: miter"/>
     <use xlink:href="#mdc842fb9c7" x="274.756285" y="19.973487" style="fill: #3d3d3d; stroke: #3d3d3d; stroke-linejoin: miter"/>
     <use xlink:href="#mdc842fb9c7" x="274.756285" y="19.973487" style="fill: #3d3d3d; stroke: #3d3d3d; stroke-linejoin: miter"/>
     <use xlink:href="#mdc842fb9c7" x="274.756285" y="19.973487" style="fill: #3d3d3d; stroke: #3d3d3d; stroke-linejoin: miter"/>
     <use xlink:href="#mdc842fb9c7" x="274.756285" y="19.973487" style="fill: #3d3d3d; stroke: #3d3d3d; stroke-linejoin: miter"/>
     <use xlink:href="#mdc842fb9c7" x="274.756285" y="67.033702" style="fill: #3d3d3d; stroke: #3d3d3d; stroke-linejoin: miter"/>
     <use xlink:href="#mdc842fb9c7" x="274.756285" y="61.401012" style="fill: #3d3d3d; stroke: #3d3d3d; stroke-linejoin: miter"/>
     <use xlink:href="#mdc842fb9c7" x="274.756285" y="51.907204" style="fill: #3d3d3d; stroke: #3d3d3d; stroke-linejoin: miter"/>
    </g>
   </g>
   <g id="line2d_27">
    <path d="M 340.074062 127.743417 
L 340.074062 218.672174 
" clip-path="url(#p8d5b3fc16b)" style="fill: none; stroke: #3d3d3d; stroke-width: 1.5; stroke-linecap: round"/>
   </g>
   <g id="line2d_28">
    <path d="M 340.074062 62.551777 
L 340.074062 19.973487 
" clip-path="url(#p8d5b3fc16b)" style="fill: none; stroke: #3d3d3d; stroke-width: 1.5; stroke-linecap: round"/>
   </g>
   <g id="line2d_29">
    <path d="M 327.010507 218.672174 
L 353.137618 218.672174 
" clip-path="url(#p8d5b3fc16b)" style="fill: none; stroke: #3d3d3d; stroke-width: 1.5; stroke-linecap: round"/>
   </g>
   <g id="line2d_30">
    <path d="M 327.010507 19.973487 
L 353.137618 19.973487 
" clip-path="url(#p8d5b3fc16b)" style="fill: none; stroke: #3d3d3d; stroke-width: 1.5; stroke-linecap: round"/>
   </g>
   <g id="line2d_31">
    <g clip-path="url(#p8d5b3fc16b)">
     <use xlink:href="#mdc842fb9c7" x="340.074062" y="228.994183" style="fill: #3d3d3d; stroke: #3d3d3d; stroke-linejoin: miter"/>
    </g>
   </g>
   <g id="line2d_32">
    <path d="M 405.39184 219.704375 
L 405.39184 241.380595 
" clip-path="url(#p8d5b3fc16b)" style="fill: none; stroke: #3d3d3d; stroke-width: 1.5; stroke-linecap: round"/>
   </g>
   <g id="line2d_33">
    <path d="M 405.39184 203.9117 
L 405.39184 183.474121 
" clip-path="url(#p8d5b3fc16b)" style="fill: none; stroke: #3d3d3d; stroke-width: 1.5; stroke-linecap: round"/>
   </g>
   <g id="line2d_34">
    <path d="M 392.328285 241.380595 
L 418.455396 241.380595 
" clip-path="url(#p8d5b3fc16b)" style="fill: none; stroke: #3d3d3d; stroke-width: 1.5; stroke-linecap: round"/>
   </g>
   <g id="line2d_35">
    <path d="M 392.328285 183.474121 
L 418.455396 183.474121 
" clip-path="url(#p8d5b3fc16b)" style="fill: none; stroke: #3d3d3d; stroke-width: 1.5; stroke-linecap: round"/>
   </g>
   <g id="line2d_36">
    <g clip-path="url(#p8d5b3fc16b)">
     <use xlink:href="#mdc842fb9c7" x="405.39184" y="249.896253" style="fill: #3d3d3d; stroke: #3d3d3d; stroke-linejoin: miter"/>
     <use xlink:href="#mdc842fb9c7" x="405.39184" y="244.000797" style="fill: #3d3d3d; stroke: #3d3d3d; stroke-linejoin: miter"/>
     <use xlink:href="#mdc842fb9c7" x="405.39184" y="165.956196" style="fill: #3d3d3d; stroke: #3d3d3d; stroke-linejoin: miter"/>
     <use xlink:href="#mdc842fb9c7" x="405.39184" y="173.255331" style="fill: #3d3d3d; stroke: #3d3d3d; stroke-linejoin: miter"/>
     <use xlink:href="#mdc842fb9c7" x="405.39184" y="177.185635" style="fill: #3d3d3d; stroke: #3d3d3d; stroke-linejoin: miter"/>
     <use xlink:href="#mdc842fb9c7" x="405.39184" y="173.255331" style="fill: #3d3d3d; stroke: #3d3d3d; stroke-linejoin: miter"/>
     <use xlink:href="#mdc842fb9c7" x="405.39184" y="167.578226" style="fill: #3d3d3d; stroke: #3d3d3d; stroke-linejoin: miter"/>
    </g>
   </g>
   <g id="line2d_37">
    <path d="M 470.709618 136.542721 
L 470.709618 232.864937 
" clip-path="url(#p8d5b3fc16b)" style="fill: none; stroke: #3d3d3d; stroke-width: 1.5; stroke-linecap: round"/>
   </g>
   <g id="line2d_38">
    <path d="M 470.709618 66.880909 
L 470.709618 19.973487 
" clip-path="url(#p8d5b3fc16b)" style="fill: none; stroke: #3d3d3d; stroke-width: 1.5; stroke-linecap: round"/>
   </g>
   <g id="line2d_39">
    <path d="M 457.646062 232.864937 
L 483.773174 232.864937 
" clip-path="url(#p8d5b3fc16b)" style="fill: none; stroke: #3d3d3d; stroke-width: 1.5; stroke-linecap: round"/>
   </g>
   <g id="line2d_40">
    <path d="M 457.646062 19.973487 
L 483.773174 19.973487 
" clip-path="url(#p8d5b3fc16b)" style="fill: none; stroke: #3d3d3d; stroke-width: 1.5; stroke-linecap: round"/>
   </g>
   <g id="line2d_41">
    <g clip-path="url(#p8d5b3fc16b)">
     <use xlink:href="#mdc842fb9c7" x="470.709618" y="247.0577" style="fill: #3d3d3d; stroke: #3d3d3d; stroke-linejoin: miter"/>
    </g>
   </g>
   <g id="line2d_42">
    <path d="M 536.027396 132.830148 
L 536.027396 196.837153 
" clip-path="url(#p8d5b3fc16b)" style="fill: none; stroke: #3d3d3d; stroke-width: 1.5; stroke-linecap: round"/>
   </g>
   <g id="line2d_43">
    <path d="M 536.027396 66.422531 
L 536.027396 19.973487 
" clip-path="url(#p8d5b3fc16b)" style="fill: none; stroke: #3d3d3d; stroke-width: 1.5; stroke-linecap: round"/>
   </g>
   <g id="line2d_44">
    <path d="M 522.96384 196.837153 
L 549.090951 196.837153 
" clip-path="url(#p8d5b3fc16b)" style="fill: none; stroke: #3d3d3d; stroke-width: 1.5; stroke-linecap: round"/>
   </g>
   <g id="line2d_45">
    <path d="M 522.96384 19.973487 
L 549.090951 19.973487 
" clip-path="url(#p8d5b3fc16b)" style="fill: none; stroke: #3d3d3d; stroke-width: 1.5; stroke-linecap: round"/>
   </g>
   <g id="line2d_46">
    <g clip-path="url(#p8d5b3fc16b)">
     <use xlink:href="#mdc842fb9c7" x="536.027396" y="275.443227" style="fill: #3d3d3d; stroke: #3d3d3d; stroke-linejoin: miter"/>
     <use xlink:href="#mdc842fb9c7" x="536.027396" y="261.997451" style="fill: #3d3d3d; stroke: #3d3d3d; stroke-linejoin: miter"/>
    </g>
   </g>
   <g id="line2d_47">
    <path d="M 601.345174 226.77828 
L 601.345174 275.443227 
" clip-path="url(#p8d5b3fc16b)" style="fill: none; stroke: #3d3d3d; stroke-width: 1.5; stroke-linecap: round"/>
   </g>
   <g id="line2d_48">
    <path d="M 601.345174 192.841344 
L 601.345174 147.708357 
" clip-path="url(#p8d5b3fc16b)" style="fill: none; stroke: #3d3d3d; stroke-width: 1.5; stroke-linecap: round"/>
   </g>
   <g id="line2d_49">
    <path d="M 588.281618 275.443227 
L 614.408729 275.443227 
" clip-path="url(#p8d5b3fc16b)" style="fill: none; stroke: #3d3d3d; stroke-width: 1.5; stroke-linecap: round"/>
   </g>
   <g id="line2d_50">
    <path d="M 588.281618 147.708357 
L 614.408729 147.708357 
" clip-path="url(#p8d5b3fc16b)" style="fill: none; stroke: #3d3d3d; stroke-width: 1.5; stroke-linecap: round"/>
   </g>
   <g id="line2d_51">
    <g clip-path="url(#p8d5b3fc16b)">
     <use xlink:href="#mdc842fb9c7" x="601.345174" y="105.130067" style="fill: #3d3d3d; stroke: #3d3d3d; stroke-linejoin: miter"/>
     <use xlink:href="#mdc842fb9c7" x="601.345174" y="62.551777" style="fill: #3d3d3d; stroke: #3d3d3d; stroke-linejoin: miter"/>
     <use xlink:href="#mdc842fb9c7" x="601.345174" y="133.515594" style="fill: #3d3d3d; stroke: #3d3d3d; stroke-linejoin: miter"/>
     <use xlink:href="#mdc842fb9c7" x="601.345174" y="92.964841" style="fill: #3d3d3d; stroke: #3d3d3d; stroke-linejoin: miter"/>
     <use xlink:href="#mdc842fb9c7" x="601.345174" y="136.096096" style="fill: #3d3d3d; stroke: #3d3d3d; stroke-linejoin: miter"/>
     <use xlink:href="#mdc842fb9c7" x="601.345174" y="122.161383" style="fill: #3d3d3d; stroke: #3d3d3d; stroke-linejoin: miter"/>
     <use xlink:href="#mdc842fb9c7" x="601.345174" y="139.192699" style="fill: #3d3d3d; stroke: #3d3d3d; stroke-linejoin: miter"/>
    </g>
   </g>
   <g id="line2d_52">
    <path d="M 52.67584 130.06878 
L 104.930062 130.06878 
" clip-path="url(#p8d5b3fc16b)" style="fill: none; stroke: #3d3d3d; stroke-width: 1.5; stroke-linecap: round"/>
   </g>
   <g id="line2d_53">
    <path d="M 117.993618 147.708357 
L 170.24784 147.708357 
" clip-path="url(#p8d5b3fc16b)" style="fill: none; stroke: #3d3d3d; stroke-width: 1.5; stroke-linecap: round"/>
   </g>
   <g id="line2d_54">
    <path d="M 183.311396 139.192699 
L 235.565618 139.192699 
" clip-path="url(#p8d5b3fc16b)" style="fill: none; stroke: #3d3d3d; stroke-width: 1.5; stroke-linecap: round"/>
   </g>
   <g id="line2d_55">
    <path d="M 248.629174 203.465641 
L 300.883396 203.465641 
" clip-path="url(#p8d5b3fc16b)" style="fill: none; stroke: #3d3d3d; stroke-width: 1.5; stroke-linecap: round"/>
   </g>
   <g id="line2d_56">
    <path d="M 313.946951 92.964841 
L 366.201174 92.964841 
" clip-path="url(#p8d5b3fc16b)" style="fill: none; stroke: #3d3d3d; stroke-width: 1.5; stroke-linecap: round"/>
   </g>
   <g id="line2d_57">
    <path d="M 379.264729 213.496617 
L 431.518951 213.496617 
" clip-path="url(#p8d5b3fc16b)" style="fill: none; stroke: #3d3d3d; stroke-width: 1.5; stroke-linecap: round"/>
   </g>
   <g id="line2d_58">
    <path d="M 444.582507 99.09703 
L 496.836729 99.09703 
" clip-path="url(#p8d5b3fc16b)" style="fill: none; stroke: #3d3d3d; stroke-width: 1.5; stroke-linecap: round"/>
   </g>
   <g id="line2d_59">
    <path d="M 509.900285 93.725168 
L 562.154507 93.725168 
" clip-path="url(#p8d5b3fc16b)" style="fill: none; stroke: #3d3d3d; stroke-width: 1.5; stroke-linecap: round"/>
   </g>
   <g id="line2d_60">
    <path d="M 575.218062 211.575792 
L 627.472285 211.575792 
" clip-path="url(#p8d5b3fc16b)" style="fill: none; stroke: #3d3d3d; stroke-width: 1.5; stroke-linecap: round"/>
   </g>
   <g id="patch_12">
    <path d="M 46.144063 288.216714 
L 46.144063 7.2 
" style="fill: none; stroke: #cccccc; stroke-width: 0.8; stroke-linejoin: miter; stroke-linecap: square"/>
   </g>
   <g id="patch_13">
    <path d="M 634.004062 288.216714 
L 634.004062 7.2 
" style="fill: none; stroke: #cccccc; stroke-width: 0.8; stroke-linejoin: miter; stroke-linecap: square"/>
   </g>
   <g id="patch_14">
    <path d="M 46.144063 288.216714 
L 634.004062 288.216714 
" style="fill: none; stroke: #cccccc; stroke-width: 0.8; stroke-linejoin: miter; stroke-linecap: square"/>
   </g>
   <g id="patch_15">
    <path d="M 46.144063 7.2 
L 634.004062 7.2 
" style="fill: none; stroke: #cccccc; stroke-width: 0.8; stroke-linejoin: miter; stroke-linecap: square"/>
   </g>
   <g id="text_18">
    <!-- 58.82 -->
    <g transform="translate(66.292014 125.176587) scale(0.1 -0.1)">
     <defs>
      <path id="Arial-BoldMT-35" d="M 284 1178 
L 1159 1269 
Q 1197 972 1381 798 
Q 1566 625 1806 625 
Q 2081 625 2272 848 
Q 2463 1072 2463 1522 
Q 2463 1944 2273 2155 
Q 2084 2366 1781 2366 
Q 1403 2366 1103 2031 
L 391 2134 
L 841 4519 
L 3163 4519 
L 3163 3697 
L 1506 3697 
L 1369 2919 
Q 1663 3066 1969 3066 
Q 2553 3066 2959 2641 
Q 3366 2216 3366 1538 
Q 3366 972 3038 528 
Q 2591 -78 1797 -78 
Q 1163 -78 763 262 
Q 363 603 284 1178 
z
" transform="scale(0.015625)"/>
      <path id="Arial-BoldMT-2e" d="M 459 0 
L 459 878 
L 1338 878 
L 1338 0 
L 459 0 
z
" transform="scale(0.015625)"/>
     </defs>
     <use xlink:href="#Arial-BoldMT-35"/>
     <use xlink:href="#Arial-BoldMT-38" x="55.615234"/>
     <use xlink:href="#Arial-BoldMT-2e" x="111.230469"/>
     <use xlink:href="#Arial-BoldMT-38" x="139.013672"/>
     <use xlink:href="#Arial-BoldMT-32" x="194.628906"/>
    </g>
   </g>
   <g id="text_19">
    <!-- 53.61 -->
    <g transform="translate(131.609792 138.495212) scale(0.1 -0.1)">
     <defs>
      <path id="Arial-BoldMT-33" d="M 241 1216 
L 1091 1319 
Q 1131 994 1309 822 
Q 1488 650 1741 650 
Q 2013 650 2198 856 
Q 2384 1063 2384 1413 
Q 2384 1744 2206 1937 
Q 2028 2131 1772 2131 
Q 1603 2131 1369 2066 
L 1466 2781 
Q 1822 2772 2009 2936 
Q 2197 3100 2197 3372 
Q 2197 3603 2059 3740 
Q 1922 3878 1694 3878 
Q 1469 3878 1309 3722 
Q 1150 3566 1116 3266 
L 306 3403 
Q 391 3819 561 4067 
Q 731 4316 1036 4458 
Q 1341 4600 1719 4600 
Q 2366 4600 2756 4188 
Q 3078 3850 3078 3425 
Q 3078 2822 2419 2463 
Q 2813 2378 3048 2084 
Q 3284 1791 3284 1375 
Q 3284 772 2843 347 
Q 2403 -78 1747 -78 
Q 1125 -78 715 280 
Q 306 638 241 1216 
z
" transform="scale(0.015625)"/>
     </defs>
     <use xlink:href="#Arial-BoldMT-35"/>
     <use xlink:href="#Arial-BoldMT-33" x="55.615234"/>
     <use xlink:href="#Arial-BoldMT-2e" x="111.230469"/>
     <use xlink:href="#Arial-BoldMT-36" x="139.013672"/>
     <use xlink:href="#Arial-BoldMT-31" x="194.628906"/>
    </g>
   </g>
   <g id="text_20">
    <!-- 52.93 -->
    <g transform="translate(196.927569 140.227013) scale(0.1 -0.1)">
     <defs>
      <path id="Arial-BoldMT-39" d="M 291 1059 
L 1141 1153 
Q 1172 894 1303 769 
Q 1434 644 1650 644 
Q 1922 644 2112 894 
Q 2303 1144 2356 1931 
Q 2025 1547 1528 1547 
Q 988 1547 595 1964 
Q 203 2381 203 3050 
Q 203 3747 617 4173 
Q 1031 4600 1672 4600 
Q 2369 4600 2816 4061 
Q 3263 3522 3263 2288 
Q 3263 1031 2797 475 
Q 2331 -81 1584 -81 
Q 1047 -81 715 205 
Q 384 491 291 1059 
z
M 2278 2978 
Q 2278 3403 2083 3637 
Q 1888 3872 1631 3872 
Q 1388 3872 1227 3680 
Q 1066 3488 1066 3050 
Q 1066 2606 1241 2398 
Q 1416 2191 1678 2191 
Q 1931 2191 2104 2391 
Q 2278 2591 2278 2978 
z
" transform="scale(0.015625)"/>
     </defs>
     <use xlink:href="#Arial-BoldMT-35"/>
     <use xlink:href="#Arial-BoldMT-32" x="55.615234"/>
     <use xlink:href="#Arial-BoldMT-2e" x="111.230469"/>
     <use xlink:href="#Arial-BoldMT-39" x="139.013672"/>
     <use xlink:href="#Arial-BoldMT-33" x="194.628906"/>
    </g>
   </g>
   <g id="text_21">
    <!-- 36.57 -->
    <g transform="translate(262.245347 182.029893) scale(0.1 -0.1)">
     <defs>
      <path id="Arial-BoldMT-37" d="M 272 3703 
L 272 4519 
L 3275 4519 
L 3275 3881 
Q 2903 3516 2518 2831 
Q 2134 2147 1932 1376 
Q 1731 606 1734 0 
L 888 0 
Q 909 950 1279 1937 
Q 1650 2925 2269 3703 
L 272 3703 
z
" transform="scale(0.015625)"/>
     </defs>
     <use xlink:href="#Arial-BoldMT-33"/>
     <use xlink:href="#Arial-BoldMT-36" x="55.615234"/>
     <use xlink:href="#Arial-BoldMT-2e" x="111.230469"/>
     <use xlink:href="#Arial-BoldMT-35" x="139.013672"/>
     <use xlink:href="#Arial-BoldMT-37" x="194.628906"/>
    </g>
   </g>
   <g id="text_22">
    <!-- 69.82 -->
    <g transform="translate(327.563125 97.073812) scale(0.1 -0.1)">
     <use xlink:href="#Arial-BoldMT-36"/>
     <use xlink:href="#Arial-BoldMT-39" x="55.615234"/>
     <use xlink:href="#Arial-BoldMT-2e" x="111.230469"/>
     <use xlink:href="#Arial-BoldMT-38" x="139.013672"/>
     <use xlink:href="#Arial-BoldMT-32" x="194.628906"/>
    </g>
   </g>
   <g id="text_23">
    <!-- 24.84 -->
    <g transform="translate(392.880903 211.974166) scale(0.1 -0.1)">
     <use xlink:href="#Arial-BoldMT-32"/>
     <use xlink:href="#Arial-BoldMT-34" x="55.615234"/>
     <use xlink:href="#Arial-BoldMT-2e" x="111.230469"/>
     <use xlink:href="#Arial-BoldMT-38" x="139.013672"/>
     <use xlink:href="#Arial-BoldMT-34" x="194.628906"/>
    </g>
   </g>
   <g id="text_24">
    <!-- 67.95 -->
    <g transform="translate(458.198681 101.847768) scale(0.1 -0.1)">
     <use xlink:href="#Arial-BoldMT-36"/>
     <use xlink:href="#Arial-BoldMT-37" x="55.615234"/>
     <use xlink:href="#Arial-BoldMT-2e" x="111.230469"/>
     <use xlink:href="#Arial-BoldMT-39" x="139.013672"/>
     <use xlink:href="#Arial-BoldMT-35" x="194.628906"/>
    </g>
   </g>
   <g id="text_25">
    <!-- 69.40 -->
    <g transform="translate(523.516458 98.153693) scale(0.1 -0.1)">
     <use xlink:href="#Arial-BoldMT-36"/>
     <use xlink:href="#Arial-BoldMT-39" x="55.615234"/>
     <use xlink:href="#Arial-BoldMT-2e" x="111.230469"/>
     <use xlink:href="#Arial-BoldMT-34" x="139.013672"/>
     <use xlink:href="#Arial-BoldMT-30" x="194.628906"/>
    </g>
   </g>
   <g id="text_26">
    <!-- 26.34 -->
    <g transform="translate(588.834236 208.140085) scale(0.1 -0.1)">
     <use xlink:href="#Arial-BoldMT-32"/>
     <use xlink:href="#Arial-BoldMT-36" x="55.615234"/>
     <use xlink:href="#Arial-BoldMT-2e" x="111.230469"/>
     <use xlink:href="#Arial-BoldMT-33" x="139.013672"/>
     <use xlink:href="#Arial-BoldMT-34" x="194.628906"/>
    </g>
   </g>
  </g>
 </g>
 <defs>
  <clipPath id="p8d5b3fc16b">
   <rect x="46.144063" y="7.2" width="587.86" height="281.016714"/>
  </clipPath>
 </defs>
</svg>
